%TF.GenerationSoftware,Novarm,DipTrace,3.3.1.3*%
%TF.CreationDate,2021-03-19T21:20:45+00:00*%
%FSLAX35Y35*%
%MOMM*%
%TF.FileFunction,Plated,1,2,PTH,Drill*%
%TF.Part,Single*%
%TA.AperFunction,ViaDrill*%
%ADD15C,0.381*%
%TA.AperFunction,ComponentDrill*%
%ADD18C,1.016*%
%ADD20C,0.6*%
%TA.AperFunction,ViaDrill*%
%ADD76C,0.762*%
%TA.AperFunction,ComponentDrill*%
%ADD78C,1.5*%
%ADD79C,1.4*%
%ADD80C,1.1*%
%ADD81C,0.85*%
%ADD82C,0.9*%
G75*
G01*
D78*
X-3940360Y5807717D3*
D18*
X-1782283Y8655817D3*
X-2036283Y8630417D3*
X-2290283Y8655817D3*
X-2544283Y8630417D3*
X-2798283Y8655817D3*
X-3052283Y8630417D3*
D79*
X-6657497Y7938443D3*
Y8288443D3*
D80*
X-813523Y5909017D3*
X-1083523Y6459190D3*
X16477Y5904190D3*
X-53523Y7059017D3*
X-813523Y7019017D3*
D81*
X-6935290Y5283907D3*
X-6935590Y4780307D3*
X-7170290Y5383707D2*
D20*
X-7240290D1*
X-7173090Y4683007D2*
X-7243090D1*
D82*
X-2570120Y6929487D3*
X-5047060Y8526670D3*
X-6669557Y-481820D3*
X-5386087Y6536420D3*
Y6790420D3*
Y7044420D3*
Y7298420D3*
X-6800937Y8694577D3*
Y8948577D3*
D76*
X-5777383Y8690853D3*
X-4077970Y7394493D3*
X-3478117Y7549610D3*
X-3850247Y7964957D3*
X-3793483Y7340390D3*
X-3812177Y7689177D3*
X-3484997Y7907827D3*
X-4083623Y7944867D3*
X-7035748Y4327560D3*
X-2943003Y7126443D3*
X-2975847Y6629673D3*
X-2793537Y7667533D3*
X-5680030Y6363883D3*
X-5686200Y6740197D3*
X-5548017Y7812040D3*
X-5305743Y8040493D3*
X-6162463Y7920167D3*
X-5684917Y8092937D3*
D15*
X-4985027Y7649100D3*
D76*
X-4956987Y7513990D3*
X-6175563Y7331233D3*
X-3586577Y8598127D3*
X-1317073Y8559493D3*
X-650360Y7474940D3*
X-5737093Y5848980D3*
X-1014443Y7488853D3*
X-1441140Y7486533D3*
X-2928223Y7440247D3*
X-2454053Y7538417D3*
X-3683823Y6767193D3*
D15*
X-3582403Y6277763D3*
D76*
X-4329830Y8677717D3*
X-2872303Y6325043D3*
X-4341160Y5076123D3*
X-3687023Y5085530D3*
X-3436960Y5111653D3*
X-3453357Y-1335007D3*
X-4698930Y5841934D3*
X-6714943Y7586473D3*
X-6206643Y9098980D3*
X-1435627Y5190627D3*
X-903703Y5201763D3*
X-1169610Y5008823D3*
X-4072777Y6281397D3*
X-4313953Y6502583D3*
X-5854867Y5599130D3*
X-5959207Y5494790D3*
X-5829833Y4191843D3*
X-4829580Y4688237D3*
X-4578587Y4862437D3*
X-3587717Y4807037D3*
X-3404107Y4757970D3*
X-3822010Y4873713D3*
X-2697923Y4540747D3*
X-1871263Y3951597D3*
X-3453357Y-916990D3*
X-5924930Y-220653D3*
X-4984270Y-773830D3*
X-6665157Y721047D3*
X-2760800Y-600937D3*
X-2186640Y-259123D3*
X-1476990Y639083D3*
X-1199400Y1742797D3*
X-1368670Y2946457D3*
X-6594677Y3189873D3*
X-6857967Y1759180D3*
X-3862443Y-968257D3*
X-4982230Y6389437D3*
Y6123593D3*
X-884423Y8207213D3*
M02*
