%TF.GenerationSoftware,Novarm,DipTrace,3.3.1.3*%
%TF.CreationDate,2021-03-19T21:20:44+00:00*%
%FSLAX35Y35*%
%MOMM*%
%TF.FileFunction,Profile*%
%TF.Part,Single*%
%ADD11C,0.14*%
G75*
G01*
%LPD*%
X-781920Y4800527D2*
D11*
G02X-531920Y5050527I250034J-34D01*
G01*
G03X217913Y5800527I-156J749989D01*
G01*
Y8530427D1*
G03X-532087Y9280427I-749989J11D01*
G01*
X-1531920D1*
X-2684447Y9282200D1*
X-6631920Y9280427D1*
G03X-7381920Y8530427I-11J-749989D01*
G01*
Y4177660D1*
G02X-7523420Y3541627I-1500052J-36D01*
G01*
G03X-640420Y3541627I3441500J-1611210D01*
G01*
G02X-781920Y4177660I1358552J635997D01*
G01*
Y4800527D1*
X-1431920Y1930427D2*
X-1438990Y1736990D1*
X-1460160Y1544583D1*
X-1495320Y1354237D1*
X-1544277Y1166963D1*
X-1606777Y983767D1*
X-1682480Y805617D1*
X-1770987Y633470D1*
X-1871823Y468243D1*
X-1984453Y310817D1*
X-2108273Y162033D1*
X-2242623Y22683D1*
X-2386783Y-106487D1*
X-2539993Y-224790D1*
X-2701427Y-331593D1*
X-2870227Y-426330D1*
X-3045490Y-508490D1*
X-3226283Y-577637D1*
X-3411643Y-633403D1*
X-3600580Y-675493D1*
X-3792083Y-703677D1*
X-3985133Y-717807D1*
X-4178700D1*
X-4371750Y-703677D1*
X-4563253Y-675493D1*
X-4752190Y-633407D1*
X-4937550Y-577640D1*
X-5118343Y-508490D1*
X-5293607Y-426330D1*
X-5462407Y-331597D1*
X-5623843Y-224793D1*
X-5777050Y-106490D1*
X-5921213Y22680D1*
X-6055563Y162030D1*
X-6179383Y310813D1*
X-6292010Y468240D1*
X-6392847Y633467D1*
X-6481353Y805613D1*
X-6557060Y983763D1*
X-6619557Y1166960D1*
X-6668517Y1354233D1*
X-6703677Y1544580D1*
X-6724847Y1736987D1*
X-6731917Y1930423D1*
X-6724850Y2123863D1*
X-6703680Y2316270D1*
X-6668520Y2506617D1*
X-6619560Y2693890D1*
X-6557063Y2877090D1*
X-6481357Y3055237D1*
X-6392850Y3227383D1*
X-6292013Y3392613D1*
X-6179383Y3550037D1*
X-6055563Y3698823D1*
X-5921213Y3838170D1*
X-5777050Y3967343D1*
X-5623843Y4085647D1*
X-5462410Y4192450D1*
X-5293610Y4287183D1*
X-5118343Y4369343D1*
X-4937550Y4438493D1*
X-4752190Y4494260D1*
X-4563253Y4536347D1*
X-4371750Y4564530D1*
X-4178700Y4578660D1*
X-3985133D1*
X-3792083Y4564530D1*
X-3600580Y4536347D1*
X-3411643Y4494257D1*
X-3226283Y4438490D1*
X-3045490Y4369343D1*
X-2870223Y4287183D1*
X-2701423Y4192447D1*
X-2539990Y4085643D1*
X-2386783Y3967340D1*
X-2242620Y3838170D1*
X-2108270Y3698820D1*
X-1984450Y3550037D1*
X-1871823Y3392610D1*
X-1770987Y3227380D1*
X-1682477Y3055233D1*
X-1606773Y2877087D1*
X-1544273Y2693887D1*
X-1495317Y2506613D1*
X-1460157Y2316267D1*
X-1438987Y2123860D1*
X-1431917Y1930423D1*
X-6131920Y6380427D2*
X-6146603Y6287723D1*
X-6189213Y6204093D1*
X-6255583Y6137723D1*
X-6339213Y6095110D1*
X-6431917Y6080427D1*
X-6524620Y6095110D1*
X-6608250Y6137720D1*
X-6674620Y6204090D1*
X-6717233Y6287720D1*
X-6731917Y6380423D1*
X-6717237Y6473133D1*
X-6674623Y6556763D1*
X-6608253Y6623133D1*
X-6524623Y6665743D1*
X-6431917Y6680427D1*
X-6339210Y6665743D1*
X-6255580Y6623130D1*
X-6189210Y6556760D1*
X-6146600Y6473130D1*
X-6131917Y6380423D1*
X-1431920Y6380427D2*
X-1446603Y6287723D1*
X-1489213Y6204093D1*
X-1555583Y6137723D1*
X-1639213Y6095110D1*
X-1731917Y6080427D1*
X-1824620Y6095110D1*
X-1908250Y6137720D1*
X-1974620Y6204090D1*
X-2017233Y6287720D1*
X-2031917Y6380423D1*
X-2017237Y6473133D1*
X-1974623Y6556763D1*
X-1908253Y6623133D1*
X-1824623Y6665743D1*
X-1731917Y6680427D1*
X-1639210Y6665743D1*
X-1555580Y6623130D1*
X-1489210Y6556760D1*
X-1446600Y6473130D1*
X-1431917Y6380423D1*
M02*
