%TF.GenerationSoftware,Novarm,DipTrace,3.3.1.3*%
%TF.CreationDate,2021-03-19T21:20:43+00:00*%
%FSLAX35Y35*%
%MOMM*%
%TF.FileFunction,Legend,Bot*%
%TF.Part,Single*%
%ADD10C,0.25*%
%ADD16C,0.254*%
%ADD28C,0.1778*%
%ADD30O,0.3999X0.39962*%
%ADD35C,0.2032*%
%ADD47O,1.25409X1.28622*%
%ADD48C,0.127*%
%ADD50C,0.29995*%
%ADD63O,0.40856X0.41059*%
%ADD65O,1.46877X1.46947*%
%ADD68O,1.13934X1.09392*%
%ADD151C,0.15686*%
%ADD152C,0.23529*%
%ADD154C,0.31373*%
G75*
G01*
%LPD*%
D30*
X-3602855Y5982718D3*
X-4160393Y6057727D2*
D10*
X-4190386D1*
Y6027712D1*
X-4160393Y5557707D2*
X-4190386D1*
Y5587722D2*
Y5557707D1*
X-3690575D2*
X-3720503D1*
X-3690575Y5587722D2*
Y5557707D1*
X-3720503Y6057727D2*
X-3690575Y6027712D1*
X-4264554Y7204294D2*
D35*
X-4224599Y7164339D1*
X-3344541D1*
X-3304586Y7204294D1*
Y8084352D1*
X-3344541Y8124307D1*
X-4224599D1*
X-4264554Y8084352D1*
Y7204294D1*
X-4212809Y7244315D2*
D16*
G02X-4212809Y7244315I28230J0D01*
G01*
G36*
X-4015207Y6525862D2*
X-3974894D1*
Y6597827D1*
X-4015207D1*
Y6525862D1*
G37*
G36*
Y6368462D2*
X-3974894D1*
Y6440427D1*
X-4015207D1*
Y6368462D1*
G37*
G36*
X-4435823Y6020835D2*
X-4476136D1*
Y5948870D1*
X-4435823D1*
Y6020835D1*
G37*
X-3068480Y-693949D2*
D10*
X-2738454D1*
Y-873954D1*
X-3068480D1*
Y-693949D1*
G36*
X-2740431Y-766456D2*
X-2841490Y-866708D1*
X-2750701Y-870662D1*
X-2749103Y-847769D1*
X-2740431Y-766456D1*
G37*
X-2854117Y-693052D2*
D10*
X-2951220Y-785395D1*
X-2854117Y-872244D1*
G36*
X-2711107Y-841506D2*
Y-906808D1*
X-2773522D1*
X-2711107Y-841506D1*
G37*
X-2106910Y-38169D2*
D10*
X-1776884D1*
Y-218174D1*
X-2106910D1*
Y-38169D1*
G36*
X-1778861Y-110676D2*
X-1879920Y-210928D1*
X-1789131Y-214882D1*
X-1787533Y-191989D1*
X-1778861Y-110676D1*
G37*
X-1892547Y-37272D2*
D10*
X-1989650Y-129615D1*
X-1892547Y-216464D1*
G36*
X-1749537Y-185726D2*
Y-251028D1*
X-1811952D1*
X-1749537Y-185726D1*
G37*
X-1492444Y869907D2*
D10*
X-1162417D1*
Y689903D1*
X-1492444D1*
Y869907D1*
G36*
X-1164395Y797401D2*
X-1265453Y697149D1*
X-1174664Y693195D1*
X-1173067Y716088D1*
X-1164395Y797401D1*
G37*
X-1278080Y870805D2*
D10*
X-1375183Y778462D1*
X-1278080Y691613D1*
G36*
X-1135070Y722351D2*
Y657048D1*
X-1197485D1*
X-1135070Y722351D1*
G37*
X-1311480Y2042234D2*
D10*
X-981454D1*
Y1862229D1*
X-1311480D1*
Y2042234D1*
G36*
X-983431Y1969728D2*
X-1084490Y1869476D1*
X-993701Y1865521D1*
X-992103Y1888415D1*
X-983431Y1969728D1*
G37*
X-1097117Y2043132D2*
D10*
X-1194220Y1950789D1*
X-1097117Y1863939D1*
G36*
X-954107Y1894678D2*
Y1829375D1*
X-1016522D1*
X-954107Y1894678D1*
G37*
X-1502444Y3215714D2*
D10*
X-1172417D1*
Y3035709D1*
X-1502444D1*
Y3215714D1*
G36*
X-1174395Y3143208D2*
X-1275453Y3042956D1*
X-1184664Y3039001D1*
X-1183067Y3061895D1*
X-1174395Y3143208D1*
G37*
X-1288080Y3216612D2*
D10*
X-1385183Y3124269D1*
X-1288080Y3037419D1*
G36*
X-1145070Y3068158D2*
Y3002855D1*
X-1207485D1*
X-1145070Y3068158D1*
G37*
X-2181794Y4189837D2*
D10*
X-1851767D1*
Y4009833D1*
X-2181794D1*
Y4189837D1*
G36*
X-1853745Y4117331D2*
X-1954803Y4017079D1*
X-1864014Y4013125D1*
X-1862417Y4036018D1*
X-1853745Y4117331D1*
G37*
X-1967430Y4190735D2*
D10*
X-2064533Y4098392D1*
X-1967430Y4011543D1*
G36*
X-1824420Y4042281D2*
Y3976978D1*
X-1886835D1*
X-1824420Y4042281D1*
G37*
X-3114410Y4781921D2*
D10*
X-2784384D1*
Y4601916D1*
X-3114410D1*
Y4781921D1*
G36*
X-2786361Y4709414D2*
X-2887420Y4609162D1*
X-2796631Y4605208D1*
X-2795033Y4628101D1*
X-2786361Y4709414D1*
G37*
X-2900047Y4782818D2*
D10*
X-2997150Y4690475D1*
X-2900047Y4603626D1*
G36*
X-2757037Y4634364D2*
Y4569062D1*
X-2819452D1*
X-2757037Y4634364D1*
G37*
X-4243244Y4961527D2*
D10*
X-3913217D1*
Y4781523D1*
X-4243244D1*
Y4961527D1*
G36*
X-3915195Y4889021D2*
X-4016253Y4788769D1*
X-3925464Y4784815D1*
X-3923867Y4807708D1*
X-3915195Y4889021D1*
G37*
X-4028880Y4962425D2*
D10*
X-4125983Y4870082D1*
X-4028880Y4783233D1*
G36*
X-3885870Y4813971D2*
Y4748668D1*
X-3948285D1*
X-3885870Y4813971D1*
G37*
X-5275054Y4771421D2*
D10*
X-4945027D1*
Y4591416D1*
X-5275054D1*
Y4771421D1*
G36*
X-4947005Y4698914D2*
X-5048063Y4598662D1*
X-4957274Y4594708D1*
X-4955677Y4617601D1*
X-4947005Y4698914D1*
G37*
X-5060690Y4772318D2*
D10*
X-5157793Y4679975D1*
X-5060690Y4593126D1*
G36*
X-4917680Y4623864D2*
Y4558562D1*
X-4980095D1*
X-4917680Y4623864D1*
G37*
X-6282824Y4286787D2*
D10*
X-5952797D1*
Y4106783D1*
X-6282824D1*
Y4286787D1*
G36*
X-5954775Y4214281D2*
X-6055833Y4114029D1*
X-5965044Y4110075D1*
X-5963447Y4132968D1*
X-5954775Y4214281D1*
G37*
X-6068460Y4287685D2*
D10*
X-6165563Y4195342D1*
X-6068460Y4108493D1*
G36*
X-5925450Y4139231D2*
Y4073928D1*
X-5987865D1*
X-5925450Y4139231D1*
G37*
X-6999357Y3270711D2*
D10*
X-6669330D1*
Y3090706D1*
X-6999357D1*
Y3270711D1*
G36*
X-6671308Y3198204D2*
X-6772366Y3097952D1*
X-6681577Y3093998D1*
X-6679980Y3116891D1*
X-6671308Y3198204D1*
G37*
X-6784994Y3271608D2*
D10*
X-6882096Y3179265D1*
X-6784994Y3092416D1*
G36*
X-6641983Y3123154D2*
Y3057852D1*
X-6704398D1*
X-6641983Y3123154D1*
G37*
X-7166474Y2037814D2*
D10*
X-6836447D1*
Y1857809D1*
X-7166474D1*
Y2037814D1*
G36*
X-6838425Y1965308D2*
X-6939483Y1865056D1*
X-6848694Y1861101D1*
X-6847097Y1883995D1*
X-6838425Y1965308D1*
G37*
X-6952110Y2038712D2*
D10*
X-7049213Y1946369D1*
X-6952110Y1859519D1*
G36*
X-6809100Y1890258D2*
Y1824955D1*
X-6871515D1*
X-6809100Y1890258D1*
G37*
X-7008527Y907497D2*
D10*
X-6678500D1*
Y727493D1*
X-7008527D1*
Y907497D1*
G36*
X-6680478Y834991D2*
X-6781536Y734739D1*
X-6690747Y730785D1*
X-6689150Y753678D1*
X-6680478Y834991D1*
G37*
X-6794164Y908395D2*
D10*
X-6891266Y816052D1*
X-6794164Y729203D1*
G36*
X-6651153Y759941D2*
Y694638D1*
X-6713568D1*
X-6651153Y759941D1*
G37*
X-6352264Y-74409D2*
D10*
X-6022237D1*
Y-254414D1*
X-6352264D1*
Y-74409D1*
G36*
X-6024215Y-146916D2*
X-6125273Y-247168D1*
X-6034484Y-251122D1*
X-6032887Y-228229D1*
X-6024215Y-146916D1*
G37*
X-6137900Y-73512D2*
D10*
X-6235003Y-165855D1*
X-6137900Y-252704D1*
G36*
X-5994890Y-221966D2*
Y-287268D1*
X-6057305D1*
X-5994890Y-221966D1*
G37*
X-5402890Y-682163D2*
D10*
X-5072864D1*
Y-862167D1*
X-5402890D1*
Y-682163D1*
G36*
X-5074841Y-754669D2*
X-5175900Y-854921D1*
X-5085111Y-858875D1*
X-5083513Y-835982D1*
X-5074841Y-754669D1*
G37*
X-5188527Y-681265D2*
D10*
X-5285630Y-773608D1*
X-5188527Y-860457D1*
G36*
X-5045517Y-829719D2*
Y-895022D1*
X-5107932D1*
X-5045517Y-829719D1*
G37*
X-4291570Y-885699D2*
D10*
X-3961544D1*
Y-1065704D1*
X-4291570D1*
Y-885699D1*
G36*
X-3963521Y-958206D2*
X-4064580Y-1058458D1*
X-3973791Y-1062412D1*
X-3972193Y-1039519D1*
X-3963521Y-958206D1*
G37*
X-4077207Y-884802D2*
D10*
X-4174310Y-977145D1*
X-4077207Y-1063994D1*
G36*
X-3934197Y-1033256D2*
Y-1098558D1*
X-3996612D1*
X-3934197Y-1033256D1*
G37*
G36*
X-3851777Y6838108D2*
X-3811464D1*
Y6910074D1*
X-3851777D1*
Y6838108D1*
G37*
G36*
X-3820260Y8429822D2*
X-3860572D1*
Y8357856D1*
X-3820260D1*
Y8429822D1*
G37*
G36*
X-2960765Y7620414D2*
X-2888800D1*
Y7580101D1*
X-2960765D1*
Y7620414D1*
G37*
G36*
X-1447880Y8694612D2*
X-1488192D1*
Y8622646D1*
X-1447880D1*
Y8694612D1*
G37*
X-6384160Y5453782D2*
D35*
Y5367898D1*
X-6099680D2*
Y5453782D1*
X-6215094Y5491860D2*
X-6268746D1*
G36*
X-1595958Y5345263D2*
X-1667924D1*
Y5385576D1*
X-1595958D1*
Y5345263D1*
G37*
X-4973520Y7804190D2*
D10*
Y7674290D1*
D47*
X-1764768Y8294534D3*
X-1655370Y8960617D2*
D48*
Y8401793D1*
X-3179283Y8960617D2*
Y8401793D1*
Y8960617D2*
X-1655370D1*
X-3179283Y8401793D2*
X-3052374D1*
X-1782112D1*
X-1655370D1*
X-1782112D2*
Y8528808D1*
X-3052374D1*
Y8401793D1*
G36*
X-6066262Y5929747D2*
X-5994296D1*
Y5889434D1*
X-6066262D1*
Y5929747D1*
G37*
D50*
X-3310180Y8793340D3*
X-3390201Y8875846D2*
D10*
X-3600200D1*
X-3390201Y8710834D2*
X-3600200D1*
G36*
X-3272940Y8888590D2*
X-3399946D1*
Y8698090D1*
X-3272940D1*
Y8888590D1*
G37*
G36*
X-5592227Y8778390D2*
X-5637935D1*
Y8854589D1*
X-5592227D1*
Y8778390D1*
G37*
G36*
X-5991010Y8856056D2*
X-5945301D1*
Y8779857D1*
X-5991010D1*
Y8856056D1*
G37*
G36*
X-5797782Y5888206D2*
X-5869747D1*
Y5928519D1*
X-5797782D1*
Y5888206D1*
G37*
G36*
X-1299805Y5345263D2*
X-1371770D1*
Y5385576D1*
X-1299805D1*
Y5345263D1*
G37*
G36*
X-1003655D2*
X-1075620D1*
Y5385576D1*
X-1003655D1*
Y5345263D1*
G37*
X-4507497Y7468577D2*
D10*
Y7598477D1*
G36*
X-2691537Y7576520D2*
X-2645828D1*
Y7500321D1*
X-2691537D1*
Y7576520D1*
G37*
G36*
X-700776Y7370445D2*
X-741089D1*
Y7298480D1*
X-700776D1*
Y7370445D1*
G37*
G36*
X-3551580Y6095788D2*
X-3511268D1*
Y6167754D1*
X-3551580D1*
Y6095788D1*
G37*
G36*
X-1398540Y7297915D2*
X-1358228D1*
Y7369880D1*
X-1398540D1*
Y7297915D1*
G37*
X-5025377Y-1464267D2*
D10*
X-4647077D1*
Y-1165787D1*
X-5025377D1*
Y-1464267D1*
D63*
X-4938368Y-1502291D3*
X-5526095Y7295397D2*
D10*
X-5525748Y7307106D1*
X-5524709Y7318759D1*
X-5522983Y7330297D1*
X-5520579Y7341666D1*
X-5517508Y7352809D1*
X-5513785Y7363672D1*
X-5509428Y7374203D1*
X-5504459Y7384350D1*
X-5498902Y7394063D1*
X-5492783Y7403296D1*
X-5486133Y7412003D1*
X-5478984Y7420142D1*
X-5471371Y7427674D1*
X-5463331Y7434560D1*
X-5454903Y7440769D1*
X-5446128Y7446270D1*
X-5437049Y7451035D1*
X-5427710Y7455043D1*
X-5418157Y7458272D1*
X-5408436Y7460708D1*
X-5398594Y7462339D1*
X-5388680Y7463156D1*
X-5378742D1*
X-5368828Y7462339D1*
X-5358986Y7460708D1*
X-5349265Y7458272D1*
X-5339712Y7455043D1*
X-5330373Y7451035D1*
X-5321294Y7446270D1*
X-5312519Y7440769D1*
X-5304091Y7434560D1*
X-5296051Y7427674D1*
X-5288438Y7420142D1*
X-5281289Y7412003D1*
X-5274639Y7403296D1*
X-5268520Y7394063D1*
X-5262963Y7384350D1*
X-5257993Y7374203D1*
X-5253637Y7363672D1*
X-5249914Y7352809D1*
X-5246843Y7341666D1*
X-5244439Y7330297D1*
X-5242713Y7318759D1*
X-5241674Y7307106D1*
X-5241327Y7295397D1*
X-5241674Y7283688D1*
X-5242713Y7272035D1*
X-5244439Y7260497D1*
X-5246843Y7249128D1*
X-5249914Y7237985D1*
X-5253637Y7227122D1*
X-5257993Y7216591D1*
X-5262963Y7206444D1*
X-5268520Y7196731D1*
X-5274639Y7187498D1*
X-5281289Y7178791D1*
X-5288438Y7170652D1*
X-5296051Y7163120D1*
X-5304091Y7156234D1*
X-5312519Y7150025D1*
X-5321294Y7144524D1*
X-5330373Y7139759D1*
X-5339712Y7135751D1*
X-5349265Y7132522D1*
X-5358986Y7130086D1*
X-5368828Y7128455D1*
X-5378742Y7127638D1*
X-5388680D1*
X-5398594Y7128455D1*
X-5408436Y7130086D1*
X-5418157Y7132522D1*
X-5427710Y7135751D1*
X-5437049Y7139759D1*
X-5446128Y7144524D1*
X-5454903Y7150025D1*
X-5463331Y7156234D1*
X-5471371Y7163120D1*
X-5478984Y7170652D1*
X-5486133Y7178791D1*
X-5492783Y7187498D1*
X-5498902Y7196731D1*
X-5504459Y7206444D1*
X-5509428Y7216591D1*
X-5513785Y7227122D1*
X-5517508Y7237985D1*
X-5520579Y7249128D1*
X-5522983Y7260497D1*
X-5524709Y7272035D1*
X-5525748Y7283688D1*
X-5526095Y7295397D1*
X-5531505Y7040028D2*
X-5531158Y7051737D1*
X-5530119Y7063389D1*
X-5528393Y7074928D1*
X-5525989Y7086297D1*
X-5522918Y7097440D1*
X-5519195Y7108303D1*
X-5514838Y7118834D1*
X-5509869Y7128981D1*
X-5504312Y7138694D1*
X-5498193Y7147927D1*
X-5491543Y7156634D1*
X-5484394Y7164773D1*
X-5476781Y7172304D1*
X-5468741Y7179191D1*
X-5460313Y7185400D1*
X-5451538Y7190900D1*
X-5442459Y7195666D1*
X-5433120Y7199673D1*
X-5423567Y7202903D1*
X-5413846Y7205339D1*
X-5404004Y7206969D1*
X-5394090Y7207787D1*
X-5384152D1*
X-5374238Y7206969D1*
X-5364396Y7205339D1*
X-5354675Y7202903D1*
X-5345122Y7199673D1*
X-5335783Y7195666D1*
X-5326704Y7190900D1*
X-5317929Y7185400D1*
X-5309501Y7179191D1*
X-5301461Y7172304D1*
X-5293848Y7164773D1*
X-5286699Y7156634D1*
X-5280049Y7147927D1*
X-5273930Y7138694D1*
X-5268373Y7128981D1*
X-5263404Y7118834D1*
X-5259047Y7108303D1*
X-5255324Y7097440D1*
X-5252253Y7086297D1*
X-5249849Y7074928D1*
X-5248123Y7063389D1*
X-5247084Y7051737D1*
X-5246737Y7040028D1*
X-5247084Y7028318D1*
X-5248123Y7016666D1*
X-5249849Y7005127D1*
X-5252253Y6993759D1*
X-5255324Y6982616D1*
X-5259047Y6971752D1*
X-5263404Y6961222D1*
X-5268373Y6951075D1*
X-5273930Y6941361D1*
X-5280049Y6932128D1*
X-5286699Y6923421D1*
X-5293848Y6915282D1*
X-5301461Y6907751D1*
X-5309501Y6900864D1*
X-5317929Y6894655D1*
X-5326704Y6889155D1*
X-5335783Y6884389D1*
X-5345122Y6880382D1*
X-5354675Y6877153D1*
X-5364396Y6874717D1*
X-5374238Y6873086D1*
X-5384152Y6872269D1*
X-5394090D1*
X-5404004Y6873086D1*
X-5413846Y6874717D1*
X-5423567Y6877153D1*
X-5433120Y6880382D1*
X-5442459Y6884389D1*
X-5451538Y6889155D1*
X-5460313Y6894655D1*
X-5468741Y6900864D1*
X-5476781Y6907751D1*
X-5484394Y6915282D1*
X-5491543Y6923421D1*
X-5498193Y6932128D1*
X-5504312Y6941361D1*
X-5509869Y6951075D1*
X-5514838Y6961222D1*
X-5519195Y6971752D1*
X-5522918Y6982616D1*
X-5525989Y6993759D1*
X-5528393Y7005127D1*
X-5530119Y7016666D1*
X-5531158Y7028318D1*
X-5531505Y7040028D1*
X-5525530Y6785209D2*
X-5525183Y6796918D1*
X-5524144Y6808570D1*
X-5522419Y6820109D1*
X-5520014Y6831478D1*
X-5516943Y6842621D1*
X-5513220Y6853484D1*
X-5508864Y6864015D1*
X-5503895Y6874162D1*
X-5498337Y6883875D1*
X-5492219Y6893108D1*
X-5485569Y6901815D1*
X-5478420Y6909954D1*
X-5470806Y6917485D1*
X-5462766Y6924372D1*
X-5454338Y6930581D1*
X-5445563Y6936081D1*
X-5436484Y6940847D1*
X-5427145Y6944854D1*
X-5417592Y6948084D1*
X-5407871Y6950520D1*
X-5398029Y6952150D1*
X-5388115Y6952968D1*
X-5378177D1*
X-5368263Y6952150D1*
X-5358422Y6950520D1*
X-5348701Y6948084D1*
X-5339147Y6944854D1*
X-5329808Y6940847D1*
X-5320729Y6936081D1*
X-5311954Y6930581D1*
X-5303526Y6924372D1*
X-5295486Y6917485D1*
X-5287873Y6909954D1*
X-5280724Y6901815D1*
X-5274074Y6893108D1*
X-5267955Y6883875D1*
X-5262398Y6874162D1*
X-5257429Y6864015D1*
X-5253072Y6853484D1*
X-5249349Y6842621D1*
X-5246278Y6831478D1*
X-5243874Y6820109D1*
X-5242148Y6808570D1*
X-5241109Y6796918D1*
X-5240763Y6785209D1*
X-5241109Y6773499D1*
X-5242148Y6761847D1*
X-5243874Y6750308D1*
X-5246278Y6738940D1*
X-5249349Y6727797D1*
X-5253072Y6716933D1*
X-5257429Y6706403D1*
X-5262398Y6696256D1*
X-5267955Y6686542D1*
X-5274074Y6677309D1*
X-5280724Y6668602D1*
X-5287873Y6660463D1*
X-5295486Y6652932D1*
X-5303526Y6646045D1*
X-5311954Y6639836D1*
X-5320729Y6634336D1*
X-5329808Y6629570D1*
X-5339147Y6625563D1*
X-5348701Y6622334D1*
X-5358422Y6619898D1*
X-5368263Y6618267D1*
X-5378177Y6617450D1*
X-5388115D1*
X-5398029Y6618267D1*
X-5407871Y6619898D1*
X-5417592Y6622334D1*
X-5427145Y6625563D1*
X-5436484Y6629570D1*
X-5445563Y6634336D1*
X-5454338Y6639836D1*
X-5462766Y6646045D1*
X-5470806Y6652932D1*
X-5478420Y6660463D1*
X-5485569Y6668602D1*
X-5492219Y6677309D1*
X-5498337Y6686542D1*
X-5503895Y6696256D1*
X-5508864Y6706403D1*
X-5513220Y6716933D1*
X-5516943Y6727797D1*
X-5520014Y6738940D1*
X-5522419Y6750308D1*
X-5524144Y6761847D1*
X-5525183Y6773499D1*
X-5525530Y6785209D1*
X-5522519Y6530390D2*
X-5522172Y6542099D1*
X-5521133Y6553751D1*
X-5519408Y6565290D1*
X-5517003Y6576659D1*
X-5513932Y6587802D1*
X-5510209Y6598665D1*
X-5505853Y6609196D1*
X-5500884Y6619343D1*
X-5495326Y6629056D1*
X-5489208Y6638289D1*
X-5482558Y6646996D1*
X-5475409Y6655135D1*
X-5467796Y6662666D1*
X-5459755Y6669553D1*
X-5451327Y6675762D1*
X-5442552Y6681262D1*
X-5433473Y6686028D1*
X-5424134Y6690035D1*
X-5414581Y6693265D1*
X-5404860Y6695701D1*
X-5395019Y6697331D1*
X-5385104Y6698149D1*
X-5375166D1*
X-5365252Y6697331D1*
X-5355411Y6695701D1*
X-5345690Y6693265D1*
X-5336136Y6690035D1*
X-5326798Y6686028D1*
X-5317718Y6681262D1*
X-5308944Y6675762D1*
X-5300515Y6669553D1*
X-5292475Y6662666D1*
X-5284862Y6655135D1*
X-5277713Y6646996D1*
X-5271063Y6638289D1*
X-5264945Y6629056D1*
X-5259387Y6619343D1*
X-5254418Y6609196D1*
X-5250061Y6598665D1*
X-5246338Y6587802D1*
X-5243267Y6576659D1*
X-5240863Y6565290D1*
X-5239137Y6553751D1*
X-5238099Y6542099D1*
X-5237752Y6530390D1*
X-5238099Y6518680D1*
X-5239137Y6507028D1*
X-5240863Y6495489D1*
X-5243267Y6484121D1*
X-5246338Y6472978D1*
X-5250061Y6462114D1*
X-5254418Y6451584D1*
X-5259387Y6441437D1*
X-5264945Y6431723D1*
X-5271063Y6422490D1*
X-5277713Y6413783D1*
X-5284862Y6405644D1*
X-5292475Y6398113D1*
X-5300515Y6391226D1*
X-5308944Y6385017D1*
X-5317718Y6379517D1*
X-5326798Y6374751D1*
X-5336136Y6370744D1*
X-5345690Y6367515D1*
X-5355411Y6365079D1*
X-5365252Y6363448D1*
X-5375166Y6362631D1*
X-5385104D1*
X-5395019Y6363448D1*
X-5404860Y6365079D1*
X-5414581Y6367515D1*
X-5424134Y6370744D1*
X-5433473Y6374751D1*
X-5442552Y6379517D1*
X-5451327Y6385017D1*
X-5459755Y6391226D1*
X-5467796Y6398113D1*
X-5475409Y6405644D1*
X-5482558Y6413783D1*
X-5489208Y6422490D1*
X-5495326Y6431723D1*
X-5500884Y6441437D1*
X-5505853Y6451584D1*
X-5510209Y6462114D1*
X-5513932Y6472978D1*
X-5517003Y6484121D1*
X-5519408Y6495489D1*
X-5521133Y6507028D1*
X-5522172Y6518680D1*
X-5522519Y6530390D1*
D65*
X-5634770Y7301946D3*
G36*
X-1086830Y7297915D2*
X-1046518D1*
Y7369880D1*
X-1086830D1*
Y7297915D1*
G37*
G36*
X-3721966Y6304628D2*
X-3762279D1*
Y6232663D1*
X-3721966D1*
Y6304628D1*
G37*
D68*
X-6232571Y8531547D3*
X-6198000Y8339793D2*
D10*
X-5537995D1*
X-6198000Y8059953D2*
X-5537995D1*
Y8339793D2*
Y8059953D1*
X-6198000Y8339793D2*
Y8059953D1*
X-6535127Y7647727D2*
X-6421125D1*
Y7294718D1*
X-6535127D1*
Y7647727D1*
G36*
X-6144708Y7460350D2*
X-6216674D1*
Y7500662D1*
X-6144708D1*
Y7460350D1*
G37*
G36*
X-5674362Y5929747D2*
X-5602396D1*
Y5889434D1*
X-5674362D1*
Y5929747D1*
G37*
G36*
X-1033138Y8250160D2*
X-1105104D1*
Y8290472D1*
X-1033138D1*
Y8250160D1*
G37*
X-5841538Y9200372D2*
D10*
X-6218102D1*
Y8982362D1*
X-5841538D1*
Y9200372D1*
X-6540252Y6955212D2*
X-6163688D1*
Y7173222D1*
X-6540252D1*
Y6955212D1*
X-4794345Y8575265D2*
X-4417782D1*
Y8793275D1*
X-4794345D1*
Y8575265D1*
X-2916357Y6216096D2*
X-2650100Y5949840D1*
X-2495930Y6104010D1*
X-2762186Y6370267D1*
X-2916357Y6216096D1*
G36*
X-5012913Y6606078D2*
X-5053226D1*
Y6534113D1*
X-5012913D1*
Y6606078D1*
G37*
X-7313380Y5759513D2*
D28*
X-5562433D1*
Y4669920D1*
X-7313380D1*
Y5759513D1*
X-6131510Y6338903D2*
X-5564553D1*
Y5758340D1*
X-6131510D1*
Y6338903D1*
X-3255355Y5770939D2*
D151*
Y5698052D1*
X-3260185Y5683452D1*
X-3269955Y5673793D1*
X-3284555Y5668852D1*
X-3294214D1*
X-3308814Y5673793D1*
X-3318585Y5683452D1*
X-3323414Y5698052D1*
Y5770939D1*
X-3354786Y5751398D2*
X-3364557Y5756339D1*
X-3379157Y5770827D1*
Y5668852D1*
X-3439730Y5770827D2*
X-3425130Y5765998D1*
X-3415359Y5751398D1*
X-3410530Y5727139D1*
Y5712539D1*
X-3415359Y5688281D1*
X-3425130Y5673681D1*
X-3439730Y5668852D1*
X-3449388D1*
X-3463988Y5673681D1*
X-3473647Y5688281D1*
X-3478588Y5712539D1*
Y5727139D1*
X-3473647Y5751398D1*
X-3463988Y5765998D1*
X-3449388Y5770827D1*
X-3439730D1*
X-3473647Y5751398D2*
X-3415359Y5688281D1*
X-3509961Y5751398D2*
X-3519731Y5756339D1*
X-3534331Y5770827D1*
Y5668852D1*
X-3061485Y8273373D2*
Y8200485D1*
X-3066314Y8185885D1*
X-3076085Y8176226D1*
X-3090685Y8171285D1*
X-3100344D1*
X-3114944Y8176226D1*
X-3124714Y8185885D1*
X-3129544Y8200485D1*
Y8273373D1*
X-3165858Y8249002D2*
Y8253831D1*
X-3170687Y8263602D1*
X-3175516Y8268431D1*
X-3185287Y8273260D1*
X-3204716D1*
X-3214375Y8268431D1*
X-3219204Y8263602D1*
X-3224146Y8253831D1*
Y8244173D1*
X-3219204Y8234402D1*
X-3209546Y8219914D1*
X-3160916Y8171285D1*
X-3228975D1*
X-3697285Y6569937D2*
X-3740972D1*
X-3755572Y6574878D1*
X-3760514Y6579707D1*
X-3765343Y6589366D1*
Y6599137D1*
X-3760514Y6608795D1*
X-3755572Y6613737D1*
X-3740972Y6618566D1*
X-3697285D1*
Y6516478D1*
X-3731314Y6569937D2*
X-3765343Y6516478D1*
X-3820974Y6618454D2*
X-3806487Y6613624D1*
X-3801545Y6603966D1*
Y6594195D1*
X-3806487Y6584537D1*
X-3816145Y6579595D1*
X-3835574Y6574766D1*
X-3850174Y6569937D1*
X-3859833Y6560166D1*
X-3864662Y6550507D1*
Y6535907D1*
X-3859833Y6526249D1*
X-3855003Y6521307D1*
X-3840403Y6516478D1*
X-3820974D1*
X-3806487Y6521307D1*
X-3801545Y6526249D1*
X-3796716Y6535907D1*
Y6550507D1*
X-3801545Y6560166D1*
X-3811316Y6569937D1*
X-3825803Y6574766D1*
X-3845233Y6579595D1*
X-3855003Y6584537D1*
X-3859833Y6594195D1*
Y6603966D1*
X-3855003Y6613624D1*
X-3840403Y6618454D1*
X-3820974D1*
X-3694632Y6414997D2*
X-3738320D1*
X-3752920Y6419938D1*
X-3757861Y6424767D1*
X-3762690Y6434426D1*
Y6444197D1*
X-3757861Y6453855D1*
X-3752920Y6458797D1*
X-3738320Y6463626D1*
X-3694632D1*
Y6361538D1*
X-3728661Y6414997D2*
X-3762690Y6361538D1*
X-3813492D2*
X-3862121Y6463514D1*
X-3794063D1*
X-4407267Y5877481D2*
Y5833794D1*
X-4412208Y5819194D1*
X-4417037Y5814252D1*
X-4426696Y5809423D1*
X-4436467D1*
X-4446125Y5814252D1*
X-4451067Y5819194D1*
X-4455896Y5833794D1*
Y5877482D1*
X-4353808Y5877481D1*
X-4407267Y5843452D2*
X-4353808Y5809423D1*
X-4431525Y5773109D2*
X-4436354D1*
X-4446125Y5768280D1*
X-4450954Y5763451D1*
X-4455784Y5753680D1*
Y5734251D1*
X-4450954Y5724592D1*
X-4446125Y5719763D1*
X-4436354Y5714821D1*
X-4426696D1*
X-4416925Y5719763D1*
X-4402437Y5729421D1*
X-4353808Y5778050D1*
Y5709992D1*
X-2761792Y-544262D2*
Y-646350D1*
X-2795821D1*
X-2810421Y-641409D1*
X-2820192Y-631750D1*
X-2825021Y-621979D1*
X-2829850Y-607492D1*
Y-583121D1*
X-2825021Y-568521D1*
X-2820192Y-558862D1*
X-2810421Y-549092D1*
X-2795821Y-544262D1*
X-2761792D1*
X-2861223Y-563804D2*
X-2870994Y-558862D1*
X-2885594Y-544375D1*
Y-646350D1*
X-2946166Y-544375D2*
X-2931566Y-549204D1*
X-2921796Y-563804D1*
X-2916966Y-588062D1*
Y-602662D1*
X-2921796Y-626921D1*
X-2931566Y-641521D1*
X-2946166Y-646350D1*
X-2955825D1*
X-2970425Y-641521D1*
X-2980083Y-626921D1*
X-2985025Y-602662D1*
Y-588062D1*
X-2980083Y-563804D1*
X-2970425Y-549204D1*
X-2955825Y-544375D1*
X-2946166D1*
X-2980083Y-563804D2*
X-2921796Y-626921D1*
X-3016397Y-563804D2*
X-3026168Y-558862D1*
X-3040768Y-544375D1*
Y-646350D1*
X-1778378Y111518D2*
Y9430D1*
X-1812407D1*
X-1827007Y14371D1*
X-1836778Y24030D1*
X-1841607Y33801D1*
X-1846437Y48288D1*
Y72659D1*
X-1841607Y87259D1*
X-1836778Y96918D1*
X-1827007Y106688D1*
X-1812407Y111518D1*
X-1778378D1*
X-1877809Y91976D2*
X-1887580Y96918D1*
X-1902180Y111405D1*
Y9430D1*
X-1962752Y111405D2*
X-1948152Y106576D1*
X-1938382Y91976D1*
X-1933552Y67718D1*
Y53118D1*
X-1938382Y28859D1*
X-1948152Y14259D1*
X-1962752Y9430D1*
X-1972411D1*
X-1987011Y14259D1*
X-1996669Y28859D1*
X-2001611Y53118D1*
Y67718D1*
X-1996669Y91976D1*
X-1987011Y106576D1*
X-1972411Y111405D1*
X-1962752D1*
X-1996669Y91976D2*
X-1938382Y28859D1*
X-2037925Y87147D2*
Y91976D1*
X-2042754Y101747D1*
X-2047583Y106576D1*
X-2057354Y111405D1*
X-2076783D1*
X-2086442Y106576D1*
X-2091271Y101747D1*
X-2096213Y91976D1*
Y82318D1*
X-2091271Y72547D1*
X-2081613Y58059D1*
X-2032983Y9430D1*
X-2101042D1*
X-1163911Y1019594D2*
Y917507D1*
X-1197941D1*
X-1212541Y922448D1*
X-1222311Y932107D1*
X-1227141Y941877D1*
X-1231970Y956365D1*
Y980736D1*
X-1227141Y995336D1*
X-1222311Y1004994D1*
X-1212541Y1014765D1*
X-1197941Y1019594D1*
X-1163911D1*
X-1263342Y1000053D2*
X-1273113Y1004994D1*
X-1287713Y1019482D1*
Y917507D1*
X-1348286Y1019482D2*
X-1333686Y1014653D1*
X-1323915Y1000053D1*
X-1319086Y975794D1*
Y961194D1*
X-1323915Y936936D1*
X-1333686Y922336D1*
X-1348286Y917507D1*
X-1357944D1*
X-1372544Y922336D1*
X-1382203Y936936D1*
X-1387144Y961194D1*
Y975794D1*
X-1382203Y1000053D1*
X-1372544Y1014653D1*
X-1357944Y1019482D1*
X-1348286D1*
X-1382203Y1000053D2*
X-1323915Y936936D1*
X-1428288Y1019482D2*
X-1481634D1*
X-1452546Y980624D1*
X-1467146D1*
X-1476804Y975794D1*
X-1481634Y970965D1*
X-1486575Y956365D1*
Y946707D1*
X-1481634Y932107D1*
X-1471975Y922336D1*
X-1457375Y917507D1*
X-1442775D1*
X-1428288Y922336D1*
X-1423458Y927277D1*
X-1418517Y936936D1*
X-980533Y2191921D2*
Y2089833D1*
X-1014563D1*
X-1029163Y2094775D1*
X-1038933Y2104433D1*
X-1043763Y2114204D1*
X-1048592Y2128692D1*
Y2153062D1*
X-1043763Y2167662D1*
X-1038933Y2177321D1*
X-1029163Y2187092D1*
X-1014563Y2191921D1*
X-980533D1*
X-1079964Y2172379D2*
X-1089735Y2177321D1*
X-1104335Y2191809D1*
Y2089833D1*
X-1164908Y2191809D2*
X-1150308Y2186979D1*
X-1140537Y2172379D1*
X-1135708Y2148121D1*
Y2133521D1*
X-1140537Y2109262D1*
X-1150308Y2094662D1*
X-1164908Y2089833D1*
X-1174566D1*
X-1189166Y2094662D1*
X-1198825Y2109262D1*
X-1203766Y2133521D1*
Y2148121D1*
X-1198825Y2172379D1*
X-1189166Y2186979D1*
X-1174566Y2191809D1*
X-1164908D1*
X-1198825Y2172379D2*
X-1140537Y2109262D1*
X-1283768Y2089833D2*
Y2191809D1*
X-1235139Y2123862D1*
X-1308027D1*
X-1173911Y3365401D2*
Y3263313D1*
X-1207941D1*
X-1222541Y3268255D1*
X-1232311Y3277913D1*
X-1237141Y3287684D1*
X-1241970Y3302172D1*
Y3326542D1*
X-1237141Y3341142D1*
X-1232311Y3350801D1*
X-1222541Y3360572D1*
X-1207941Y3365401D1*
X-1173911D1*
X-1273342Y3345859D2*
X-1283113Y3350801D1*
X-1297713Y3365289D1*
Y3263313D1*
X-1358286Y3365289D2*
X-1343686Y3360459D1*
X-1333915Y3345859D1*
X-1329086Y3321601D1*
Y3307001D1*
X-1333915Y3282742D1*
X-1343686Y3268142D1*
X-1358286Y3263313D1*
X-1367944D1*
X-1382544Y3268142D1*
X-1392203Y3282742D1*
X-1397144Y3307001D1*
Y3321601D1*
X-1392203Y3345859D1*
X-1382544Y3360459D1*
X-1367944Y3365289D1*
X-1358286D1*
X-1392203Y3345859D2*
X-1333915Y3282742D1*
X-1486804Y3365289D2*
X-1438288D1*
X-1433458Y3321601D1*
X-1438288Y3326430D1*
X-1452888Y3331372D1*
X-1467375D1*
X-1481975Y3326430D1*
X-1491746Y3316772D1*
X-1496575Y3302172D1*
Y3292513D1*
X-1491746Y3277913D1*
X-1481975Y3268142D1*
X-1467375Y3263313D1*
X-1452888D1*
X-1438288Y3268142D1*
X-1433458Y3273084D1*
X-1428517Y3282742D1*
X-1855732Y4339524D2*
Y4237437D1*
X-1889761D1*
X-1904361Y4242378D1*
X-1914132Y4252037D1*
X-1918961Y4261807D1*
X-1923791Y4276295D1*
Y4300666D1*
X-1918961Y4315266D1*
X-1914132Y4324924D1*
X-1904361Y4334695D1*
X-1889761Y4339524D1*
X-1855732D1*
X-1955163Y4319983D2*
X-1964934Y4324924D1*
X-1979534Y4339412D1*
Y4237437D1*
X-2040107Y4339412D2*
X-2025507Y4334583D1*
X-2015736Y4319983D1*
X-2010907Y4295724D1*
Y4281124D1*
X-2015736Y4256866D1*
X-2025507Y4242266D1*
X-2040107Y4237437D1*
X-2049765D1*
X-2064365Y4242266D1*
X-2074023Y4256866D1*
X-2078965Y4281124D1*
Y4295724D1*
X-2074023Y4319983D1*
X-2064365Y4334583D1*
X-2049765Y4339412D1*
X-2040107D1*
X-2074023Y4319983D2*
X-2015736Y4256866D1*
X-2168625Y4324924D2*
X-2163796Y4334583D1*
X-2149196Y4339412D1*
X-2139538D1*
X-2124938Y4334583D1*
X-2115167Y4319983D1*
X-2110338Y4295724D1*
Y4271466D1*
X-2115167Y4252037D1*
X-2124938Y4242266D1*
X-2139538Y4237437D1*
X-2144367D1*
X-2158854Y4242266D1*
X-2168625Y4252037D1*
X-2173454Y4266637D1*
Y4271466D1*
X-2168625Y4286066D1*
X-2158854Y4295724D1*
X-2144367Y4300554D1*
X-2139538D1*
X-2124938Y4295724D1*
X-2115167Y4286066D1*
X-2110338Y4271466D1*
X-2785878Y4931608D2*
Y4829520D1*
X-2819907D1*
X-2834507Y4834461D1*
X-2844278Y4844120D1*
X-2849107Y4853891D1*
X-2853937Y4868378D1*
Y4892749D1*
X-2849107Y4907349D1*
X-2844278Y4917008D1*
X-2834507Y4926778D1*
X-2819907Y4931608D1*
X-2785878D1*
X-2885309Y4912066D2*
X-2895080Y4917008D1*
X-2909680Y4931495D1*
Y4829520D1*
X-2970252Y4931495D2*
X-2955652Y4926666D1*
X-2945882Y4912066D1*
X-2941052Y4887808D1*
Y4873208D1*
X-2945882Y4848949D1*
X-2955652Y4834349D1*
X-2970252Y4829520D1*
X-2979911D1*
X-2994511Y4834349D1*
X-3004169Y4848949D1*
X-3009111Y4873208D1*
Y4887808D1*
X-3004169Y4912066D1*
X-2994511Y4926666D1*
X-2979911Y4931495D1*
X-2970252D1*
X-3004169Y4912066D2*
X-2945882Y4848949D1*
X-3059913Y4829520D2*
X-3108542Y4931495D1*
X-3040483D1*
X-3914768Y5111214D2*
Y5009127D1*
X-3948797D1*
X-3963397Y5014068D1*
X-3973168Y5023727D1*
X-3977997Y5033497D1*
X-3982826Y5047985D1*
Y5072356D1*
X-3977997Y5086956D1*
X-3973168Y5096614D1*
X-3963397Y5106385D1*
X-3948797Y5111214D1*
X-3914768D1*
X-4014199Y5091673D2*
X-4023969Y5096614D1*
X-4038569Y5111102D1*
Y5009127D1*
X-4099142Y5111102D2*
X-4084542Y5106273D1*
X-4074771Y5091673D1*
X-4069942Y5067414D1*
Y5052814D1*
X-4074771Y5028556D1*
X-4084542Y5013956D1*
X-4099142Y5009127D1*
X-4108800D1*
X-4123400Y5013956D1*
X-4133059Y5028556D1*
X-4138000Y5052814D1*
Y5067414D1*
X-4133059Y5091673D1*
X-4123400Y5106273D1*
X-4108800Y5111102D1*
X-4099142D1*
X-4133059Y5091673D2*
X-4074771Y5028556D1*
X-4193631Y5111102D2*
X-4179144Y5106273D1*
X-4174202Y5096614D1*
Y5086844D1*
X-4179144Y5077185D1*
X-4188802Y5072244D1*
X-4208231Y5067414D1*
X-4222831Y5062585D1*
X-4232490Y5052814D1*
X-4237319Y5043156D1*
Y5028556D1*
X-4232490Y5018897D1*
X-4227661Y5013956D1*
X-4213061Y5009127D1*
X-4193631D1*
X-4179144Y5013956D1*
X-4174202Y5018897D1*
X-4169373Y5028556D1*
Y5043156D1*
X-4174202Y5052814D1*
X-4183973Y5062585D1*
X-4198461Y5067414D1*
X-4217890Y5072244D1*
X-4227661Y5077185D1*
X-4232490Y5086844D1*
Y5096614D1*
X-4227661Y5106273D1*
X-4213061Y5111102D1*
X-4193631D1*
X-4948936Y4921108D2*
Y4819020D1*
X-4982965D1*
X-4997565Y4823961D1*
X-5007336Y4833620D1*
X-5012165Y4843391D1*
X-5016995Y4857878D1*
Y4882249D1*
X-5012165Y4896849D1*
X-5007336Y4906508D1*
X-4997565Y4916278D1*
X-4982965Y4921108D1*
X-4948936D1*
X-5048367Y4901566D2*
X-5058138Y4906508D1*
X-5072738Y4920995D1*
Y4819020D1*
X-5133310Y4920995D2*
X-5118710Y4916166D1*
X-5108940Y4901566D1*
X-5104110Y4877308D1*
Y4862708D1*
X-5108940Y4838449D1*
X-5118710Y4823849D1*
X-5133310Y4819020D1*
X-5142969D1*
X-5157569Y4823849D1*
X-5167227Y4838449D1*
X-5172169Y4862708D1*
Y4877308D1*
X-5167227Y4901566D1*
X-5157569Y4916166D1*
X-5142969Y4920995D1*
X-5133310D1*
X-5167227Y4901566D2*
X-5108940Y4838449D1*
X-5266771Y4887078D2*
X-5261829Y4872478D1*
X-5252171Y4862708D1*
X-5237571Y4857878D1*
X-5232741D1*
X-5218141Y4862708D1*
X-5208483Y4872478D1*
X-5203541Y4887078D1*
Y4891908D1*
X-5208483Y4906508D1*
X-5218141Y4916166D1*
X-5232741Y4920995D1*
X-5237571D1*
X-5252171Y4916166D1*
X-5261829Y4906508D1*
X-5266771Y4887078D1*
Y4862708D1*
X-5261829Y4838449D1*
X-5252171Y4823849D1*
X-5237571Y4819020D1*
X-5227912D1*
X-5213312Y4823849D1*
X-5208483Y4833620D1*
X-6413582Y4184941D2*
Y4082853D1*
X-6447611D1*
X-6462211Y4087795D1*
X-6471982Y4097453D1*
X-6476811Y4107224D1*
X-6481640Y4121712D1*
Y4146082D1*
X-6476811Y4160682D1*
X-6471982Y4170341D1*
X-6462211Y4180112D1*
X-6447611Y4184941D1*
X-6413582D1*
X-6513013Y4165399D2*
X-6522784Y4170341D1*
X-6537384Y4184829D1*
Y4082853D1*
X-6568756Y4165399D2*
X-6578527Y4170341D1*
X-6593127Y4184829D1*
Y4082853D1*
X-6653700Y4184829D2*
X-6639100Y4179999D1*
X-6629329Y4165399D1*
X-6624500Y4141141D1*
Y4126541D1*
X-6629329Y4102282D1*
X-6639100Y4087682D1*
X-6653700Y4082853D1*
X-6663358D1*
X-6677958Y4087682D1*
X-6687617Y4102282D1*
X-6692558Y4126541D1*
Y4141141D1*
X-6687617Y4165399D1*
X-6677958Y4179999D1*
X-6663358Y4184829D1*
X-6653700D1*
X-6687617Y4165399D2*
X-6629329Y4102282D1*
X-6714512Y3420398D2*
Y3318310D1*
X-6748542D1*
X-6763142Y3323251D1*
X-6772912Y3332910D1*
X-6777742Y3342681D1*
X-6782571Y3357168D1*
Y3381539D1*
X-6777742Y3396139D1*
X-6772912Y3405798D1*
X-6763142Y3415568D1*
X-6748542Y3420398D1*
X-6714512D1*
X-6813943Y3400856D2*
X-6823714Y3405798D1*
X-6838314Y3420285D1*
Y3318310D1*
X-6869687Y3400856D2*
X-6879458Y3405798D1*
X-6894058Y3420285D1*
Y3318310D1*
X-6925430Y3400856D2*
X-6935201Y3405798D1*
X-6949801Y3420285D1*
Y3318310D1*
X-6878945Y2174088D2*
Y2072000D1*
X-6912975D1*
X-6927575Y2076941D1*
X-6937345Y2086600D1*
X-6942175Y2096371D1*
X-6947004Y2110858D1*
Y2135229D1*
X-6942175Y2149829D1*
X-6937345Y2159488D1*
X-6927575Y2169258D1*
X-6912975Y2174088D1*
X-6878945D1*
X-6978376Y2154546D2*
X-6988147Y2159488D1*
X-7002747Y2173975D1*
Y2072000D1*
X-7034120Y2154546D2*
X-7043890Y2159488D1*
X-7058490Y2173975D1*
Y2072000D1*
X-7094804Y2149717D2*
Y2154546D1*
X-7099634Y2164317D1*
X-7104463Y2169146D1*
X-7114234Y2173975D1*
X-7133663D1*
X-7143321Y2169146D1*
X-7148151Y2164317D1*
X-7153092Y2154546D1*
Y2144888D1*
X-7148151Y2135117D1*
X-7138492Y2120629D1*
X-7089863Y2072000D1*
X-7157921D1*
X-6701839Y1057184D2*
Y955097D1*
X-6735868D1*
X-6750468Y960038D1*
X-6760239Y969697D1*
X-6765068Y979467D1*
X-6769897Y993955D1*
Y1018326D1*
X-6765068Y1032926D1*
X-6760239Y1042584D1*
X-6750468Y1052355D1*
X-6735868Y1057184D1*
X-6701839D1*
X-6801270Y1037643D2*
X-6811040Y1042584D1*
X-6825640Y1057072D1*
Y955097D1*
X-6857013Y1037643D2*
X-6866784Y1042584D1*
X-6881384Y1057072D1*
Y955097D1*
X-6922527Y1057072D2*
X-6975873D1*
X-6946785Y1018214D1*
X-6961385D1*
X-6971044Y1013384D1*
X-6975873Y1008555D1*
X-6980815Y993955D1*
Y984297D1*
X-6975873Y969697D1*
X-6966215Y959926D1*
X-6951615Y955097D1*
X-6937015D1*
X-6922527Y959926D1*
X-6917698Y964867D1*
X-6912756Y974526D1*
X-6043161Y75278D2*
Y-26810D1*
X-6077190D1*
X-6091790Y-21869D1*
X-6101561Y-12210D1*
X-6106390Y-2439D1*
X-6111219Y12048D1*
Y36419D1*
X-6106390Y51019D1*
X-6101561Y60678D1*
X-6091790Y70448D1*
X-6077190Y75278D1*
X-6043161D1*
X-6142592Y55736D2*
X-6152362Y60678D1*
X-6166962Y75165D1*
Y-26810D1*
X-6198335Y55736D2*
X-6208106Y60678D1*
X-6222706Y75165D1*
Y-26810D1*
X-6302708D2*
Y75165D1*
X-6254078Y7219D1*
X-6326966D1*
X-5096202Y-532476D2*
Y-634563D1*
X-5130231D1*
X-5144831Y-629622D1*
X-5154602Y-619963D1*
X-5159431Y-610193D1*
X-5164260Y-595705D1*
Y-571334D1*
X-5159431Y-556734D1*
X-5154602Y-547076D1*
X-5144831Y-537305D1*
X-5130231Y-532476D1*
X-5096202D1*
X-5195633Y-552017D2*
X-5205404Y-547076D1*
X-5220004Y-532588D1*
Y-634563D1*
X-5251376Y-552017D2*
X-5261147Y-547076D1*
X-5275747Y-532588D1*
Y-634563D1*
X-5365407Y-532588D2*
X-5316890D1*
X-5312061Y-576276D1*
X-5316890Y-571446D1*
X-5331490Y-566505D1*
X-5345978D1*
X-5360578Y-571446D1*
X-5370349Y-581105D1*
X-5375178Y-595705D1*
Y-605363D1*
X-5370349Y-619963D1*
X-5360578Y-629734D1*
X-5345978Y-634563D1*
X-5331490D1*
X-5316890Y-629734D1*
X-5312061Y-624793D1*
X-5307120Y-615134D1*
X-3987353Y-736012D2*
Y-838100D1*
X-4021382D1*
X-4035982Y-833159D1*
X-4045753Y-823500D1*
X-4050582Y-813729D1*
X-4055411Y-799242D1*
Y-774871D1*
X-4050582Y-760271D1*
X-4045753Y-750612D1*
X-4035982Y-740842D1*
X-4021382Y-736012D1*
X-3987353D1*
X-4086784Y-755554D2*
X-4096554Y-750612D1*
X-4111154Y-736125D1*
Y-838100D1*
X-4142527Y-755554D2*
X-4152298Y-750612D1*
X-4166898Y-736125D1*
Y-838100D1*
X-4256558Y-750612D2*
X-4251729Y-740954D1*
X-4237129Y-736125D1*
X-4227470D1*
X-4212870Y-740954D1*
X-4203100Y-755554D1*
X-4198270Y-779812D1*
Y-804071D1*
X-4203100Y-823500D1*
X-4212870Y-833271D1*
X-4227470Y-838100D1*
X-4232300D1*
X-4246787Y-833271D1*
X-4256558Y-823500D1*
X-4261387Y-808900D1*
Y-804071D1*
X-4256558Y-789471D1*
X-4246787Y-779812D1*
X-4232300Y-774983D1*
X-4227470D1*
X-4212870Y-779812D1*
X-4203100Y-789471D1*
X-4198270Y-804071D1*
X-3882033Y6662114D2*
X-3877204Y6671773D1*
X-3867433Y6681543D1*
X-3857775Y6686373D1*
X-3838346D1*
X-3828575Y6681543D1*
X-3818916Y6671773D1*
X-3813975Y6662114D1*
X-3809146Y6647514D1*
Y6623143D1*
X-3813975Y6608656D1*
X-3818916Y6598885D1*
X-3828575Y6589226D1*
X-3838346Y6584285D1*
X-3857775D1*
X-3867433Y6589226D1*
X-3877204Y6598885D1*
X-3882033Y6608656D1*
X-3913406Y6666831D2*
X-3923177Y6671773D1*
X-3937777Y6686260D1*
Y6584285D1*
X-3998349Y6686260D2*
X-3983749Y6681431D1*
X-3973978Y6666831D1*
X-3969149Y6642573D1*
Y6627973D1*
X-3973978Y6603714D1*
X-3983749Y6589114D1*
X-3998349Y6584285D1*
X-4008008D1*
X-4022608Y6589114D1*
X-4032266Y6603714D1*
X-4037208Y6627973D1*
Y6642573D1*
X-4032266Y6666831D1*
X-4022608Y6681431D1*
X-4008008Y6686260D1*
X-3998349D1*
X-4032266Y6666831D2*
X-3973978Y6603714D1*
X-4043173Y8439757D2*
X-4038344Y8449416D1*
X-4028573Y8459187D1*
X-4018914Y8464016D1*
X-3999485D1*
X-3989714Y8459187D1*
X-3980056Y8449416D1*
X-3975114Y8439757D1*
X-3970285Y8425157D1*
Y8400787D1*
X-3975114Y8386299D1*
X-3980056Y8376528D1*
X-3989714Y8366870D1*
X-3999485Y8361928D1*
X-4018914D1*
X-4028573Y8366870D1*
X-4038344Y8376528D1*
X-4043173Y8386299D1*
X-4137775Y8429987D2*
X-4132833Y8415387D1*
X-4123175Y8405616D1*
X-4108575Y8400787D1*
X-4103746D1*
X-4089146Y8405616D1*
X-4079487Y8415387D1*
X-4074546Y8429987D1*
Y8434816D1*
X-4079487Y8449416D1*
X-4089146Y8459074D1*
X-4103746Y8463904D1*
X-4108575D1*
X-4123175Y8459074D1*
X-4132833Y8449416D1*
X-4137775Y8429987D1*
Y8405616D1*
X-4132833Y8381357D1*
X-4123175Y8366757D1*
X-4108575Y8361928D1*
X-4098916D1*
X-4084316Y8366757D1*
X-4079487Y8376528D1*
X-3099441Y7612859D2*
X-3109099Y7617688D1*
X-3118870Y7627459D1*
X-3123699Y7637117D1*
Y7656547D1*
X-3118870Y7666317D1*
X-3109099Y7675976D1*
X-3099441Y7680917D1*
X-3084841Y7685747D1*
X-3060470D1*
X-3045982Y7680917D1*
X-3036211Y7675976D1*
X-3026553Y7666317D1*
X-3021612Y7656547D1*
Y7637117D1*
X-3026553Y7627459D1*
X-3036211Y7617688D1*
X-3045982Y7612859D1*
X-3123587Y7557228D2*
X-3118758Y7571716D1*
X-3109099Y7576657D1*
X-3099328D1*
X-3089670Y7571716D1*
X-3084728Y7562057D1*
X-3079899Y7542628D1*
X-3075070Y7528028D1*
X-3065299Y7518370D1*
X-3055641Y7513540D1*
X-3041041D1*
X-3031382Y7518370D1*
X-3026441Y7523199D1*
X-3021611Y7537799D1*
Y7557228D1*
X-3026441Y7571716D1*
X-3031382Y7576657D1*
X-3041041Y7581486D1*
X-3055641D1*
X-3065299Y7576657D1*
X-3075070Y7566887D1*
X-3079899Y7552399D1*
X-3084728Y7532970D1*
X-3089670Y7523199D1*
X-3099329Y7518370D1*
X-3109099D1*
X-3118758Y7523199D1*
X-3123587Y7537799D1*
Y7557228D1*
X-1354619Y8775313D2*
X-1398307D1*
X-1412907Y8780255D1*
X-1417848Y8785084D1*
X-1422677Y8794743D1*
Y8804513D1*
X-1417848Y8814172D1*
X-1412907Y8819113D1*
X-1398307Y8823943D1*
X-1354619D1*
Y8721855D1*
X-1388648Y8775313D2*
X-1422677Y8721855D1*
X-1454050Y8804401D2*
X-1463821Y8809343D1*
X-1478421Y8823830D1*
Y8721855D1*
X-1558423D2*
Y8823830D1*
X-1509793Y8755884D1*
X-1582681D1*
X-5889076Y5419246D2*
Y5346358D1*
X-5893905Y5331758D1*
X-5903676Y5322100D1*
X-5918276Y5317158D1*
X-5927934D1*
X-5942534Y5322100D1*
X-5952305Y5331758D1*
X-5957134Y5346358D1*
Y5419246D1*
X-5988507Y5399704D2*
X-5998278Y5404646D1*
X-6012878Y5419134D1*
Y5317158D1*
X-1483663Y5465920D2*
Y5422232D1*
X-1488605Y5407632D1*
X-1493434Y5402691D1*
X-1503092Y5397861D1*
X-1512863D1*
X-1522522Y5402691D1*
X-1527463Y5407632D1*
X-1532292Y5422232D1*
Y5465920D1*
X-1430205D1*
X-1483663Y5431891D2*
X-1430205Y5397861D1*
X-1512751Y5366489D2*
X-1517692Y5356718D1*
X-1532180Y5342118D1*
X-1430205D1*
Y5291316D2*
X-1532180Y5242687D1*
Y5310746D1*
X-5078404Y7771627D2*
X-5073575Y7781286D1*
X-5063804Y7791057D1*
X-5054145Y7795886D1*
X-5034716D1*
X-5024945Y7791057D1*
X-5015287Y7781286D1*
X-5010345Y7771627D1*
X-5005516Y7757027D1*
Y7732657D1*
X-5010345Y7718169D1*
X-5015287Y7708398D1*
X-5024945Y7698740D1*
X-5034716Y7693798D1*
X-5054145D1*
X-5063804Y7698740D1*
X-5073575Y7708398D1*
X-5078404Y7718169D1*
X-5109776Y7776344D2*
X-5119547Y7781286D1*
X-5134147Y7795774D1*
Y7693798D1*
X-5165520Y7776344D2*
X-5175290Y7781286D1*
X-5189890Y7795774D1*
Y7693798D1*
X-6629622Y4915140D2*
X-6673310D1*
X-6687910Y4920082D1*
X-6692852Y4924911D1*
X-6697681Y4934569D1*
Y4944340D1*
X-6692852Y4953999D1*
X-6687910Y4958940D1*
X-6673310Y4963769D1*
X-6629622D1*
Y4861682D1*
X-6663652Y4915140D2*
X-6697681Y4861682D1*
X-6729053Y4944228D2*
X-6738824Y4949169D1*
X-6753424Y4963657D1*
Y4861682D1*
X-2259291Y9109406D2*
Y9036518D1*
X-2264120Y9021918D1*
X-2273891Y9012260D1*
X-2288491Y9007318D1*
X-2298149D1*
X-2312749Y9012260D1*
X-2322520Y9021918D1*
X-2327349Y9036518D1*
Y9109406D1*
X-2407351Y9007318D2*
Y9109294D1*
X-2358722Y9041347D1*
X-2431609D1*
X-3797017Y8946990D2*
X-3840705D1*
X-3855305Y8951932D1*
X-3860246Y8956761D1*
X-3865075Y8966419D1*
Y8976190D1*
X-3860246Y8985849D1*
X-3855305Y8990790D1*
X-3840705Y8995619D1*
X-3797017D1*
Y8893532D1*
X-3831046Y8946990D2*
X-3865075Y8893532D1*
X-3896448Y8976078D2*
X-3906219Y8981019D1*
X-3920819Y8995507D1*
Y8893532D1*
X-3981391Y8995507D2*
X-3966791Y8990678D1*
X-3957020Y8976078D1*
X-3952191Y8951819D1*
Y8937219D1*
X-3957020Y8912961D1*
X-3966791Y8898361D1*
X-3981391Y8893532D1*
X-3991050D1*
X-4005650Y8898361D1*
X-4015308Y8912961D1*
X-4020250Y8937219D1*
Y8951819D1*
X-4015308Y8976078D1*
X-4005650Y8990678D1*
X-3991050Y8995507D1*
X-3981391D1*
X-4015308Y8976078D2*
X-3957020Y8912961D1*
X-3821450Y8666724D2*
X-3816621Y8676383D1*
X-3806850Y8686153D1*
X-3797192Y8690983D1*
X-3777762D1*
X-3767992Y8686153D1*
X-3758333Y8676383D1*
X-3753392Y8666724D1*
X-3748562Y8652124D1*
Y8627753D1*
X-3753392Y8613266D1*
X-3758333Y8603495D1*
X-3767992Y8593836D1*
X-3777762Y8588895D1*
X-3797192D1*
X-3806850Y8593836D1*
X-3816621Y8603495D1*
X-3821450Y8613266D1*
X-3852823Y8671441D2*
X-3862593Y8676383D1*
X-3877193Y8690870D1*
Y8588895D1*
X-3913507Y8666612D2*
Y8671441D1*
X-3918337Y8681212D1*
X-3923166Y8686041D1*
X-3932937Y8690870D1*
X-3952366D1*
X-3962024Y8686041D1*
X-3966854Y8681212D1*
X-3971795Y8671441D1*
Y8661783D1*
X-3966854Y8652012D1*
X-3957195Y8637524D1*
X-3908566Y8588895D1*
X-3976624D1*
X-6030360Y5758101D2*
Y5714414D1*
X-6035301Y5699814D1*
X-6040131Y5694872D1*
X-6049789Y5690043D1*
X-6059560D1*
X-6069218Y5694872D1*
X-6074160Y5699814D1*
X-6078989Y5714414D1*
Y5758102D1*
X-5976902Y5758101D1*
X-6030360Y5724072D2*
X-5976901Y5690043D1*
X-6078877Y5648900D2*
Y5595554D1*
X-6040018Y5624641D1*
Y5610041D1*
X-6035189Y5600383D1*
X-6030360Y5595554D1*
X-6015760Y5590612D1*
X-6006102D1*
X-5991502Y5595554D1*
X-5981731Y5605212D1*
X-5976901Y5619812D1*
Y5634412D1*
X-5981731Y5648900D1*
X-5986672Y5653729D1*
X-5996331Y5658671D1*
X-3360899Y9024536D2*
Y8922448D1*
X-3394928D1*
X-3409528Y8927390D1*
X-3419299Y8937048D1*
X-3424128Y8946819D1*
X-3428958Y8961307D1*
Y8985677D1*
X-3424128Y9000277D1*
X-3419299Y9009936D1*
X-3409528Y9019707D1*
X-3394928Y9024536D1*
X-3360899D1*
X-3460330Y9004994D2*
X-3470101Y9009936D1*
X-3484701Y9024424D1*
Y8922448D1*
X-5369376Y8840397D2*
X-5364546Y8850056D1*
X-5354776Y8859827D1*
X-5345117Y8864656D1*
X-5325688D1*
X-5315917Y8859827D1*
X-5306259Y8850056D1*
X-5301317Y8840397D1*
X-5296488Y8825797D1*
Y8801427D1*
X-5301317Y8786939D1*
X-5306259Y8777168D1*
X-5315917Y8767510D1*
X-5325688Y8762568D1*
X-5345117D1*
X-5354776Y8767510D1*
X-5364546Y8777168D1*
X-5369376Y8786939D1*
X-5400748Y8845114D2*
X-5410519Y8850056D1*
X-5425119Y8864544D1*
Y8762568D1*
X-6224198Y8829517D2*
X-6219369Y8839176D1*
X-6209598Y8848947D1*
X-6199940Y8853776D1*
X-6180511D1*
X-6170740Y8848947D1*
X-6161081Y8839176D1*
X-6156140Y8829517D1*
X-6151311Y8814917D1*
Y8790547D1*
X-6156140Y8776059D1*
X-6161081Y8766288D1*
X-6170740Y8756630D1*
X-6180511Y8751688D1*
X-6199940D1*
X-6209598Y8756630D1*
X-6219369Y8766288D1*
X-6224198Y8776059D1*
X-6260512Y8829405D2*
Y8834234D1*
X-6265342Y8844005D1*
X-6270171Y8848834D1*
X-6279942Y8853664D1*
X-6299371D1*
X-6309029Y8848834D1*
X-6313859Y8844005D1*
X-6318800Y8834234D1*
Y8824576D1*
X-6313859Y8814805D1*
X-6304200Y8800317D1*
X-6255571Y8751688D1*
X-6323629D1*
X-5836100Y5759777D2*
Y5716090D1*
X-5841041Y5701490D1*
X-5845871Y5696548D1*
X-5855529Y5691719D1*
X-5865300D1*
X-5874958Y5696548D1*
X-5879900Y5701490D1*
X-5884729Y5716090D1*
Y5759777D1*
X-5782642D1*
X-5836100Y5725748D2*
X-5782641Y5691719D1*
X-5870129Y5602059D2*
X-5879788Y5606888D1*
X-5884617Y5621488D1*
Y5631147D1*
X-5879788Y5645747D1*
X-5865188Y5655517D1*
X-5840929Y5660347D1*
X-5816671Y5660346D1*
X-5797241Y5655517D1*
X-5787471Y5645746D1*
X-5782641Y5631146D1*
Y5626317D1*
X-5787471Y5611830D1*
X-5797242Y5602059D1*
X-5811842Y5597230D1*
X-5816671D1*
X-5831271Y5602059D1*
X-5840929Y5611830D1*
X-5845758Y5626317D1*
Y5631147D1*
X-5840929Y5645747D1*
X-5831271Y5655517D1*
X-5816671Y5660346D1*
X-1050107Y5463226D2*
Y5419538D1*
X-1055048Y5404938D1*
X-1059877Y5399996D1*
X-1069536Y5395167D1*
X-1079307D1*
X-1088965Y5399997D1*
X-1093907Y5404938D1*
X-1098736Y5419538D1*
Y5463226D1*
X-996648D1*
X-1050107Y5429196D2*
X-996648Y5395167D1*
X-1079194Y5363795D2*
X-1084136Y5354024D1*
X-1098623Y5339424D1*
X-996648D1*
X-1084136Y5249764D2*
X-1093794Y5254593D1*
X-1098624Y5269193D1*
Y5278852D1*
X-1093794Y5293452D1*
X-1079194Y5303222D1*
X-1054936Y5308052D1*
X-1030677Y5308051D1*
X-1011248Y5303222D1*
X-1001477Y5293451D1*
X-996648Y5278851D1*
Y5274022D1*
X-1001477Y5259535D1*
X-1011248Y5249764D1*
X-1025848Y5244935D1*
X-1030677D1*
X-1045277Y5249764D1*
X-1054936Y5259535D1*
X-1059765Y5274022D1*
Y5278852D1*
X-1054936Y5293452D1*
X-1045277Y5303222D1*
X-1030677Y5308051D1*
X-1384443Y5497106D2*
Y5453419D1*
X-1389385Y5438819D1*
X-1394214Y5433877D1*
X-1403872Y5429048D1*
X-1413643D1*
X-1423302Y5433877D1*
X-1428243Y5438819D1*
X-1433072Y5453419D1*
Y5497106D1*
X-1330985D1*
X-1384443Y5463077D2*
X-1330985Y5429048D1*
X-1413531Y5397676D2*
X-1418472Y5387905D1*
X-1432960Y5373305D1*
X-1330985D1*
X-1432960Y5283645D2*
Y5332162D1*
X-1389272Y5336991D1*
X-1394102Y5332162D1*
X-1399043Y5317562D1*
Y5303074D1*
X-1394102Y5288474D1*
X-1384443Y5278703D1*
X-1369843Y5273874D1*
X-1360185D1*
X-1345585Y5278703D1*
X-1335814Y5288474D1*
X-1330985Y5303074D1*
Y5317561D1*
X-1335814Y5332161D1*
X-1340756Y5336991D1*
X-1350414Y5341932D1*
X-4992509Y7581884D2*
X-4987680Y7591543D1*
X-4977909Y7601313D1*
X-4968251Y7606143D1*
X-4948821D1*
X-4939051Y7601313D1*
X-4929392Y7591543D1*
X-4924451Y7581884D1*
X-4919621Y7567284D1*
Y7542913D1*
X-4924451Y7528426D1*
X-4929392Y7518655D1*
X-4939051Y7508996D1*
X-4948821Y7504055D1*
X-4968251D1*
X-4977909Y7508996D1*
X-4987680Y7518655D1*
X-4992509Y7528426D1*
X-5082169Y7591543D2*
X-5077340Y7601201D1*
X-5062740Y7606030D1*
X-5053082D1*
X-5038482Y7601201D1*
X-5028711Y7586601D1*
X-5023882Y7562343D1*
Y7538084D1*
X-5028711Y7518655D1*
X-5038482Y7508884D1*
X-5053082Y7504055D1*
X-5057911D1*
X-5072399Y7508884D1*
X-5082169Y7518655D1*
X-5086999Y7533255D1*
Y7538084D1*
X-5082169Y7552684D1*
X-5072399Y7562343D1*
X-5057911Y7567172D1*
X-5053082D1*
X-5038482Y7562343D1*
X-5028711Y7552684D1*
X-5023882Y7538084D1*
X-2348888Y7557901D2*
X-2344059Y7567559D1*
X-2334288Y7577330D1*
X-2324630Y7582159D1*
X-2305201D1*
X-2295430Y7577330D1*
X-2285771Y7567559D1*
X-2280830Y7557901D1*
X-2276001Y7543301D1*
Y7518930D1*
X-2280830Y7504442D1*
X-2285771Y7494672D1*
X-2295430Y7485013D1*
X-2305201Y7480072D1*
X-2324630D1*
X-2334288Y7485013D1*
X-2344059Y7494672D1*
X-2348888Y7504442D1*
X-2399690Y7480072D2*
X-2448319Y7582047D1*
X-2380261D1*
X-709160Y7167226D2*
Y7123539D1*
X-714101Y7108939D1*
X-718931Y7103997D1*
X-728589Y7099168D1*
X-738360D1*
X-748018Y7103997D1*
X-752960Y7108939D1*
X-757789Y7123539D1*
Y7167226D1*
X-655702D1*
X-709160Y7133197D2*
X-655702Y7099168D1*
X-738248Y7067796D2*
X-743189Y7058025D1*
X-757677Y7043425D1*
X-655701D1*
X-733418Y7007111D2*
X-738248D1*
X-748018Y7002282D1*
X-752848Y6997452D1*
X-757677Y6987682D1*
Y6968252D1*
X-752848Y6958594D1*
X-748018Y6953765D1*
X-738248Y6948823D1*
X-728589D1*
X-718818Y6953765D1*
X-704331Y6963423D1*
X-655701Y7012052D1*
X-655702Y6943994D1*
X-6289600Y5060064D2*
X-6284771Y5069723D1*
X-6275000Y5079493D1*
X-6265342Y5084323D1*
X-6245913D1*
X-6236142Y5079493D1*
X-6226483Y5069723D1*
X-6221542Y5060064D1*
X-6216713Y5045464D1*
Y5021093D1*
X-6221542Y5006606D1*
X-6226483Y4996835D1*
X-6236142Y4987176D1*
X-6245913Y4982235D1*
X-6265342D1*
X-6275000Y4987176D1*
X-6284771Y4996835D1*
X-6289600Y5006606D1*
X-6369602Y4982235D2*
Y5084210D1*
X-6320973Y5016264D1*
X-6393861D1*
X-6658492Y5437887D2*
X-6653662Y5447546D1*
X-6643892Y5457317D1*
X-6634233Y5462146D1*
X-6614804D1*
X-6605033Y5457317D1*
X-6595375Y5447546D1*
X-6590433Y5437887D1*
X-6585604Y5423287D1*
Y5398917D1*
X-6590433Y5384429D1*
X-6595375Y5374658D1*
X-6605033Y5365000D1*
X-6614804Y5360058D1*
X-6634233D1*
X-6643892Y5365000D1*
X-6653662Y5374658D1*
X-6658492Y5384429D1*
X-6699635Y5462034D2*
X-6752981D1*
X-6723893Y5423175D1*
X-6738493D1*
X-6748152Y5418346D1*
X-6752981Y5413517D1*
X-6757923Y5398917D1*
Y5389258D1*
X-6752981Y5374658D1*
X-6743323Y5364887D1*
X-6728723Y5360058D1*
X-6714123D1*
X-6699635Y5364887D1*
X-6694806Y5369829D1*
X-6689864Y5379487D1*
X-3578867Y5005618D2*
X-3588526Y5010448D1*
X-3598297Y5020218D1*
X-3603126Y5029877D1*
Y5049306D1*
X-3598297Y5059077D1*
X-3588526Y5068735D1*
X-3578867Y5073677D1*
X-3564267Y5078506D1*
X-3539897D1*
X-3525409Y5073677D1*
X-3515638Y5068735D1*
X-3505980Y5059077D1*
X-3501038Y5049306D1*
Y5029877D1*
X-3505980Y5020218D1*
X-3515638Y5010448D1*
X-3525409Y5005618D1*
X-3583584Y4974246D2*
X-3588526Y4964475D1*
X-3603013Y4949875D1*
X-3501038D1*
X-3603013Y4889303D2*
X-3598184Y4903903D1*
X-3583584Y4913673D1*
X-3559326Y4918503D1*
X-3544726D1*
X-3520467Y4913673D1*
X-3505867Y4903902D1*
X-3501038Y4889302D1*
Y4879644D1*
X-3505867Y4865044D1*
X-3520467Y4855386D1*
X-3544726Y4850444D1*
X-3559326D1*
X-3583584Y4855386D1*
X-3598184Y4865044D1*
X-3603014Y4879644D1*
X-3603013Y4889303D1*
X-3583584Y4855386D2*
X-3520467Y4913673D1*
X-3583584Y4819072D2*
X-3588526Y4809301D1*
X-3603014Y4794701D1*
X-3501038D1*
X-3750397Y5072899D2*
X-3760056Y5077728D1*
X-3769827Y5087499D1*
X-3774656Y5097157D1*
Y5116587D1*
X-3769827Y5126357D1*
X-3760056Y5136016D1*
X-3750397Y5140957D1*
X-3735797Y5145787D1*
X-3711427D1*
X-3696939Y5140957D1*
X-3687168Y5136016D1*
X-3677510Y5126357D1*
X-3672568Y5116587D1*
Y5097157D1*
X-3677510Y5087499D1*
X-3687168Y5077728D1*
X-3696939Y5072899D1*
X-3755114Y5041526D2*
X-3760056Y5031756D1*
X-3774543Y5017156D1*
X-3672568D1*
X-3774543Y4956583D2*
X-3769714Y4971183D1*
X-3755114Y4980954D1*
X-3730856Y4985783D1*
X-3716256D1*
X-3691997Y4980954D1*
X-3677397Y4971183D1*
X-3672568Y4956583D1*
Y4946925D1*
X-3677397Y4932325D1*
X-3691997Y4922666D1*
X-3716256Y4917725D1*
X-3730856D1*
X-3755114Y4922666D1*
X-3769714Y4932325D1*
X-3774543Y4946925D1*
Y4956583D1*
X-3755114Y4922666D2*
X-3691997Y4980954D1*
X-3750285Y4881411D2*
X-3755114D1*
X-3764885Y4876581D1*
X-3769714Y4871752D1*
X-3774544Y4861981D1*
Y4842552D1*
X-3769714Y4832894D1*
X-3764885Y4828065D1*
X-3755114Y4823123D1*
X-3745456D1*
X-3735685Y4828065D1*
X-3721197Y4837723D1*
X-3672568Y4886352D1*
Y4818294D1*
X-4621824Y5058012D2*
X-4631482Y5062841D1*
X-4641253Y5072612D1*
X-4646082Y5082271D1*
Y5101700D1*
X-4641253Y5111471D1*
X-4631483Y5121129D1*
X-4621824Y5126071D1*
X-4607224Y5130900D1*
X-4582853D1*
X-4568366Y5126071D1*
X-4558595Y5121129D1*
X-4548936Y5111471D1*
X-4543995Y5101700D1*
Y5082271D1*
X-4548936Y5072612D1*
X-4558595Y5062841D1*
X-4568366Y5058012D1*
X-4626541Y5026640D2*
X-4631482Y5016869D1*
X-4645970Y5002269D1*
X-4543995D1*
X-4645970Y4941696D2*
X-4641141Y4956296D1*
X-4626541Y4966067D1*
X-4602282Y4970896D1*
X-4587682D1*
X-4563424Y4966067D1*
X-4548824Y4956296D1*
X-4543995Y4941696D1*
Y4932038D1*
X-4548824Y4917438D1*
X-4563424Y4907779D1*
X-4587682Y4902838D1*
X-4602282D1*
X-4626541Y4907780D1*
X-4641141Y4917438D1*
X-4645970Y4932038D1*
Y4941696D1*
X-4626541Y4907780D2*
X-4563424Y4966067D1*
X-4645970Y4861695D2*
Y4808349D1*
X-4607112Y4837436D1*
Y4822836D1*
X-4602283Y4813178D1*
X-4597453Y4808349D1*
X-4582853Y4803407D1*
X-4573195D1*
X-4558595Y4808349D1*
X-4548824Y4818007D1*
X-4543995Y4832607D1*
Y4847207D1*
X-4548824Y4861695D1*
X-4553766Y4866524D1*
X-4563424Y4871465D1*
X-3674162Y6173660D2*
X-3717850D1*
X-3732450Y6178602D1*
X-3737391Y6183431D1*
X-3742220Y6193089D1*
Y6202860D1*
X-3737391Y6212519D1*
X-3732450Y6217460D1*
X-3717850Y6222289D1*
X-3674162D1*
Y6120202D1*
X-3708191Y6173660D2*
X-3742220Y6120202D1*
X-3773593Y6202748D2*
X-3783364Y6207689D1*
X-3797964Y6222177D1*
Y6120202D1*
X-3858536Y6222177D2*
X-3843936Y6217348D1*
X-3834166Y6202748D1*
X-3829336Y6178489D1*
Y6163889D1*
X-3834166Y6139631D1*
X-3843936Y6125031D1*
X-3858536Y6120202D1*
X-3868195D1*
X-3882795Y6125031D1*
X-3892453Y6139631D1*
X-3897395Y6163889D1*
Y6178489D1*
X-3892453Y6202748D1*
X-3882795Y6217348D1*
X-3868195Y6222177D1*
X-3858536D1*
X-3892453Y6202748D2*
X-3834166Y6139631D1*
X-3928767Y6202748D2*
X-3938538Y6207689D1*
X-3953138Y6222177D1*
Y6120202D1*
X-7127689Y5614943D2*
Y5537226D1*
X-7122860Y5522626D1*
X-7117918Y5517796D1*
X-7108260Y5512855D1*
X-7098489D1*
X-7088831Y5517796D1*
X-7084001Y5522626D1*
X-7079060Y5537226D1*
Y5546884D1*
X-7164003Y5590572D2*
Y5595401D1*
X-7168832Y5605172D1*
X-7173662Y5610001D1*
X-7183432Y5614830D1*
X-7202862D1*
X-7212520Y5610001D1*
X-7217349Y5605172D1*
X-7222291Y5595401D1*
Y5585743D1*
X-7217349Y5575972D1*
X-7207691Y5561484D1*
X-7159062Y5512855D1*
X-7227120D1*
X-1287997Y7484750D2*
X-1331685D1*
X-1346285Y7489692D1*
X-1351227Y7494521D1*
X-1356056Y7504179D1*
Y7513950D1*
X-1351227Y7523609D1*
X-1346285Y7528550D1*
X-1331685Y7533379D1*
X-1287997D1*
Y7431292D1*
X-1322027Y7484750D2*
X-1356056Y7431292D1*
X-1387428Y7513838D2*
X-1397199Y7518779D1*
X-1411799Y7533267D1*
Y7431292D1*
X-1443172Y7513838D2*
X-1452943Y7518779D1*
X-1467543Y7533267D1*
Y7431292D1*
X-2492533Y7178276D2*
Y7076188D1*
X-2458504Y7178276D2*
X-2526562D1*
X-2557935Y7124817D2*
X-2601735D1*
X-2616222Y7129647D1*
X-2621164Y7134588D1*
X-2625993Y7144247D1*
Y7158847D1*
X-2621164Y7168505D1*
X-2616222Y7173447D1*
X-2601735Y7178276D1*
X-2557935D1*
Y7076188D1*
X-2657366Y7158734D2*
X-2667136Y7163676D1*
X-2681736Y7178164D1*
Y7076188D1*
X-4730880Y-1016997D2*
Y-1119085D1*
X-4762253Y-1016997D2*
Y-1119085D1*
X-4793625Y-1080227D2*
X-4851913D1*
Y-1070456D1*
X-4847084Y-1060685D1*
X-4842254Y-1055856D1*
X-4832484Y-1051027D1*
X-4817884D1*
X-4808225Y-1055856D1*
X-4798454Y-1065627D1*
X-4793625Y-1080227D1*
Y-1089885D1*
X-4798454Y-1104485D1*
X-4808225Y-1114144D1*
X-4817884Y-1119085D1*
X-4832484D1*
X-4842254Y-1114144D1*
X-4851913Y-1104485D1*
X-4941573Y-1016997D2*
Y-1119085D1*
Y-1065627D2*
X-4931915Y-1055856D1*
X-4922144Y-1051027D1*
X-4907544D1*
X-4897885Y-1055856D1*
X-4888115Y-1065627D1*
X-4883285Y-1080227D1*
Y-1089885D1*
X-4888115Y-1104485D1*
X-4897885Y-1114144D1*
X-4907544Y-1119085D1*
X-4922144D1*
X-4931915Y-1114144D1*
X-4941573Y-1104485D1*
X-5856998Y7100955D2*
X-5784110Y7100954D1*
X-5769510Y7096125D1*
X-5759851Y7086354D1*
X-5754910Y7071754D1*
Y7062096D1*
X-5759851Y7047496D1*
X-5769510Y7037725D1*
X-5784110Y7032896D1*
X-5856997D1*
X-5754910Y6923694D2*
X-5856997Y6962665D1*
X-5754910Y7001523D1*
X-5788939Y6986923D2*
Y6938294D1*
X-5808368Y6892322D2*
Y6848634D1*
X-5813310Y6834034D1*
X-5818139Y6829093D1*
X-5827797Y6824263D1*
X-5837568D1*
X-5847227Y6829093D1*
X-5852168Y6834034D1*
X-5856997Y6848634D1*
Y6892322D1*
X-5754910D1*
X-5808368Y6858293D2*
X-5754910Y6824263D1*
X-5856998Y6758862D2*
X-5754910D1*
X-5856997Y6792891D2*
X-5856998Y6724833D1*
X-954444Y7484750D2*
X-998131D1*
X-1012731Y7489692D1*
X-1017673Y7494521D1*
X-1022502Y7504179D1*
Y7513950D1*
X-1017673Y7523609D1*
X-1012731Y7528550D1*
X-998131Y7533379D1*
X-954444D1*
Y7431292D1*
X-988473Y7484750D2*
X-1022502Y7431292D1*
X-1053875Y7513838D2*
X-1063645Y7518779D1*
X-1078245Y7533267D1*
Y7431292D1*
X-1119389Y7533267D2*
X-1172735D1*
X-1143647Y7494409D1*
X-1158247D1*
X-1167906Y7489579D1*
X-1172735Y7484750D1*
X-1177676Y7470150D1*
Y7460492D1*
X-1172735Y7445892D1*
X-1163076Y7436121D1*
X-1148476Y7431292D1*
X-1133876D1*
X-1119389Y7436121D1*
X-1114559Y7441062D1*
X-1109618Y7450721D1*
X-3581405Y6418933D2*
X-3625092D1*
X-3639692Y6423875D1*
X-3644634Y6428704D1*
X-3649463Y6438363D1*
Y6448133D1*
X-3644634Y6457792D1*
X-3639692Y6462733D1*
X-3625092Y6467563D1*
X-3581405D1*
Y6365475D1*
X-3615434Y6418933D2*
X-3649463Y6365475D1*
X-3680836Y6448021D2*
X-3690607Y6452963D1*
X-3705207Y6467450D1*
Y6365475D1*
X-3765779Y6467450D2*
X-3751179Y6462621D1*
X-3741408Y6448021D1*
X-3736579Y6423763D1*
Y6409163D1*
X-3741408Y6384904D1*
X-3751179Y6370304D1*
X-3765779Y6365475D1*
X-3775438D1*
X-3790038Y6370304D1*
X-3799696Y6384904D1*
X-3804638Y6409163D1*
Y6423763D1*
X-3799696Y6448021D1*
X-3790038Y6462621D1*
X-3775438Y6467450D1*
X-3765779D1*
X-3799696Y6448021D2*
X-3741408Y6384904D1*
X-3840952Y6443192D2*
Y6448021D1*
X-3845781Y6457792D1*
X-3850610Y6462621D1*
X-3860381Y6467450D1*
X-3879810D1*
X-3889469Y6462621D1*
X-3894298Y6457792D1*
X-3899239Y6448021D1*
Y6438363D1*
X-3894298Y6428592D1*
X-3884639Y6414104D1*
X-3836010Y6365475D1*
X-3904069D1*
X-6229444Y8249223D2*
X-6268303Y8147135D1*
X-6307161Y8249223D1*
X-6338534Y8200593D2*
X-6382222D1*
X-6396822Y8205535D1*
X-6401763Y8210364D1*
X-6406592Y8220023D1*
Y8229793D1*
X-6401763Y8239452D1*
X-6396822Y8244393D1*
X-6382222Y8249223D1*
X-6338534D1*
Y8147135D1*
X-6372563Y8200593D2*
X-6406592Y8147135D1*
X-6437965Y8229681D2*
X-6447736Y8234623D1*
X-6462336Y8249110D1*
Y8147135D1*
X-6439537Y7796516D2*
X-6429879Y7791799D1*
X-6420108Y7782028D1*
X-6415279Y7772257D1*
X-6410337Y7757657D1*
Y7733399D1*
X-6415279Y7718799D1*
X-6420108Y7709141D1*
X-6429879Y7699370D1*
X-6439537Y7694541D1*
X-6458966D1*
X-6468737Y7699370D1*
X-6478396Y7709141D1*
X-6483225Y7718799D1*
X-6488166Y7733399D1*
Y7757657D1*
X-6483225Y7772257D1*
X-6478396Y7782028D1*
X-6468737Y7791799D1*
X-6458966Y7796516D1*
X-6439537D1*
X-6454137Y7713970D2*
X-6483225Y7684770D1*
X-6519539Y7776974D2*
X-6529310Y7781916D1*
X-6543910Y7796404D1*
Y7694428D1*
X-6331543Y7564865D2*
Y7521177D1*
X-6336485Y7506577D1*
X-6341314Y7501636D1*
X-6350972Y7496806D1*
X-6360743D1*
X-6370402Y7501636D1*
X-6375343Y7506577D1*
X-6380172Y7521177D1*
Y7564865D1*
X-6278085D1*
X-6331543Y7530836D2*
X-6278085Y7496806D1*
X-6380060Y7407146D2*
Y7455663D1*
X-6336372Y7460492D1*
X-6341202Y7455663D1*
X-6346143Y7441063D1*
Y7426576D1*
X-6341202Y7411976D1*
X-6331543Y7402205D1*
X-6316943Y7397376D1*
X-6307285D1*
X-6292685Y7402205D1*
X-6282914Y7411976D1*
X-6278085Y7426575D1*
Y7441063D1*
X-6282914Y7455663D1*
X-6287856Y7460492D1*
X-6297514Y7465434D1*
X-5664691Y5683412D2*
X-5674349Y5688241D1*
X-5684120Y5698012D1*
X-5688949Y5707670D1*
Y5727100D1*
X-5684120Y5736870D1*
X-5674349Y5746529D1*
X-5664691Y5751470D1*
X-5650091Y5756299D1*
X-5625720D1*
X-5611232Y5751470D1*
X-5601461Y5746529D1*
X-5591803Y5736870D1*
X-5586862Y5727099D1*
Y5707670D1*
X-5591803Y5698012D1*
X-5601461Y5688241D1*
X-5611232Y5683412D1*
X-5688837Y5593752D2*
Y5642269D1*
X-5645149Y5647098D1*
X-5649978Y5642269D1*
X-5654920Y5627669D1*
Y5613181D1*
X-5649978Y5598581D1*
X-5640320Y5588810D1*
X-5625720Y5583981D1*
X-5616062D1*
X-5601462Y5588810D1*
X-5591691Y5598581D1*
X-5586861Y5613181D1*
Y5627668D1*
X-5591691Y5642268D1*
X-5596632Y5647098D1*
X-5606291Y5652039D1*
X-1219973Y8352260D2*
Y8308573D1*
X-1224915Y8293973D1*
X-1229744Y8289031D1*
X-1239402Y8284202D1*
X-1249173D1*
X-1258832Y8289031D1*
X-1263773Y8293973D1*
X-1268602Y8308573D1*
Y8352260D1*
X-1166515D1*
X-1219973Y8318231D2*
X-1166515Y8284202D1*
X-1234573Y8189600D2*
X-1219973Y8194542D1*
X-1210203Y8204200D1*
X-1205373Y8218800D1*
Y8223629D1*
X-1210202Y8238229D1*
X-1219973Y8247888D1*
X-1234573Y8252829D1*
X-1239402D1*
X-1254002Y8247888D1*
X-1263661Y8238229D1*
X-1268490Y8223629D1*
Y8218800D1*
X-1263661Y8204200D1*
X-1254003Y8194542D1*
X-1234573Y8189600D1*
X-1210203D1*
X-1185944Y8194542D1*
X-1171344Y8204200D1*
X-1166515Y8218800D1*
Y8228459D1*
X-1171344Y8243058D1*
X-1181115Y8247888D1*
X-6115512Y9342702D2*
X-6110683Y9352361D1*
X-6100912Y9362132D1*
X-6091254Y9366961D1*
X-6071825D1*
X-6062054Y9362132D1*
X-6052395Y9352361D1*
X-6047454Y9342702D1*
X-6042625Y9328102D1*
Y9303732D1*
X-6047454Y9289244D1*
X-6052395Y9279473D1*
X-6062054Y9269815D1*
X-6071825Y9264873D1*
X-6091254D1*
X-6100912Y9269815D1*
X-6110683Y9279473D1*
X-6115512Y9289244D1*
Y9303732D1*
X-6091254D1*
X-6214943Y9366961D2*
Y9264873D1*
X-6146885Y9366961D1*
Y9264873D1*
X-6246316Y9366961D2*
Y9264873D1*
X-6280345D1*
X-6294945Y9269815D1*
X-6304716Y9279473D1*
X-6309545Y9289244D1*
X-6314374Y9303732D1*
Y9328102D1*
X-6309545Y9342702D1*
X-6304716Y9352361D1*
X-6294945Y9362132D1*
X-6280345Y9366961D1*
X-6246316D1*
X-6345747Y9248027D2*
X-6438064D1*
X-6469436Y9366961D2*
Y9264873D1*
Y9318332D2*
X-6479207Y9328102D1*
X-6488866Y9332932D1*
X-6503466D1*
X-6513124Y9328102D1*
X-6522895Y9318332D1*
X-6527724Y9303732D1*
Y9294073D1*
X-6522895Y9279473D1*
X-6513124Y9269815D1*
X-6503466Y9264873D1*
X-6488866D1*
X-6479207Y9269815D1*
X-6469436Y9279473D1*
X-6617384Y9332932D2*
Y9264873D1*
Y9318332D2*
X-6607726Y9328102D1*
X-6597955Y9332932D1*
X-6583467D1*
X-6573697Y9328102D1*
X-6564038Y9318332D1*
X-6559097Y9303732D1*
Y9294073D1*
X-6564038Y9279473D1*
X-6573697Y9269815D1*
X-6583467Y9264873D1*
X-6597955D1*
X-6607726Y9269815D1*
X-6617384Y9279473D1*
X-6663357Y9366961D2*
Y9284302D1*
X-6668186Y9269815D1*
X-6677957Y9264873D1*
X-6687615D1*
X-6648757Y9332932D2*
X-6682786D1*
X-6008856Y7305756D2*
X-6004027Y7315414D1*
X-5994256Y7325185D1*
X-5984598Y7330014D1*
X-5965168D1*
X-5955398Y7325185D1*
X-5945739Y7315414D1*
X-5940798Y7305756D1*
X-5935968Y7291156D1*
Y7266785D1*
X-5940798Y7252297D1*
X-5945739Y7242527D1*
X-5955398Y7232868D1*
X-5965168Y7227927D1*
X-5984598D1*
X-5994256Y7232868D1*
X-6004027Y7242527D1*
X-6008856Y7252297D1*
Y7266785D1*
X-5984598D1*
X-6108287Y7330014D2*
Y7227927D1*
X-6040229Y7330014D1*
Y7227927D1*
X-6139660Y7330014D2*
Y7227927D1*
X-6173689D1*
X-6188289Y7232868D1*
X-6198060Y7242527D1*
X-6202889Y7252297D1*
X-6207718Y7266785D1*
Y7291156D1*
X-6202889Y7305756D1*
X-6198060Y7315414D1*
X-6188289Y7325185D1*
X-6173689Y7330014D1*
X-6139660D1*
X-4583077Y8942064D2*
Y8864347D1*
X-4578248Y8849747D1*
X-4573306Y8844918D1*
X-4563648Y8839977D1*
X-4553877D1*
X-4544219Y8844918D1*
X-4539389Y8849747D1*
X-4534448Y8864347D1*
Y8874006D1*
X-4677679Y8908035D2*
X-4672737Y8893435D1*
X-4663079Y8883664D1*
X-4648479Y8878835D1*
X-4643650D1*
X-4629050Y8883664D1*
X-4619391Y8893435D1*
X-4614450Y8908035D1*
Y8912864D1*
X-4619391Y8927464D1*
X-4629050Y8937123D1*
X-4643650Y8941952D1*
X-4648479D1*
X-4663079Y8937123D1*
X-4672737Y8927464D1*
X-4677679Y8908035D1*
Y8883664D1*
X-4672737Y8859406D1*
X-4663079Y8844806D1*
X-4648479Y8839977D1*
X-4638820D1*
X-4624220Y8844806D1*
X-4619391Y8854577D1*
X-2652871Y6519056D2*
Y6441339D1*
X-2648042Y6426739D1*
X-2643100Y6421910D1*
X-2633442Y6416968D1*
X-2623671D1*
X-2614012Y6421910D1*
X-2609183Y6426739D1*
X-2604242Y6441339D1*
Y6450997D1*
X-2684243Y6499514D2*
X-2694014Y6504456D1*
X-2708614Y6518944D1*
Y6416968D1*
X-2769187Y6518944D2*
X-2754587Y6514114D1*
X-2744816Y6499514D1*
X-2739987Y6475256D1*
Y6460656D1*
X-2744816Y6436397D1*
X-2754587Y6421797D1*
X-2769187Y6416968D1*
X-2778845D1*
X-2793445Y6421797D1*
X-2803104Y6436397D1*
X-2808045Y6460656D1*
Y6475256D1*
X-2803104Y6499514D1*
X-2793445Y6514114D1*
X-2778845Y6518944D1*
X-2769187D1*
X-2803104Y6499514D2*
X-2744816Y6436397D1*
X-4677786Y6621439D2*
X-4668128Y6631210D1*
X-4653528Y6636039D1*
X-4634098D1*
X-4619498Y6631210D1*
X-4609728Y6621439D1*
Y6611781D1*
X-4614669Y6602010D1*
X-4619498Y6597181D1*
X-4629157Y6592352D1*
X-4658357Y6582581D1*
X-4668128Y6577752D1*
X-4672957Y6572810D1*
X-4677786Y6563152D1*
Y6548552D1*
X-4668128Y6538893D1*
X-4653528Y6533952D1*
X-4634098D1*
X-4619498Y6538893D1*
X-4609728Y6548552D1*
X-4709159Y6636039D2*
Y6533952D1*
X-4743188D1*
X-4757788Y6538893D1*
X-4767559Y6548552D1*
X-4772388Y6558322D1*
X-4777217Y6572810D1*
Y6597181D1*
X-4772388Y6611781D1*
X-4767559Y6621439D1*
X-4757788Y6631210D1*
X-4743188Y6636039D1*
X-4709159D1*
X-4886419Y6533952D2*
X-4847448Y6636039D1*
X-4808590Y6533952D1*
X-4823190Y6567981D2*
X-4871819D1*
X-4510406Y6291016D2*
X-4500747Y6300787D1*
X-4486147Y6305616D1*
X-4466718D1*
X-4452118Y6300787D1*
X-4442347Y6291016D1*
Y6281357D1*
X-4447289Y6271587D1*
X-4452118Y6266757D1*
X-4461776Y6261928D1*
X-4490976Y6252157D1*
X-4500747Y6247328D1*
X-4505576Y6242387D1*
X-4510406Y6232728D1*
Y6218128D1*
X-4500747Y6208470D1*
X-4486147Y6203528D1*
X-4466718D1*
X-4452118Y6208470D1*
X-4442347Y6218128D1*
X-4614666Y6281357D2*
X-4609837Y6291016D1*
X-4600066Y6300787D1*
X-4590407Y6305616D1*
X-4570978D1*
X-4561207Y6300787D1*
X-4551549Y6291016D1*
X-4546607Y6281357D1*
X-4541778Y6266757D1*
Y6242387D1*
X-4546607Y6227899D1*
X-4551549Y6218128D1*
X-4561207Y6208470D1*
X-4570978Y6203528D1*
X-4590407D1*
X-4600066Y6208470D1*
X-4609837Y6218128D1*
X-4614666Y6227899D1*
X-4646038Y6305616D2*
Y6203528D1*
X-4704326D1*
X-4922123Y6720383D2*
X-4965811D1*
X-4980411Y6725325D1*
X-4985352Y6730154D1*
X-4990182Y6739813D1*
Y6749583D1*
X-4985352Y6759242D1*
X-4980411Y6764183D1*
X-4965811Y6769013D1*
X-4922123D1*
Y6666925D1*
X-4956152Y6720383D2*
X-4990182Y6666925D1*
X-5021554Y6749471D2*
X-5031325Y6754413D1*
X-5045925Y6768900D1*
Y6666925D1*
X-5101556Y6768900D2*
X-5087068Y6764071D1*
X-5082127Y6754413D1*
Y6744642D1*
X-5087068Y6734983D1*
X-5096727Y6730042D1*
X-5116156Y6725213D1*
X-5130756Y6720383D1*
X-5140414Y6710613D1*
X-5145244Y6700954D1*
Y6686354D1*
X-5140414Y6676696D1*
X-5135585Y6671754D1*
X-5120985Y6666925D1*
X-5101556D1*
X-5087068Y6671754D1*
X-5082127Y6676696D1*
X-5077297Y6686354D1*
Y6700954D1*
X-5082127Y6710613D1*
X-5091897Y6720383D1*
X-5106385Y6725213D1*
X-5125814Y6730042D1*
X-5135585Y6734983D1*
X-5140414Y6744642D1*
Y6754413D1*
X-5135585Y6764071D1*
X-5120985Y6768900D1*
X-5101556D1*
X-3619421Y-1075347D2*
X-3629079Y-1070517D1*
X-3638850Y-1060747D1*
X-3643679Y-1051088D1*
Y-1031659D1*
X-3638850Y-1021888D1*
X-3629079Y-1012230D1*
X-3619421Y-1007288D1*
X-3604821Y-1002459D1*
X-3580450D1*
X-3565962Y-1007288D1*
X-3556192Y-1012230D1*
X-3546533Y-1021888D1*
X-3541592Y-1031659D1*
Y-1051088D1*
X-3546533Y-1060747D1*
X-3556191Y-1070517D1*
X-3565962Y-1075347D1*
X-3624138Y-1106719D2*
X-3629079Y-1116490D1*
X-3643567Y-1131090D1*
X-3541591D1*
X-3643567Y-1172233D2*
Y-1225579D1*
X-3604708Y-1196491D1*
Y-1211091D1*
X-3599879Y-1220750D1*
X-3595050Y-1225579D1*
X-3580450Y-1230521D1*
X-3570792D1*
X-3556192Y-1225579D1*
X-3546421Y-1215921D1*
X-3541591Y-1201321D1*
Y-1186721D1*
X-3546421Y-1172233D1*
X-3551362Y-1167404D1*
X-3561021Y-1162462D1*
X-6012885Y7818873D2*
X-6056573D1*
X-6071173Y7823815D1*
X-6076114Y7828644D1*
X-6080943Y7838303D1*
Y7848073D1*
X-6076114Y7857732D1*
X-6071173Y7862673D1*
X-6056573Y7867503D1*
X-6012885D1*
Y7765415D1*
X-6046914Y7818873D2*
X-6080943Y7765415D1*
X-6112316Y7847961D2*
X-6122087Y7852903D1*
X-6136687Y7867390D1*
Y7765415D1*
X-6231288Y7833473D2*
X-6226347Y7818873D1*
X-6216688Y7809103D1*
X-6202088Y7804273D1*
X-6197259D1*
X-6182659Y7809103D1*
X-6173001Y7818873D1*
X-6168059Y7833473D1*
Y7838303D1*
X-6173001Y7852903D1*
X-6182659Y7862561D1*
X-6197259Y7867390D1*
X-6202088D1*
X-6216688Y7862561D1*
X-6226347Y7852903D1*
X-6231288Y7833473D1*
Y7809103D1*
X-6226347Y7784844D1*
X-6216688Y7770244D1*
X-6202088Y7765415D1*
X-6192430D1*
X-6177830Y7770244D1*
X-6173001Y7780015D1*
X-6629942Y5643506D2*
D152*
X-6622698Y5657993D1*
X-6608042Y5672649D1*
X-6593554Y5679893D1*
X-6564410D1*
X-6549754Y5672649D1*
X-6535266Y5657993D1*
X-6527854Y5643506D1*
X-6520610Y5621606D1*
Y5585049D1*
X-6527854Y5563318D1*
X-6535266Y5548662D1*
X-6549754Y5534174D1*
X-6564410Y5526762D1*
X-6593554D1*
X-6608042Y5534174D1*
X-6622698Y5548662D1*
X-6629942Y5563318D1*
X-6677001Y5679893D2*
Y5526762D1*
X-6779088Y5679893D2*
Y5526762D1*
X-6677001Y5606949D2*
X-6779088D1*
X-6935479Y5643506D2*
X-6928235Y5657993D1*
X-6913579Y5672649D1*
X-6899091Y5679893D1*
X-6869947D1*
X-6855291Y5672649D1*
X-6840803Y5657993D1*
X-6833391Y5643506D1*
X-6826147Y5621606D1*
Y5585049D1*
X-6833391Y5563318D1*
X-6840803Y5548662D1*
X-6855291Y5534174D1*
X-6869947Y5526762D1*
X-6899091D1*
X-6913579Y5534174D1*
X-6928235Y5548662D1*
X-6935479Y5563318D1*
Y5585049D1*
X-6899091D1*
X-5757462Y6059428D2*
X-5699006Y6212560D1*
X-5640718Y6059428D1*
X-5662618Y6110472D2*
X-5735562D1*
X-5804521Y6212560D2*
Y6059428D1*
X-5855564D1*
X-5877464Y6066841D1*
X-5892121Y6081328D1*
X-5899364Y6095985D1*
X-5906608Y6117716D1*
Y6154272D1*
X-5899364Y6176172D1*
X-5892121Y6190660D1*
X-5877464Y6205316D1*
X-5855564Y6212560D1*
X-5804521D1*
X-6062999Y6176172D2*
X-6055755Y6190660D1*
X-6041099Y6205316D1*
X-6026611Y6212560D1*
X-5997467D1*
X-5982811Y6205316D1*
X-5968323Y6190660D1*
X-5960911Y6176172D1*
X-5953667Y6154272D1*
Y6117716D1*
X-5960911Y6095985D1*
X-5968323Y6081328D1*
X-5982811Y6066841D1*
X-5997467Y6059428D1*
X-6026611D1*
X-6041099Y6066841D1*
X-6055755Y6081328D1*
X-6062999Y6095985D1*
X-1527237Y8725379D2*
D154*
X-1546778Y8735262D1*
X-1575978Y8764237D1*
Y8560287D1*
M02*
