%TF.GenerationSoftware,Novarm,DipTrace,3.3.1.3*%
%TF.CreationDate,2021-03-19T21:20:40+00:00*%
%FSLAX35Y35*%
%MOMM*%
%TF.FileFunction,Copper,L1,Top*%
%TF.Part,Single*%
%AMOUTLINE0*
4,1,4,
-0.5,-0.45,
-0.5,0.45,
0.5,0.45,
0.5,-0.45,
-0.5,-0.45,
0*%
%TA.AperFunction,Conductor*%
%ADD14C,0.635*%
%ADD15C,0.381*%
%ADD20C,0.6*%
%TA.AperFunction,CopperBalancing*%
%ADD23C,0.29997*%
%ADD24C,0.32993*%
%ADD25C,0.508*%
%TA.AperFunction,ViaPad*%
%ADD26C,1.27*%
%TA.AperFunction,ComponentPad*%
%ADD34C,2.0*%
%ADD49C,1.8796*%
%ADD55R,1.0X0.9*%
%TA.AperFunction,ComponentPad*%
%ADD56C,2.5*%
%ADD57R,2.5X2.5*%
%ADD58C,2.1*%
%ADD59C,1.45*%
%ADD61O,1.9X1.2*%
%ADD62C,2.0*%
%ADD66O,2.0X1.7*%
%ADD67R,2.0X1.7*%
%ADD71R,0.6X1.0*%
%ADD72R,0.8X1.0*%
%TA.AperFunction,ViaPad*%
%ADD76C,0.762*%
%ADD155OUTLINE0*%
G75*
G01*
%LPD*%
X-2943003Y7126443D2*
D15*
X-2975847Y7159287D1*
Y6629673D1*
X-2798283Y8655817D2*
X-2793537Y8651070D1*
Y7667533D1*
X-5680030Y6363883D2*
X-5686200D1*
Y6740197D1*
X-5548017Y7812040D2*
X-5541107Y7805130D1*
X-5305743Y8040493D1*
X-6162463Y7920167D2*
D14*
X-6155030Y7927600D1*
X-5845220D1*
X-5684917Y8092937D2*
X-5542173Y7950193D1*
X-5750320D1*
X-4985027Y7649100D2*
D15*
X-4841253D1*
Y7959943D1*
X-4956987Y7513990D2*
Y7444667D1*
X-6175563Y7331233D2*
X-6180200Y7326597D1*
Y7321960D1*
X-3586577Y8598127D2*
X-3523630Y8661073D1*
X-4104880D1*
X-1317073Y8559493D2*
X-1582327Y8824747D1*
X-1428227D1*
X-650360Y7474940D2*
X-722853D1*
Y7505507D1*
X-5737093Y5848980D2*
X-5885203D1*
Y5792110D1*
X-5868970D1*
X-1014443Y7488853D2*
Y7212263D1*
X-1441140Y7486533D2*
X-1464330Y7509723D1*
X-1489840D1*
X-2928223Y7440247D2*
X-2961743Y7406727D1*
X-2454053Y7538417D2*
X-2588700Y7403770D1*
X-2501713Y7316783D1*
X-3683823Y6767193D2*
X-3674507D1*
X-3582403Y6277763D2*
X-3562260Y6297907D1*
X-3553627D1*
X-4329830Y8677717D2*
X-4357590Y8705477D1*
X-2872303Y6325043D2*
X-2993493D1*
X-4341160Y5076123D2*
X-4334827Y5082457D1*
X-3687023Y5085530D2*
X-3584550Y5188003D1*
Y5171097D1*
X-3436960Y5111653D2*
Y5174260D1*
X-3453357Y-1335007D2*
X-3401107D1*
X-3940360Y5807717D2*
X-3582403Y6165673D1*
Y6277763D1*
X-3940360Y5807717D2*
X-3687023Y5554380D1*
Y5085530D1*
X-4780257Y5815410D2*
X-3940360D1*
Y5807717D1*
X-4698930Y5841934D2*
X-4659741Y5881123D1*
X-4654143Y5875524D1*
X-6935290Y5283907D2*
D14*
X-6965763Y5314380D1*
X-6714943Y7586473D2*
X-7111880D1*
X-7164400Y7533953D1*
Y7478750D1*
D20*
Y7397000D1*
X-6206643Y9098980D2*
D14*
X-6357047Y8948577D1*
X-6800937D1*
X-6938923Y7483223D2*
D15*
X-7069560D1*
X-7155783Y7397000D1*
X-7164400D1*
X-900113Y4202263D2*
X-948807D1*
X-1081880Y4335337D1*
Y4447307D1*
X-1435627Y4801053D1*
Y5190627D1*
X-900113Y4893133D2*
X-903703Y4896723D1*
Y5201763D1*
X-1169610Y5008823D2*
X-1166217Y5005430D1*
Y4790007D1*
X-923907Y4547697D1*
X-900113D1*
X-4072777Y6281397D2*
X-4293963Y6502583D1*
X-4313953D1*
X-5854867Y5599130D2*
D14*
X-5959207Y5494790D1*
X-5829833Y4191843D2*
D15*
Y4206773D1*
X-4829580Y4688237D2*
X-4840777Y4677040D1*
X-4578587Y4862437D2*
Y4841860D1*
X-3587717Y4807037D2*
Y4792793D1*
X-3404107Y4757970D2*
X-3397773D1*
X-3822010Y4873713D2*
Y4845673D1*
X-2697923Y4540747D2*
X-2654740D1*
X-1871263Y3951597D2*
Y3930007D1*
X-3453357Y-916990D2*
X-3494413Y-875933D1*
X-5924930Y-220653D2*
X-5904537Y-241047D1*
X-5873947D1*
X-4984270Y-773830D2*
X-4964207Y-793893D1*
X-4953153D1*
X-6665157Y721047D2*
X-6644630Y700520D1*
X-2760800Y-600937D2*
X-2769013Y-592723D1*
Y-563983D1*
X-2186640Y-259123D2*
X-1877977D1*
Y114713D1*
X-1862557Y130133D1*
Y139390D1*
X-1476990Y639083D2*
X-1483157Y632917D1*
X-1501663D1*
X-1199400Y1742797D2*
X-1248523Y1693673D1*
X-1368670Y2946457D2*
X-1383573Y2931553D1*
X-1398477D1*
X-6594677Y3189873D2*
X-6569840Y3214710D1*
X-6530100D1*
X-6857967Y1759180D2*
X-6848030Y1749243D1*
X-5829833Y4191843D2*
X-5461917Y4559760D1*
X-5575537Y4673380D1*
Y4908927D1*
X-5854867Y5188257D1*
Y5599130D1*
X-3862443Y-968257D2*
Y-957060D1*
X-4982230Y6389437D2*
Y6123593D1*
X-422743Y8203717D2*
X-426240Y8207213D1*
X-884423D1*
D26*
X-2943003Y7126443D3*
X-2975847Y6629673D3*
X-2793537Y7667533D3*
X-5680030Y6363883D3*
X-5686200Y6740197D3*
X-5548017Y7812040D3*
X-5305743Y8040493D3*
X-6162463Y7920167D3*
X-5684917Y8092937D3*
D76*
X-4985027Y7649100D3*
D26*
X-4956987Y7513990D3*
X-6175563Y7331233D3*
X-3586577Y8598127D3*
X-1317073Y8559493D3*
X-650360Y7474940D3*
X-5737093Y5848980D3*
X-1014443Y7488853D3*
X-1441140Y7486533D3*
X-2928223Y7440247D3*
X-2454053Y7538417D3*
X-3683823Y6767193D3*
D76*
X-3582403Y6277763D3*
D26*
X-4329830Y8677717D3*
X-2872303Y6325043D3*
X-4341160Y5076123D3*
X-3687023Y5085530D3*
X-3436960Y5111653D3*
X-3453357Y-1335007D3*
D76*
X-3582403Y6277763D3*
D26*
X-3687023Y5085530D3*
X-4698930Y5841934D3*
X-6714943Y7586473D3*
X-6206643Y9098980D3*
X-1435627Y5190627D3*
X-903703Y5201763D3*
X-1169610Y5008823D3*
X-4072777Y6281397D3*
X-4313953Y6502583D3*
X-5854867Y5599130D3*
X-5959207Y5494790D3*
X-5829833Y4191843D3*
X-4829580Y4688237D3*
X-4578587Y4862437D3*
X-3587717Y4807037D3*
X-3404107Y4757970D3*
X-3822010Y4873713D3*
X-2697923Y4540747D3*
X-1871263Y3951597D3*
X-3453357Y-916990D3*
X-5924930Y-220653D3*
X-4984270Y-773830D3*
X-6665157Y721047D3*
X-2760800Y-600937D3*
X-2186640Y-259123D3*
X-1476990Y639083D3*
X-1199400Y1742797D3*
X-1368670Y2946457D3*
X-6594677Y3189873D3*
X-6857967Y1759180D3*
X-5829833Y4191843D3*
X-5854867Y5599130D3*
X-3862443Y-968257D3*
X-4982230Y6389437D3*
Y6123593D3*
X-884423Y8207213D3*
X-5777383Y8690853D3*
X-4077970Y7394493D3*
X-3478117Y7549610D3*
X-3850247Y7964957D3*
X-3793483Y7340390D3*
X-3812177Y7689177D3*
X-3484997Y7907827D3*
X-4083623Y7944867D3*
X-7035748Y4327560D3*
X-6108439Y9171548D2*
D23*
X-347462D1*
X-6091917Y9141885D2*
X-266025D1*
X-6084652Y9112222D2*
X-205856D1*
X-6085062Y9082558D2*
X-160100D1*
X-6093147Y9052895D2*
X-118620D1*
X-6110958Y9023232D2*
X-84815D1*
X-6146931Y8993568D2*
X-53530D1*
X-6214306Y8963905D2*
X-27517D1*
X-6234577Y8934242D2*
X-2207D1*
X-6234577Y8904578D2*
X17595D1*
X-6234518Y8874915D2*
X37398D1*
X-6234518Y8845252D2*
X53802D1*
X-6234518Y8815588D2*
X68449D1*
X-6234460Y8785925D2*
X-2876321D1*
X-2720280D2*
X-2368311D1*
X-2212270D2*
X-1860301D1*
X-1704260D2*
X82979D1*
X-6234460Y8756262D2*
X-3137269D1*
X-2967342D2*
X-2912938D1*
X-2683604D2*
X-2629259D1*
X-2459333D2*
X-2404928D1*
X-2175653D2*
X-2121249D1*
X-1951323D2*
X-1896918D1*
X-1667643D2*
X93056D1*
X-6234460Y8726598D2*
X-3170605D1*
X-1646845D2*
X103133D1*
X-6234460Y8696935D2*
X-3189939D1*
X-1634834D2*
X112272D1*
X-6234401Y8667272D2*
X-5118103D1*
X-4976006D2*
X-3200895D1*
X-1629561D2*
X118190D1*
X-6234401Y8637608D2*
X-5160052D1*
X-4934116D2*
X-3205289D1*
X-1630206D2*
X124048D1*
X-6234401Y8607945D2*
X-5183428D1*
X-4910681D2*
X-3203765D1*
X-1636943D2*
X128677D1*
X-6234401Y8578282D2*
X-5197489D1*
X-4896620D2*
X-3196149D1*
X-1650653D2*
X130610D1*
X-6234343Y8548618D2*
X-5204695D1*
X-4889414D2*
X-3181209D1*
X-2923343D2*
X-2906494D1*
X-2690108D2*
X-2673258D1*
X-2415334D2*
X-2398484D1*
X-2182098D2*
X-2165258D1*
X-1907324D2*
X-1890474D1*
X-1674088D2*
X132544D1*
X-6234343Y8518955D2*
X-5206102D1*
X-4888067D2*
X-3155958D1*
X-2948653D2*
X-2871810D1*
X-2715300D2*
X-2647948D1*
X-2440643D2*
X-2355129D1*
X-2225452D2*
X-2139938D1*
X-1932633D2*
X-1847119D1*
X-1717442D2*
X133950D1*
X-6234343Y8489292D2*
X-5201707D1*
X-4892402D2*
X-3106628D1*
X-2997925D2*
X-2871810D1*
X-2715300D2*
X-2598676D1*
X-2489915D2*
X-2090666D1*
X-1981905D2*
X133950D1*
X-6234284Y8459628D2*
X-5191162D1*
X-4902948D2*
X-2871810D1*
X-2715300D2*
X133950D1*
X-6234284Y8429965D2*
X-5172707D1*
X-4921403D2*
X-2871810D1*
X-2715300D2*
X133950D1*
X-6234284Y8400302D2*
X-5141890D1*
X-4952220D2*
X-2871810D1*
X-2715300D2*
X133950D1*
X-6234284Y8370638D2*
X-5057407D1*
X-5036686D2*
X-2871810D1*
X-2715300D2*
X133950D1*
X-6234226Y8340975D2*
X-2871810D1*
X-2715300D2*
X133950D1*
X-6234226Y8311312D2*
X-2871810D1*
X-2715300D2*
X-946516D1*
X-822346D2*
X133950D1*
X-6234226Y8281648D2*
X-2871810D1*
X-2715300D2*
X-981200D1*
X-333553D2*
X-141938D1*
X36484D2*
X133950D1*
X-6234167Y8251985D2*
X-2871810D1*
X-2715300D2*
X-998425D1*
X-333553D2*
X-141938D1*
X36484D2*
X133950D1*
X-6234167Y8222322D2*
X-2871810D1*
X-2715300D2*
X-1006158D1*
X-333553D2*
X-141938D1*
X36484D2*
X133950D1*
X-6234167Y8192658D2*
X-2871810D1*
X-2715300D2*
X-1006217D1*
X-333553D2*
X-141938D1*
X36484D2*
X133950D1*
X-6234167Y8162995D2*
X-2871810D1*
X-2715300D2*
X-998659D1*
X-333553D2*
X-141938D1*
X36484D2*
X133950D1*
X-6234108Y8133332D2*
X-5384324D1*
X-5227169D2*
X-2871810D1*
X-2715300D2*
X-981610D1*
X-333553D2*
X-141938D1*
X36484D2*
X133950D1*
X-6234108Y8103668D2*
X-5410395D1*
X-5201040D2*
X-2871810D1*
X-2715300D2*
X-947512D1*
X-821350D2*
X-511975D1*
X-333553D2*
X-141938D1*
X36484D2*
X133950D1*
X-6234108Y8074005D2*
X-5423636D1*
X-5187799D2*
X-2871810D1*
X-2715300D2*
X-596926D1*
X-398526D2*
X-76964D1*
X-6234050Y8044342D2*
X-5428382D1*
X-5183112D2*
X-2871810D1*
X-2715300D2*
X-596926D1*
X-398526D2*
X-76964D1*
X-6234050Y8014678D2*
X-5440978D1*
X-5185865D2*
X-2871810D1*
X-2715300D2*
X-596926D1*
X-398526D2*
X-76964D1*
X-6234050Y7985015D2*
X-5470623D1*
X-5196646D2*
X-2871810D1*
X-2715300D2*
X-596926D1*
X-398526D2*
X-76964D1*
X-6234050Y7955352D2*
X-5500327D1*
X-5218616D2*
X-2871810D1*
X-2715300D2*
X-596926D1*
X-398526D2*
X-76964D1*
X-6233991Y7925688D2*
X-5588618D1*
X-5268825D2*
X-2871810D1*
X-2715300D2*
X-596926D1*
X-398526D2*
X-76964D1*
X-6233991Y7896025D2*
X-5636308D1*
X-5340770D2*
X-2871810D1*
X-2715300D2*
X-596926D1*
X-398526D2*
X-76964D1*
X-6233991Y7866362D2*
X-5657692D1*
X-5370474D2*
X-2871810D1*
X-2715300D2*
X-511975D1*
X-333553D2*
X-141938D1*
X36484D2*
X133950D1*
X-6233933Y7836698D2*
X-5668179D1*
X-5400119D2*
X-2871810D1*
X-2715300D2*
X-511975D1*
X-333553D2*
X-141938D1*
X36484D2*
X133950D1*
X-6233933Y7807035D2*
X-5670640D1*
X-5425429D2*
X-2871810D1*
X-2715300D2*
X-511975D1*
X-333553D2*
X-141938D1*
X36484D2*
X133950D1*
X-6233933Y7777372D2*
X-5665601D1*
X-5430467D2*
X-2871810D1*
X-2715300D2*
X-511975D1*
X-333553D2*
X-141938D1*
X36484D2*
X133950D1*
X-6233933Y7747708D2*
X-5651950D1*
X-5444059D2*
X-2885402D1*
X-2701649D2*
X-511975D1*
X-333553D2*
X-141938D1*
X36484D2*
X133950D1*
X-6234401Y7718045D2*
X-5625117D1*
X-5470892D2*
X-2905088D1*
X-2682023D2*
X-511975D1*
X-333553D2*
X-141938D1*
X36484D2*
X133950D1*
X-6247759Y7688382D2*
X-2914403D1*
X-2672649D2*
X-511975D1*
X-333553D2*
X-141938D1*
X36484D2*
X133950D1*
X-6616507Y7658718D2*
X-2915926D1*
X-2671184D2*
X-511975D1*
X-333553D2*
X-141938D1*
X36484D2*
X133950D1*
X-6600044Y7629055D2*
X-2909892D1*
X-2677160D2*
X133950D1*
X-6592955Y7599392D2*
X-2894952D1*
X-2692100D2*
X133950D1*
X-6593424Y7569728D2*
X-2865541D1*
X-2721510D2*
X133950D1*
X-6601626Y7540065D2*
X133950D1*
X-6619495Y7510402D2*
X133950D1*
X-6655819Y7480738D2*
X133950D1*
X-6705208Y7451075D2*
X133950D1*
X-6705208Y7421412D2*
X-5545263D1*
X-5226877D2*
X133950D1*
X-6705208Y7391748D2*
X-5545263D1*
X-5226877D2*
X133950D1*
X-6705208Y7362085D2*
X-5545263D1*
X-5226877D2*
X133950D1*
X-6705208Y7332422D2*
X-5545263D1*
X-5226877D2*
X133950D1*
X-6705208Y7302758D2*
X-5545263D1*
X-5226877D2*
X133950D1*
X-6836912Y7273095D2*
X-6818604D1*
X-6620198D2*
X-5545263D1*
X-5226877D2*
X133950D1*
X-6837030Y7243432D2*
X-6818623D1*
X-6620198D2*
X-5545263D1*
X-5226877D2*
X-2971350D1*
X-2914673D2*
X133950D1*
X-6837147Y7213768D2*
X-6818642D1*
X-6620198D2*
X-5545263D1*
X-5226877D2*
X-3030757D1*
X-2858136D2*
X-101688D1*
X-5347D2*
X133950D1*
X-6837205Y7184105D2*
X-6818652D1*
X-6620198D2*
X-5545263D1*
X-5226877D2*
X-3050911D1*
X-2835111D2*
X-446884D1*
X-350192D2*
X-158225D1*
X51189D2*
X133950D1*
X-6837323Y7154442D2*
X-6818556D1*
X-6620198D2*
X-5492593D1*
X-5279605D2*
X-3062394D1*
X-2823628D2*
X-903982D1*
X-723100D2*
X-506292D1*
X-290784D2*
X-186464D1*
X79428D2*
X133950D1*
X-6837440Y7124778D2*
X-6818575D1*
X-6620198D2*
X-5520188D1*
X-5251952D2*
X-3065675D1*
X-2820289D2*
X-938197D1*
X-688885D2*
X-536171D1*
X-260905D2*
X-203689D1*
X96653D2*
X133950D1*
X-6837498Y7095115D2*
X-6818585D1*
X-6620198D2*
X-5535889D1*
X-5236309D2*
X-3061516D1*
X-2824448D2*
X-958644D1*
X-668438D2*
X-554861D1*
X-242157D2*
X-213648D1*
X106613D2*
X133950D1*
X-6837616Y7065452D2*
X-5543740D1*
X-5228458D2*
X-3054075D1*
X-2836986D2*
X-2649999D1*
X-2490208D2*
X-970889D1*
X-656134D2*
X-566285D1*
X110538D2*
X133950D1*
X-6705208Y7035788D2*
X-5545029D1*
X-5227169D2*
X-3054075D1*
X-2861827D2*
X-2687553D1*
X-2452654D2*
X-976864D1*
X-650217D2*
X-571909D1*
X109015D2*
X133950D1*
X-6705208Y7006125D2*
X-5539990D1*
X-5232149D2*
X-3054075D1*
X-2897565D2*
X-2709231D1*
X-2431035D2*
X-977216D1*
X-649807D2*
X-572261D1*
X-224815D2*
X-208786D1*
X101750D2*
X133950D1*
X-6705208Y6976462D2*
X-5527863D1*
X-5244336D2*
X-3054075D1*
X-2897565D2*
X-2722120D1*
X-2418146D2*
X-972002D1*
X-655021D2*
X-567340D1*
X-229678D2*
X-194959D1*
X87923D2*
X133950D1*
X-6705208Y6946798D2*
X-5506127D1*
X-5266071D2*
X-3054075D1*
X-2897565D2*
X-2728389D1*
X-2411877D2*
X-960636D1*
X-666387D2*
X-556735D1*
X-240282D2*
X-172227D1*
X65192D2*
X133950D1*
X-6705208Y6917135D2*
X-5466405D1*
X-5305794D2*
X-3054075D1*
X-2897565D2*
X-2728857D1*
X-2411408D2*
X-941478D1*
X-685604D2*
X-539101D1*
X-257917D2*
X-133032D1*
X25997D2*
X133950D1*
X-6705208Y6887472D2*
X-5506654D1*
X-5265544D2*
X-3054075D1*
X-2897565D2*
X-2723584D1*
X-2416681D2*
X-909723D1*
X-717358D2*
X-511096D1*
X-285922D2*
X133950D1*
X-6705208Y6857808D2*
X-5711475D1*
X-5660891D2*
X-5528156D1*
X-5243984D2*
X-3054075D1*
X-2897565D2*
X-2711926D1*
X-2428340D2*
X-459188D1*
X-337889D2*
X133950D1*
X-6838436Y6828145D2*
X-5770414D1*
X-5602011D2*
X-5540166D1*
X-5232032D2*
X-3054075D1*
X-2897565D2*
X-2692006D1*
X-2448260D2*
X133950D1*
X-6838494Y6798482D2*
X-5793732D1*
X-5578634D2*
X-5545087D1*
X-5227111D2*
X-3054075D1*
X-2897565D2*
X-2658201D1*
X-2482064D2*
X133950D1*
X-6838612Y6768818D2*
X-6459810D1*
X-6404011D2*
X-5805449D1*
X-5566975D2*
X-5543623D1*
X-5228517D2*
X-3054075D1*
X-2897565D2*
X-1759824D1*
X-1704026D2*
X133950D1*
X-6838729Y6739155D2*
X-6584425D1*
X-6279396D2*
X-5808906D1*
X-5563519D2*
X-5535655D1*
X-5236543D2*
X-3054075D1*
X-2897565D2*
X-1884439D1*
X-1579411D2*
X133950D1*
X-6838846Y6709492D2*
X-6642661D1*
X-6221219D2*
X-5804922D1*
X-5567503D2*
X-5519778D1*
X-5252362D2*
X-3068077D1*
X-2883621D2*
X-1942675D1*
X-1521175D2*
X133950D1*
X-6838904Y6679828D2*
X-6683555D1*
X-6180325D2*
X-5792560D1*
X-5579806D2*
X-5491890D1*
X-5280308D2*
X-3087528D1*
X-2864170D2*
X-1983510D1*
X-1480281D2*
X133950D1*
X-6839022Y6650165D2*
X-6713200D1*
X-6150622D2*
X-5768070D1*
X-5604296D2*
X-5487730D1*
X-5284409D2*
X-3096785D1*
X-2854914D2*
X-2013214D1*
X-1450636D2*
X133950D1*
X-6839139Y6620502D2*
X-6742845D1*
X-6120976D2*
X-5764438D1*
X-5607928D2*
X-5517551D1*
X-5254647D2*
X-4337546D1*
X-4290360D2*
X-3098191D1*
X-2853507D2*
X-2042859D1*
X-1420991D2*
X133950D1*
X-6839197Y6590838D2*
X-6762589D1*
X-6101233D2*
X-5764438D1*
X-5607928D2*
X-5534366D1*
X-5237774D2*
X-4397832D1*
X-4230073D2*
X-3092098D1*
X-2859601D2*
X-2062603D1*
X-1401247D2*
X-1179576D1*
X-987504D2*
X133950D1*
X-6839315Y6561175D2*
X-6777704D1*
X-6086117D2*
X-5764438D1*
X-5607928D2*
X-5543095D1*
X-5229044D2*
X-4421325D1*
X-4206580D2*
X-3077041D1*
X-2874657D2*
X-2077719D1*
X-1386131D2*
X-1211389D1*
X-955691D2*
X133950D1*
X-6839432Y6531512D2*
X-6792820D1*
X-6071002D2*
X-5764438D1*
X-5607928D2*
X-5545204D1*
X-5226994D2*
X-4433101D1*
X-4194804D2*
X-3047338D1*
X-2904361D2*
X-2092834D1*
X-1371016D2*
X-1230606D1*
X-936474D2*
X133950D1*
X-6839549Y6501848D2*
X-6806822D1*
X-6057058D2*
X-5764438D1*
X-5607928D2*
X-5540986D1*
X-5231153D2*
X-5026356D1*
X-4938100D2*
X-4436675D1*
X-4183789D2*
X-2106778D1*
X-1357014D2*
X-1241972D1*
X-925050D2*
X133950D1*
X-6839607Y6472185D2*
X-6812739D1*
X-6051140D2*
X-5764438D1*
X-5607928D2*
X-5529855D1*
X-5242344D2*
X-5071702D1*
X-4892754D2*
X-4432750D1*
X-4154144D2*
X-2112695D1*
X-1351096D2*
X-1247186D1*
X-919836D2*
X133950D1*
X-6839725Y6442522D2*
X-6817426D1*
X-6046395D2*
X-5773285D1*
X-5586778D2*
X-5509525D1*
X-5262615D2*
X-5092501D1*
X-4871955D2*
X-4420505D1*
X-4124499D2*
X-2117441D1*
X-1346409D2*
X-1246893D1*
X-920187D2*
X133950D1*
X-6839842Y6412858D2*
X-6822113D1*
X-6041708D2*
X-5792267D1*
X-5567796D2*
X-5472439D1*
X-5299759D2*
X-5102636D1*
X-4861819D2*
X-4396192D1*
X-4094795D2*
X-2122128D1*
X-1341722D2*
X-1240917D1*
X-926104D2*
X133950D1*
X-6037783Y6383195D2*
X-5801172D1*
X-5558890D2*
X-5104746D1*
X-4859710D2*
X-4325652D1*
X-4302253D2*
X-4284009D1*
X-4006797D2*
X-2126053D1*
X-1337738D2*
X-1228672D1*
X-938349D2*
X133950D1*
X-6840018Y6353532D2*
X-6822992D1*
X-6040829D2*
X-5802285D1*
X-5557777D2*
X-5099414D1*
X-4865042D2*
X-4254352D1*
X-3974223D2*
X-2123007D1*
X-1340844D2*
X-1208284D1*
X-958796D2*
X133950D1*
X-6840135Y6323868D2*
X-6818305D1*
X-6045516D2*
X-5795841D1*
X-5564222D2*
X-5085353D1*
X-4879103D2*
X-4224648D1*
X-3957877D2*
X-2118320D1*
X-1345531D2*
X-1174128D1*
X-992894D2*
X133950D1*
X-6840252Y6294205D2*
X-6813618D1*
X-6050262D2*
X-5780374D1*
X-5579689D2*
X-5060512D1*
X-4904002D2*
X-4195003D1*
X-3950788D2*
X-2113574D1*
X-1350217D2*
X133950D1*
X-6840311Y6264542D2*
X-6808463D1*
X-6055417D2*
X-5749791D1*
X-5610271D2*
X-5060512D1*
X-4904002D2*
X-4194300D1*
X-3951257D2*
X-2108418D1*
X-1355373D2*
X133950D1*
X-6840428Y6234878D2*
X-6795691D1*
X-6068189D2*
X-5060512D1*
X-4904002D2*
X-4186098D1*
X-3959459D2*
X-2095646D1*
X-1368204D2*
X133950D1*
X-6840545Y6205215D2*
X-6780575D1*
X-6083305D2*
X-5072816D1*
X-4891640D2*
X-4168111D1*
X-3977445D2*
X-2080531D1*
X-1383261D2*
X133950D1*
X-6840603Y6175552D2*
X-6765459D1*
X-6098420D2*
X-5093087D1*
X-4871369D2*
X-4131670D1*
X-4013886D2*
X-2065415D1*
X-1398376D2*
X133950D1*
X-6840721Y6145888D2*
X-6747825D1*
X-6115997D2*
X-5102812D1*
X-4861644D2*
X-2047839D1*
X-1416011D2*
X133950D1*
X-6840838Y6116225D2*
X-6718707D1*
X-6145114D2*
X-5104687D1*
X-4859769D2*
X-2018721D1*
X-1445129D2*
X133950D1*
X-6840896Y6086562D2*
X-6689062D1*
X-6174760D2*
X-5099063D1*
X-4865393D2*
X-1989076D1*
X-1474774D2*
X133950D1*
X-6837088Y6056898D2*
X-6653499D1*
X-6210322D2*
X-5084650D1*
X-4879806D2*
X-1953514D1*
X-1510336D2*
X-880723D1*
X-746359D2*
X-478580D1*
X-318438D2*
X-38180D1*
X71109D2*
X133950D1*
X-6833280Y6027235D2*
X-6595264D1*
X-6268558D2*
X-5056235D1*
X-4908221D2*
X-1895278D1*
X-1568572D2*
X-926128D1*
X-700954D2*
X-520411D1*
X-276665D2*
X-90674D1*
X-6829472Y5997572D2*
X-6494786D1*
X-6369035D2*
X-1794801D1*
X-1669049D2*
X-951203D1*
X-675820D2*
X-544901D1*
X-252117D2*
X-117917D1*
X-6825664Y5967908D2*
X-966612D1*
X-660470D2*
X-560368D1*
X-236708D2*
X-134614D1*
X-6821856Y5938245D2*
X-4029142D1*
X-3851541D2*
X-975048D1*
X-651975D2*
X-569273D1*
X-227803D2*
X-144105D1*
X-6818047Y5908582D2*
X-4062654D1*
X-3818088D2*
X-977743D1*
X-649338D2*
X-572671D1*
X-224405D2*
X-147679D1*
X-6814298Y5878918D2*
X-4082398D1*
X-3798344D2*
X-974872D1*
X-652151D2*
X-570855D1*
X-226163D2*
X-145746D1*
X-6810490Y5849255D2*
X-4093940D1*
X-3786802D2*
X-966260D1*
X-660821D2*
X-563707D1*
X-233310D2*
X-138071D1*
X-6806681Y5819592D2*
X-4099096D1*
X-3781588D2*
X-950676D1*
X-676406D2*
X-550467D1*
X-246610D2*
X-123717D1*
X-6802873Y5789928D2*
X-4098568D1*
X-3782174D2*
X-925191D1*
X-701891D2*
X-529199D1*
X-267877D2*
X-100224D1*
X-6799065Y5760265D2*
X-4092182D1*
X-3788560D2*
X-878672D1*
X-748409D2*
X-494516D1*
X-302560D2*
X-59154D1*
X92083D2*
X131137D1*
X-6795257Y5730602D2*
X-4079176D1*
X-3801508D2*
X129145D1*
X-6791449Y5700938D2*
X-5920807D1*
X-5788904D2*
X-4057382D1*
X-3823361D2*
X125572D1*
X-6787699Y5671275D2*
X-5953382D1*
X-5756329D2*
X-4019417D1*
X-3861325D2*
X119713D1*
X-6783891Y5641612D2*
X-5969786D1*
X-5739925D2*
X113796D1*
X-6780083Y5611948D2*
X-6142501D1*
X-5732836D2*
X105711D1*
X-6776275Y5582285D2*
X-6161777D1*
X-5689188D2*
X95634D1*
X-6775337Y5552622D2*
X-6162948D1*
X-5671729D2*
X85557D1*
X-6775396Y5522958D2*
X-6161601D1*
X-5658196D2*
X72199D1*
X-6775454Y5493295D2*
X-6160253D1*
X-5644662D2*
X57552D1*
X-6775513Y5463632D2*
X-6158906D1*
X-5631070D2*
X42495D1*
X-6775572Y5433968D2*
X-6154043D1*
X-5617536D2*
X22692D1*
X-6775689Y5404305D2*
X-6131956D1*
X-5604003D2*
X2831D1*
X-6775747Y5374642D2*
X-6106236D1*
X-5590410D2*
X-20896D1*
X-6775806Y5344978D2*
X-6080516D1*
X-5576877D2*
X-46909D1*
X-6775865Y5315315D2*
X-6054738D1*
X-5563343D2*
X-944583D1*
X-862830D2*
X-76144D1*
X-6775923Y5285652D2*
X-6030131D1*
X-5549751D2*
X-1511414D1*
X-1359826D2*
X-992097D1*
X-815316D2*
X-109949D1*
X-6775982Y5255988D2*
X-6014840D1*
X-5536217D2*
X-1538892D1*
X-1332348D2*
X-1013423D1*
X-793990D2*
X-148734D1*
X-6776040Y5226325D2*
X-5999607D1*
X-5522684D2*
X-1552894D1*
X-1318346D2*
X-1023851D1*
X-783562D2*
X-193143D1*
X-6776099Y5196662D2*
X-5984316D1*
X-5509091D2*
X-1558167D1*
X-1313073D2*
X-1026312D1*
X-781101D2*
X-250617D1*
X-6776158Y5166998D2*
X-5969025D1*
X-5495558D2*
X-1555999D1*
X-1315300D2*
X-1021274D1*
X-786140D2*
X-325081D1*
X-6776216Y5137335D2*
X-5953792D1*
X-5482024D2*
X-1545805D1*
X-1325435D2*
X-1007564D1*
X-799790D2*
X-449052D1*
X-6776275Y5107672D2*
X-5938501D1*
X-5468432D2*
X-1524948D1*
X-1346351D2*
X-1240097D1*
X-1099113D2*
X-981962D1*
X-825452D2*
X-652701D1*
X-6776333Y5078008D2*
X-5923209D1*
X-5454898D2*
X-4084976D1*
X-3969594D2*
X-1513875D1*
X-1357365D2*
X-1270269D1*
X-1068940D2*
X-981962D1*
X-825452D2*
X-713456D1*
X-6776392Y5048345D2*
X-5907977D1*
X-5441306D2*
X-4243572D1*
X-3788794D2*
X-1513875D1*
X-1357365D2*
X-1285619D1*
X-1053590D2*
X-981962D1*
X-825452D2*
X-752124D1*
X-6776450Y5018682D2*
X-5892685D1*
X-5427772D2*
X-4402226D1*
X-3607935D2*
X-1513875D1*
X-1357365D2*
X-1291888D1*
X-1047321D2*
X-981962D1*
X-825452D2*
X-782003D1*
X-6776509Y4989018D2*
X-5877394D1*
X-5414239D2*
X-4560880D1*
X-3427135D2*
X-1513875D1*
X-1357365D2*
X-1290658D1*
X-1048552D2*
X-1009322D1*
X-6776568Y4959355D2*
X-5862161D1*
X-5400646D2*
X-4719476D1*
X-3246335D2*
X-1513875D1*
X-1357365D2*
X-1281635D1*
X-1057633D2*
X-1009322D1*
X-6776685Y4929692D2*
X-5846870D1*
X-5387113D2*
X-4878130D1*
X-3065535D2*
X-1513875D1*
X-1357365D2*
X-1262419D1*
X-1076791D2*
X-1009322D1*
X-6776743Y4900028D2*
X-5831579D1*
X-5373579D2*
X-5034558D1*
X-2956621D2*
X-1513875D1*
X-1357365D2*
X-1244491D1*
X-1087981D2*
X-1009322D1*
X-6776802Y4870365D2*
X-5816346D1*
X-5359987D2*
X-5097774D1*
X-2908462D2*
X-1513875D1*
X-1357365D2*
X-1244491D1*
X-1087981D2*
X-1009322D1*
X-6776861Y4840702D2*
X-5801055D1*
X-5346453D2*
X-5159700D1*
X-2860362D2*
X-1513875D1*
X-1357365D2*
X-1244491D1*
X-1087981D2*
X-1009322D1*
X-6776919Y4811038D2*
X-5785764D1*
X-5332919D2*
X-5221686D1*
X-2812203D2*
X-1513875D1*
X-1336157D2*
X-1244491D1*
X-1077845D2*
X-1009322D1*
X-6776978Y4781375D2*
X-5770472D1*
X-5319327D2*
X-5283612D1*
X-2764103D2*
X-1511239D1*
X-1306511D2*
X-1243964D1*
X-1048142D2*
X-1009322D1*
X-6777036Y4751712D2*
X-5755240D1*
X-2716003D2*
X-1495420D1*
X-1276866D2*
X-1234004D1*
X-6777095Y4722048D2*
X-5739948D1*
X-2667845D2*
X-1466068D1*
X-1247221D2*
X-1207698D1*
X-6777154Y4692385D2*
X-5724657D1*
X-2619744D2*
X-1436364D1*
X-1217517D2*
X-1177994D1*
X-6777212Y4662722D2*
X-5709424D1*
X-2571586D2*
X-1406719D1*
X-1187872D2*
X-1148349D1*
X-6777271Y4633058D2*
X-5694133D1*
X-2523486D2*
X-1377074D1*
X-1158227D2*
X-1118704D1*
X-6777329Y4603395D2*
X-5678842D1*
X-2475327D2*
X-1347370D1*
X-1128523D2*
X-1089059D1*
X-6777388Y4573732D2*
X-5717158D1*
X-2427227D2*
X-1317725D1*
X-1098878D2*
X-1059355D1*
X-6777446Y4544068D2*
X-5779085D1*
X-2379068D2*
X-1288080D1*
X-1069233D2*
X-1029710D1*
X-6777857Y4514405D2*
X-5841011D1*
X-2330968D2*
X-1258376D1*
X-1039529D2*
X-1009322D1*
X-6790453Y4484742D2*
X-5902997D1*
X-2282809D2*
X-1228731D1*
X-7297935Y4455078D2*
X-5964923D1*
X-2234709D2*
X-1199086D1*
X-7297935Y4425415D2*
X-6026850D1*
X-2186550D2*
X-1169441D1*
X-7297935Y4395752D2*
X-6088777D1*
X-2138450D2*
X-1160125D1*
X-7297935Y4366088D2*
X-6135412D1*
X-2090292D2*
X-1160125D1*
X-7297935Y4336425D2*
X-6154102D1*
X-2042191D2*
X-1160125D1*
X-7297935Y4306762D2*
X-6172557D1*
X-1994033D2*
X-1154501D1*
X-7297935Y4277098D2*
X-6191012D1*
X-1945933D2*
X-1133058D1*
X-7297935Y4247435D2*
X-6209467D1*
X-1898008D2*
X-1103413D1*
X-7297935Y4217772D2*
X-6227922D1*
X-1873929D2*
X-1073768D1*
X-7297935Y4188108D2*
X-6246377D1*
X-1854771D2*
X-1044064D1*
X-7298521Y4158445D2*
X-6264832D1*
X-1835613D2*
X-1014419D1*
X-7299400Y4128782D2*
X-6283345D1*
X-1816513D2*
X-1001588D1*
X-7300338Y4099118D2*
X-6301800D1*
X-1797355D2*
X-1008033D1*
X-7301861Y4069455D2*
X-6320255D1*
X-1778197D2*
X-1009322D1*
X-7304673Y4039792D2*
X-6338710D1*
X-1759098D2*
X-1009322D1*
X-7307427Y4010128D2*
X-6357165D1*
X-1739940D2*
X-1009322D1*
X-7310239Y3980465D2*
X-6375620D1*
X-1720782D2*
X-1006744D1*
X-7314926Y3950802D2*
X-6394075D1*
X-1701682D2*
X-984715D1*
X-7319554Y3921138D2*
X-6412530D1*
X-1682524D2*
X-844282D1*
X-7324241Y3891475D2*
X-6430985D1*
X-1663366D2*
X-839595D1*
X-7330276Y3861812D2*
X-6449499D1*
X-1644267D2*
X-833560D1*
X-7336896Y3832148D2*
X-6467953D1*
X-1625109D2*
X-826940D1*
X-7343516Y3802485D2*
X-6486408D1*
X-1605951D2*
X-820378D1*
X-7350957Y3772822D2*
X-6504863D1*
X-1586851D2*
X-812879D1*
X-7359569Y3743158D2*
X-6523318D1*
X-1567693D2*
X-804266D1*
X-7368123Y3713495D2*
X-6541773D1*
X-1548594D2*
X-795713D1*
X-7377204Y3683832D2*
X-6560228D1*
X-1529436D2*
X-786632D1*
X-7387867Y3654168D2*
X-6578683D1*
X-1510278D2*
X-775969D1*
X-7398471Y3624505D2*
X-6597197D1*
X-1491178D2*
X-765365D1*
X-7409310Y3594842D2*
X-6615652D1*
X-1472020D2*
X-754526D1*
X-7422082Y3565178D2*
X-6634107D1*
X-1452862D2*
X-741754D1*
X-7434854Y3535515D2*
X-6652562D1*
X-1433763D2*
X-728982D1*
X-7447567Y3505852D2*
X-6671017D1*
X-1414605D2*
X-716268D1*
X-7459929Y3476188D2*
X-6689472D1*
X-1395447D2*
X-703848D1*
X-7472350Y3446525D2*
X-6707927D1*
X-1376347D2*
X-691486D1*
X-7484712Y3416862D2*
X-6726382D1*
X-1357189D2*
X-679124D1*
X-7497074Y3387198D2*
X-6744837D1*
X-1338031D2*
X-666762D1*
X-7509435Y3357535D2*
X-6763350D1*
X-1318932D2*
X-654400D1*
X-7521797Y3327872D2*
X-6781805D1*
X-1299774D2*
X-642038D1*
X-7534159Y3298208D2*
X-6800260D1*
X-1280616D2*
X-629676D1*
X-7546580Y3268545D2*
X-6818715D1*
X-1261516D2*
X-617256D1*
X-7558942Y3238882D2*
X-6837170D1*
X-1242358D2*
X-604894D1*
X-7570835Y3209218D2*
X-6854629D1*
X-1233160D2*
X-593001D1*
X-7580326Y3179555D2*
X-6861132D1*
X-1228883D2*
X-583510D1*
X-7589817Y3149892D2*
X-6866405D1*
X-1224548D2*
X-574019D1*
X-7599308Y3120228D2*
X-6871737D1*
X-1220212D2*
X-564527D1*
X-7608799Y3090565D2*
X-6877010D1*
X-1215936D2*
X-555036D1*
X-7618290Y3060902D2*
X-6882282D1*
X-1211600D2*
X-545545D1*
X-7627782Y3031238D2*
X-6887555D1*
X-1207265D2*
X-536054D1*
X-7637273Y3001575D2*
X-6892887D1*
X-1202929D2*
X-526563D1*
X-7646764Y2971912D2*
X-6898160D1*
X-1198652D2*
X-517072D1*
X-7656255Y2942248D2*
X-6903432D1*
X-1194317D2*
X-507581D1*
X-7665746Y2912585D2*
X-6908764D1*
X-1189981D2*
X-498090D1*
X-7672601Y2882922D2*
X-6914037D1*
X-1185705D2*
X-491235D1*
X-7679397Y2853258D2*
X-6919310D1*
X-1181369D2*
X-484439D1*
X-7686135Y2823595D2*
X-6924582D1*
X-1177034D2*
X-477701D1*
X-7692931Y2793932D2*
X-6929914D1*
X-1172757D2*
X-470905D1*
X-7699668Y2764268D2*
X-6935187D1*
X-1168421D2*
X-464168D1*
X-7706464Y2734605D2*
X-6940460D1*
X-1164086D2*
X-457371D1*
X-7713202Y2704942D2*
X-6945791D1*
X-1159750D2*
X-450634D1*
X-7719998Y2675278D2*
X-6951064D1*
X-1155474D2*
X-443838D1*
X-7726735Y2645615D2*
X-6956337D1*
X-1151138D2*
X-437100D1*
X-7733473Y2615952D2*
X-6961668D1*
X-1146803D2*
X-430363D1*
X-7738922Y2586288D2*
X-6966941D1*
X-1142526D2*
X-424914D1*
X-7743081Y2556625D2*
X-6972214D1*
X-1138190D2*
X-420754D1*
X-7747182Y2526962D2*
X-6977487D1*
X-1133855D2*
X-416653D1*
X-7751342Y2497298D2*
X-6982818D1*
X-1129578D2*
X-412494D1*
X-7755502Y2467635D2*
X-6988091D1*
X-1125242D2*
X-408334D1*
X-7759603Y2437972D2*
X-6993364D1*
X-1120907D2*
X-404233D1*
X-7763763Y2408308D2*
X-6998695D1*
X-1116572D2*
X-400073D1*
X-7767922Y2378645D2*
X-7003968D1*
X-1112295D2*
X-395913D1*
X-7772023Y2348982D2*
X-7009241D1*
X-1107959D2*
X-391812D1*
X-7776183Y2319318D2*
X-7014572D1*
X-1103624D2*
X-387653D1*
X-7780343Y2289655D2*
X-7019845D1*
X-1099347D2*
X-383493D1*
X-7782159Y2259992D2*
X-7025118D1*
X-1095011D2*
X-381677D1*
X-7783741Y2230328D2*
X-7030391D1*
X-1090676D2*
X-380095D1*
X-7785323Y2200665D2*
X-7035722D1*
X-1086341D2*
X-378513D1*
X-7786905Y2171002D2*
X-7040995D1*
X-1082064D2*
X-376931D1*
X-7788486Y2141338D2*
X-7046268D1*
X-1077728D2*
X-375349D1*
X-7790068Y2111675D2*
X-7051600D1*
X-1073393D2*
X-373767D1*
X-7791650Y2082012D2*
X-7056872D1*
X-1069116D2*
X-372186D1*
X-7793232Y2052348D2*
X-7062145D1*
X-1064780D2*
X-370604D1*
X-7794814Y2022685D2*
X-7067477D1*
X-1060445D2*
X-369022D1*
X-7796396Y1993022D2*
X-7072750D1*
X-1056168D2*
X-367440D1*
X-7797450Y1963358D2*
X-7078022D1*
X-1051833D2*
X-366385D1*
X-7796513Y1933695D2*
X-7082768D1*
X-1050602D2*
X-367323D1*
X-7795517Y1904032D2*
X-7077847D1*
X-1054703D2*
X-368319D1*
X-7794580Y1874368D2*
X-7070875D1*
X-1058863D2*
X-369256D1*
X-7793642Y1844705D2*
X-7063961D1*
X-1062964D2*
X-370194D1*
X-7792646Y1815042D2*
X-7056990D1*
X-1067124D2*
X-371190D1*
X-7791709Y1785378D2*
X-7050076D1*
X-1071225D2*
X-372127D1*
X-7790771Y1755715D2*
X-7043104D1*
X-1075326D2*
X-373064D1*
X-7789775Y1726052D2*
X-7036191D1*
X-1077845D2*
X-374060D1*
X-7788838Y1696388D2*
X-7029219D1*
X-1083587D2*
X-374998D1*
X-7787901Y1666725D2*
X-7022247D1*
X-1087747D2*
X-375935D1*
X-7785674Y1637062D2*
X-7015334D1*
X-1091848D2*
X-378161D1*
X-7782159Y1607398D2*
X-7008362D1*
X-1095949D2*
X-381677D1*
X-7778644Y1577735D2*
X-7001449D1*
X-1100109D2*
X-385192D1*
X-7775129Y1548072D2*
X-6994477D1*
X-1104210D2*
X-388707D1*
X-7771613Y1518408D2*
X-6987564D1*
X-1108369D2*
X-392222D1*
X-7768098Y1488745D2*
X-6980592D1*
X-1112470D2*
X-395738D1*
X-7764583Y1459082D2*
X-6973620D1*
X-1116572D2*
X-399253D1*
X-7761068Y1429418D2*
X-6966707D1*
X-1120731D2*
X-402768D1*
X-7757611Y1399755D2*
X-6959735D1*
X-1124832D2*
X-406225D1*
X-7754096Y1370092D2*
X-6952821D1*
X-1128992D2*
X-409740D1*
X-7750580Y1340428D2*
X-6945850D1*
X-1133093D2*
X-413255D1*
X-7744839Y1310765D2*
X-6938936D1*
X-1137253D2*
X-418997D1*
X-7738687Y1281102D2*
X-6931964D1*
X-1141354D2*
X-425148D1*
X-7732594Y1251438D2*
X-6925051D1*
X-1145455D2*
X-431241D1*
X-7726501Y1221775D2*
X-6918079D1*
X-1149615D2*
X-437335D1*
X-7720349Y1192112D2*
X-6911107D1*
X-1153716D2*
X-443486D1*
X-7714256Y1162448D2*
X-6904194D1*
X-1157876D2*
X-449579D1*
X-7708163Y1132785D2*
X-6897222D1*
X-1161977D2*
X-455672D1*
X-7702070Y1103122D2*
X-6890309D1*
X-1166078D2*
X-461824D1*
X-7695919Y1073458D2*
X-6883337D1*
X-1170237D2*
X-467917D1*
X-7689826Y1043795D2*
X-6876424D1*
X-1174339D2*
X-474010D1*
X-7682736Y1014132D2*
X-6869452D1*
X-1178498D2*
X-481099D1*
X-7673890Y984468D2*
X-6862480D1*
X-1182599D2*
X-489946D1*
X-7665102Y954805D2*
X-6855567D1*
X-1186759D2*
X-498734D1*
X-7656314Y925142D2*
X-6848595D1*
X-1190860D2*
X-507522D1*
X-7647467Y895478D2*
X-6841681D1*
X-1194961D2*
X-516369D1*
X-7638679Y865815D2*
X-6834710D1*
X-1199121D2*
X-525157D1*
X-7629891Y836152D2*
X-6827796D1*
X-1203222D2*
X-533945D1*
X-7621044Y806488D2*
X-6820824D1*
X-1207382D2*
X-542792D1*
X-7612256Y776825D2*
X-6813853D1*
X-1211483D2*
X-551580D1*
X-7603409Y747162D2*
X-6806939D1*
X-1215584D2*
X-560426D1*
X-7594328Y717498D2*
X-6799967D1*
X-1220798D2*
X-569507D1*
X-7582728Y687835D2*
X-6793054D1*
X-1240073D2*
X-581108D1*
X-7571069Y658172D2*
X-6786082D1*
X-1263157D2*
X-592767D1*
X-7559410Y628508D2*
X-6772549D1*
X-1286240D2*
X-604425D1*
X-7547751Y598845D2*
X-6753625D1*
X-1309382D2*
X-616084D1*
X-7536093Y569182D2*
X-6734701D1*
X-1332466D2*
X-627743D1*
X-7524492Y539518D2*
X-6715836D1*
X-1355549D2*
X-639343D1*
X-7512833Y509855D2*
X-6696912D1*
X-1378632D2*
X-651002D1*
X-7501175Y480192D2*
X-6677989D1*
X-1401774D2*
X-662661D1*
X-7489516Y450528D2*
X-6659124D1*
X-1424858D2*
X-674320D1*
X-7477505Y420865D2*
X-6640200D1*
X-1447941D2*
X-686330D1*
X-7462800Y391202D2*
X-6621335D1*
X-1471083D2*
X-701036D1*
X-7448153Y361538D2*
X-6602411D1*
X-1494166D2*
X-715683D1*
X-7433448Y331875D2*
X-6583488D1*
X-1517250D2*
X-730388D1*
X-7418801Y302212D2*
X-6564622D1*
X-1540392D2*
X-745093D1*
X-7404096Y272548D2*
X-6545699D1*
X-1563475D2*
X-759740D1*
X-7389390Y242885D2*
X-6526834D1*
X-1586558D2*
X-774446D1*
X-7374743Y213222D2*
X-6507910D1*
X-1609642D2*
X-789092D1*
X-7360038Y183558D2*
X-6488986D1*
X-1632784D2*
X-803798D1*
X-7345333Y153895D2*
X-6470121D1*
X-1655867D2*
X-818503D1*
X-7328928Y124232D2*
X-6451198D1*
X-1678950D2*
X-834908D1*
X-7310942Y94568D2*
X-6432274D1*
X-1702092D2*
X-852894D1*
X-7292956Y64905D2*
X-6413409D1*
X-1725176D2*
X-870880D1*
X-7274969Y35242D2*
X-6394485D1*
X-1748259D2*
X-888866D1*
X-7256983Y5578D2*
X-6375620D1*
X-1771343D2*
X-906853D1*
X-7238997Y-24085D2*
X-6356696D1*
X-1794485D2*
X-924839D1*
X-7221010Y-53748D2*
X-6337773D1*
X-1799699D2*
X-942825D1*
X-7203024Y-83412D2*
X-6318908D1*
X-1799699D2*
X-960812D1*
X-7185038Y-113075D2*
X-6299984D1*
X-1799699D2*
X-978798D1*
X-7165704Y-142738D2*
X-6281119D1*
X-1799699D2*
X-998132D1*
X-7144085Y-172402D2*
X-6262195D1*
X-1799699D2*
X-1019750D1*
X-7122408Y-202065D2*
X-6243271D1*
X-1799699D2*
X-1041428D1*
X-7100789Y-231728D2*
X-6224406D1*
X-1799699D2*
X-1063046D1*
X-7079112Y-261392D2*
X-6205483D1*
X-1799757D2*
X-1084724D1*
X-7057435Y-291055D2*
X-6186559D1*
X-1806846D2*
X-1106401D1*
X-7035816Y-320718D2*
X-6167694D1*
X-1831746D2*
X-1128020D1*
X-7014139Y-350382D2*
X-6756964D1*
X-6582175D2*
X-6147833D1*
X-2106169D2*
X-1149697D1*
X-6992520Y-380045D2*
X-6791062D1*
X-6548077D2*
X-6102311D1*
X-2165225D2*
X-1171316D1*
X-6967914Y-409708D2*
X-6811099D1*
X-6527982D2*
X-6051691D1*
X-2204595D2*
X-1195922D1*
X-6942077Y-439372D2*
X-6822875D1*
X-6516206D2*
X-6001013D1*
X-2243907D2*
X-1221759D1*
X-6916240Y-469035D2*
X-6828265D1*
X-6510874D2*
X-5950335D1*
X-2283219D2*
X-1247596D1*
X-6890461Y-498698D2*
X-6827855D1*
X-6511285D2*
X-5899657D1*
X-2322590D2*
X-1273374D1*
X-6864624Y-528362D2*
X-6821645D1*
X-6517436D2*
X-5848979D1*
X-2361902D2*
X-1299211D1*
X-6838846Y-558025D2*
X-6808931D1*
X-6530208D2*
X-5798301D1*
X-2401214D2*
X-1324990D1*
X-6813009Y-587688D2*
X-6787430D1*
X-6551710D2*
X-5747623D1*
X-2440526D2*
X-1350827D1*
X-6787231Y-617352D2*
X-6750227D1*
X-6588913D2*
X-5696945D1*
X-2479897D2*
X-1376605D1*
X-6758347Y-647015D2*
X-5646267D1*
X-2519209D2*
X-1405489D1*
X-6727764Y-676678D2*
X-5595589D1*
X-2558521D2*
X-1436130D1*
X-6697123Y-706342D2*
X-5544912D1*
X-2597891D2*
X-1466712D1*
X-6666482Y-736005D2*
X-5494234D1*
X-2637203D2*
X-1497353D1*
X-6635841Y-765668D2*
X-5443556D1*
X-2676515D2*
X-1527995D1*
X-6605200Y-795332D2*
X-5392878D1*
X-2715827D2*
X-1558636D1*
X-6574559Y-824995D2*
X-5342200D1*
X-2755198D2*
X-1589277D1*
X-6542922Y-854658D2*
X-5291522D1*
X-2794510D2*
X-1620914D1*
X-6506480Y-884322D2*
X-5240844D1*
X-2833822D2*
X-1657355D1*
X-6470098Y-913985D2*
X-5190166D1*
X-2873193D2*
X-1693738D1*
X-6433715Y-943648D2*
X-5134625D1*
X-2942501D2*
X-1730121D1*
X-6397332Y-973312D2*
X-5013291D1*
X-3063777D2*
X-1766503D1*
X-6360891Y-1002975D2*
X-4891957D1*
X-3185053D2*
X-1802945D1*
X-6324508Y-1032638D2*
X-4770564D1*
X-3306328D2*
X-1839327D1*
X-6285196Y-1062302D2*
X-4649230D1*
X-3427604D2*
X-1878639D1*
X-6241666Y-1091965D2*
X-4527896D1*
X-3548879D2*
X-1922170D1*
X-6198194Y-1121628D2*
X-4406503D1*
X-3670155D2*
X-1965700D1*
X-6154664Y-1151292D2*
X-4285169D1*
X-3791372D2*
X-2009172D1*
X-6111134Y-1180955D2*
X-4163835D1*
X-3912648D2*
X-2052702D1*
X-6067603Y-1210618D2*
X-2096232D1*
X-6020675Y-1240282D2*
X-2143161D1*
X-5968005Y-1269945D2*
X-2195831D1*
X-5915335Y-1299608D2*
X-2248500D1*
X-5862665Y-1329272D2*
X-2301229D1*
X-5809937Y-1358935D2*
X-2353899D1*
X-5755802Y-1388598D2*
X-2408034D1*
X-5690653Y-1418262D2*
X-2473183D1*
X-5625563Y-1447925D2*
X-2538273D1*
X-5560414Y-1477588D2*
X-2603422D1*
X-5495265Y-1507252D2*
X-2668571D1*
X-5417754Y-1536915D2*
X-2746082D1*
X-5334443Y-1566578D2*
X-2829393D1*
X-5251073Y-1596242D2*
X-2912763D1*
X-5165126Y-1625905D2*
X-2998710D1*
X-5051994Y-1655568D2*
X-3111842D1*
X-4938862Y-1685232D2*
X-3224974D1*
X-4804052Y-1714895D2*
X-3359783D1*
X-4632216Y-1744558D2*
X-3531620D1*
X-4364941Y-1774222D2*
X-3798895D1*
X-3784184Y5804717D2*
X-3785191Y5789758D1*
X-3787627Y5774965D1*
X-3791471Y5760474D1*
X-3796686Y5746417D1*
X-3803224Y5732926D1*
X-3811026Y5720123D1*
X-3820019Y5708127D1*
X-3830121Y5697049D1*
X-3841239Y5686990D1*
X-3853269Y5678043D1*
X-3866102Y5670291D1*
X-3879619Y5663805D1*
X-3893696Y5658645D1*
X-3908202Y5654858D1*
X-3923005Y5652479D1*
X-3937967Y5651530D1*
X-3952952Y5652020D1*
X-3967820Y5653944D1*
X-3982436Y5657285D1*
X-3996664Y5662012D1*
X-4010373Y5668081D1*
X-4023437Y5675436D1*
X-4035736Y5684010D1*
X-4047157Y5693724D1*
X-4057593Y5704487D1*
X-4066950Y5716202D1*
X-4075140Y5728760D1*
X-4082089Y5742045D1*
X-4087732Y5755935D1*
X-4092018Y5770302D1*
X-4094906Y5785013D1*
X-4096371Y5799934D1*
X-4096398Y5814927D1*
X-4094988Y5829853D1*
X-4092154Y5844575D1*
X-4087921Y5858958D1*
X-4082329Y5872868D1*
X-4075429Y5886179D1*
X-4067285Y5898766D1*
X-4057971Y5910515D1*
X-4047574Y5921317D1*
X-4036190Y5931072D1*
X-4023922Y5939691D1*
X-4010885Y5947095D1*
X-3997198Y5953214D1*
X-3982987Y5957993D1*
X-3968384Y5961387D1*
X-3953523Y5963366D1*
X-3938540Y5963911D1*
X-3923574Y5963017D1*
X-3908763Y5960692D1*
X-3894243Y5956959D1*
X-3880147Y5951850D1*
X-3866607Y5945414D1*
X-3853746Y5937709D1*
X-3841682Y5928806D1*
X-3830528Y5918788D1*
X-3820385Y5907747D1*
X-3811348Y5895784D1*
X-3803499Y5883010D1*
X-3796911Y5869543D1*
X-3791645Y5855506D1*
X-3787748Y5841028D1*
X-3785258Y5826244D1*
X-3784196Y5811289D1*
X-3784184Y5804717D1*
X-995573Y4124213D2*
X-1000192Y4131747D1*
X-1003567Y4139895D1*
X-1005626Y4148471D1*
X-1006146Y4152871D1*
X-1065653Y4212682D1*
X-1139104Y4286462D1*
X-1146046Y4296016D1*
X-1151407Y4306538D1*
X-1155056Y4317769D1*
X-1156903Y4329432D1*
X-1157135Y4380332D1*
Y4416128D1*
X-1492851Y4752179D1*
X-1499792Y4761733D1*
X-1505153Y4772254D1*
X-1508803Y4783485D1*
X-1510650Y4795149D1*
X-1510882Y4846048D1*
Y5097563D1*
X-1520271Y5105983D1*
X-1532470Y5120266D1*
X-1542284Y5136282D1*
X-1549473Y5153636D1*
X-1553858Y5171901D1*
X-1555332Y5190627D1*
X-1553858Y5209353D1*
X-1549473Y5227618D1*
X-1542284Y5244972D1*
X-1532470Y5260987D1*
X-1520271Y5275271D1*
X-1505987Y5287470D1*
X-1489972Y5297284D1*
X-1472618Y5304473D1*
X-1454353Y5308858D1*
X-1435627Y5310332D1*
X-1416901Y5308858D1*
X-1398636Y5304473D1*
X-1381282Y5297284D1*
X-1365266Y5287470D1*
X-1350983Y5275271D1*
X-1338783Y5260987D1*
X-1328969Y5244972D1*
X-1321781Y5227618D1*
X-1317396Y5209353D1*
X-1315922Y5190627D1*
X-1317396Y5171901D1*
X-1321781Y5153636D1*
X-1328969Y5136282D1*
X-1338783Y5120266D1*
X-1350983Y5105983D1*
X-1360393Y5097625D1*
X-1360372Y4832249D1*
X-1024656Y4496181D1*
X-1017714Y4486627D1*
X-1012353Y4476106D1*
X-1008704Y4464875D1*
X-1006857Y4453211D1*
X-1006625Y4402312D1*
X-1006317Y4370482D1*
X-1006318Y4523651D1*
X-1223441Y4741132D1*
X-1230382Y4750686D1*
X-1235743Y4761208D1*
X-1239393Y4772439D1*
X-1241240Y4784102D1*
X-1241472Y4835002D1*
Y4913098D1*
X-1254254Y4924179D1*
X-1266453Y4938463D1*
X-1276268Y4954478D1*
X-1283456Y4971832D1*
X-1287841Y4990097D1*
X-1289315Y5008823D1*
X-1287841Y5027549D1*
X-1283456Y5045814D1*
X-1276268Y5063168D1*
X-1266453Y5079184D1*
X-1254254Y5093467D1*
X-1239971Y5105667D1*
X-1223955Y5115481D1*
X-1206601Y5122669D1*
X-1188336Y5127054D1*
X-1169610Y5128528D1*
X-1150884Y5127054D1*
X-1132619Y5122669D1*
X-1115265Y5115481D1*
X-1099249Y5105667D1*
X-1084966Y5093467D1*
X-1072767Y5079184D1*
X-1062952Y5063168D1*
X-1055764Y5045814D1*
X-1051379Y5027549D1*
X-1049905Y5008823D1*
X-1051379Y4990097D1*
X-1055764Y4971832D1*
X-1062952Y4954478D1*
X-1072767Y4938463D1*
X-1084966Y4924179D1*
X-1090978Y4918621D1*
X-1090961Y4821173D1*
X-1006318Y4736916D1*
Y4994338D1*
X-978957D1*
X-978959Y5108633D1*
X-988347Y5117119D1*
X-1000547Y5131403D1*
X-1010361Y5147418D1*
X-1017549Y5164772D1*
X-1021934Y5183037D1*
X-1023408Y5201763D1*
X-1021934Y5220489D1*
X-1017549Y5238754D1*
X-1010361Y5256108D1*
X-1000547Y5272124D1*
X-988347Y5286407D1*
X-974064Y5298607D1*
X-958048Y5308421D1*
X-940694Y5315609D1*
X-922429Y5319994D1*
X-903703Y5321468D1*
X-884977Y5319994D1*
X-866712Y5315609D1*
X-849358Y5308421D1*
X-833343Y5298607D1*
X-819059Y5286407D1*
X-806860Y5272124D1*
X-797046Y5256108D1*
X-789857Y5238754D1*
X-785472Y5220489D1*
X-783998Y5201763D1*
X-785472Y5183037D1*
X-789857Y5164772D1*
X-797046Y5147418D1*
X-806860Y5131403D1*
X-819059Y5117119D1*
X-828470Y5108761D1*
X-828448Y4994306D1*
X-797688Y4994338D1*
X-765786Y5035506D1*
X-697003Y5088027D1*
X-616970Y5120960D1*
X-539385Y5131196D1*
X-444665Y5137427D1*
X-358833Y5154512D1*
X-276006Y5182650D1*
X-197559Y5221353D1*
X-124832Y5269963D1*
X-59076Y5327652D1*
X-1407Y5393427D1*
X47185Y5466167D1*
X85867Y5544626D1*
X113979Y5627462D1*
X131039Y5713258D1*
X136498Y5796615D1*
X121171Y5781609D1*
X111231Y5773773D1*
X100706Y5766740D1*
X89662Y5760555D1*
X78167Y5755256D1*
X66292Y5750875D1*
X54109Y5747439D1*
X41695Y5744970D1*
X29125Y5743482D1*
X16477Y5742985D1*
X3829Y5743482D1*
X-8741Y5744970D1*
X-21156Y5747439D1*
X-33338Y5750875D1*
X-45214Y5755256D1*
X-56709Y5760555D1*
X-67753Y5766740D1*
X-78277Y5773773D1*
X-88218Y5781609D1*
X-97512Y5790201D1*
X-106104Y5799496D1*
X-113941Y5809436D1*
X-120973Y5819961D1*
X-127158Y5831005D1*
X-132457Y5842500D1*
X-136838Y5854375D1*
X-140274Y5866557D1*
X-142744Y5878972D1*
X-144231Y5891542D1*
X-144728Y5904190D1*
X-144231Y5916838D1*
X-142744Y5929408D1*
X-140274Y5941823D1*
X-136838Y5954005D1*
X-132457Y5965880D1*
X-127158Y5977375D1*
X-120973Y5988419D1*
X-113941Y5998944D1*
X-106104Y6008884D1*
X-97512Y6018179D1*
X-88218Y6026771D1*
X-78277Y6034607D1*
X-67753Y6041640D1*
X-56709Y6047825D1*
X-45214Y6053124D1*
X-33338Y6057505D1*
X-21156Y6060941D1*
X-8741Y6063410D1*
X3829Y6064898D1*
X16477Y6065395D1*
X29125Y6064898D1*
X41695Y6063410D1*
X54109Y6060941D1*
X66292Y6057505D1*
X78167Y6053124D1*
X89662Y6047825D1*
X100706Y6041640D1*
X111231Y6034607D1*
X121171Y6026771D1*
X130466Y6018179D1*
X136943Y6011172D1*
X136925Y8527799D1*
X131031Y8617725D1*
X113960Y8703559D1*
X85836Y8786403D1*
X47139Y8864868D1*
X-1470Y8937609D1*
X-59157Y9003386D1*
X-124937Y9061067D1*
X-197681Y9109673D1*
X-276149Y9148363D1*
X-358995Y9176482D1*
X-444804Y9193546D1*
X-534735Y9199435D1*
X-1801963Y9199854D1*
X-2894453Y9201117D1*
X-6141885Y9199657D1*
X-6128901Y9190004D1*
X-6115619Y9176722D1*
X-6104578Y9161526D1*
X-6096050Y9144789D1*
X-6090246Y9126925D1*
X-6087307Y9108372D1*
Y9089588D1*
X-6090246Y9071035D1*
X-6096050Y9053171D1*
X-6104578Y9036434D1*
X-6115619Y9021238D1*
X-6128901Y9007956D1*
X-6144098Y8996915D1*
X-6160834Y8988387D1*
X-6178699Y8982583D1*
X-6197251Y8979644D1*
X-6201764Y8979467D1*
X-6237537Y8943699D1*
X-6237072Y7720930D1*
X-6238451Y7712219D1*
X-6241177Y7703831D1*
X-6245181Y7695973D1*
X-6250365Y7688838D1*
X-6256601Y7682601D1*
X-6263736Y7677417D1*
X-6271595Y7673413D1*
X-6279983Y7670688D1*
X-6288694Y7669308D1*
X-6383093Y7669135D1*
X-6628398D1*
X-6618100Y7656834D1*
X-6608286Y7640818D1*
X-6601097Y7623464D1*
X-6596712Y7605199D1*
X-6595238Y7586473D1*
X-6596712Y7567747D1*
X-6601097Y7549482D1*
X-6608286Y7532128D1*
X-6618100Y7516113D1*
X-6630299Y7501829D1*
X-6644583Y7489630D1*
X-6660598Y7479816D1*
X-6677952Y7472627D1*
X-6696217Y7468242D1*
X-6708230Y7467032D1*
X-6708195Y7290795D1*
X-6839864D1*
X-6840626Y7063177D1*
X-6708195Y7063204D1*
Y6850795D1*
X-6841340D1*
X-6843926Y6087018D1*
X-6778476Y5575489D1*
X-6778501Y5481089D1*
X-6780688Y4516230D1*
X-6782068Y4507519D1*
X-6784793Y4499131D1*
X-6788797Y4491273D1*
X-6793981Y4484138D1*
X-6800218Y4477901D1*
X-6807353Y4472717D1*
X-6815211Y4468713D1*
X-6823599Y4465988D1*
X-6832310Y4464608D1*
X-6926710Y4464435D1*
X-7287964Y4464600D1*
X-7296677Y4465965D1*
X-7300943Y4467161D1*
X-7300939Y4176161D1*
X-7304028Y4078359D1*
X-7313318Y3979915D1*
X-7328743Y3882243D1*
X-7350245Y3785728D1*
X-7377737Y3690742D1*
X-7411114Y3597662D1*
X-7460360Y3482415D1*
X-7572325Y3213959D1*
X-7669155Y2911314D1*
X-7739797Y2601486D1*
X-7783735Y2286759D1*
X-7800641Y1969433D1*
X-7790397Y1651819D1*
X-7753072Y1336243D1*
X-7688946Y1025003D1*
X-7598482Y720372D1*
X-7482342Y424579D1*
X-7341358Y139753D1*
X-7176605Y-131946D1*
X-6989243Y-388611D1*
X-6780652Y-628347D1*
X-6552355Y-849395D1*
X-6306023Y-1050153D1*
X-6043448Y-1229144D1*
X-5766552Y-1385066D1*
X-5477357Y-1516779D1*
X-5177973Y-1623326D1*
X-4870587Y-1703922D1*
X-4557442Y-1757982D1*
X-4240823Y-1785114D1*
X-3923046Y-1785115D1*
X-3606427Y-1757989D1*
X-3293284Y-1703928D1*
X-2985895Y-1623335D1*
X-2686510Y-1516793D1*
X-2397314Y-1385079D1*
X-2120417Y-1229159D1*
X-1857843Y-1050170D1*
X-1611482Y-849397D1*
X-1383211Y-628368D1*
X-1174615Y-388636D1*
X-987251Y-131973D1*
X-822482Y139752D1*
X-681509Y424549D1*
X-565367Y720341D1*
X-474901Y1024971D1*
X-410769Y1336211D1*
X-373445Y1651787D1*
X-363195Y1969401D1*
X-380099Y2286727D1*
X-424034Y2601453D1*
X-494674Y2911280D1*
X-591509Y3213945D1*
X-726815Y3537493D1*
X-753067Y3598535D1*
X-786388Y3691634D1*
X-813827Y3786633D1*
X-835272Y3883161D1*
X-844530Y3941336D1*
X-862112Y3941058D1*
X-956101Y3941378D1*
X-964934Y3943048D1*
X-973388Y3946104D1*
X-981247Y3950469D1*
X-988309Y3956031D1*
X-994394Y3962648D1*
X-999346Y3970150D1*
X-1003039Y3978346D1*
X-1005378Y3987025D1*
X-1006303Y3995979D1*
X-1006122Y4091961D1*
X-1004656Y4100830D1*
X-1001796Y4109352D1*
X-997613Y4117309D1*
X-994134Y4122208D1*
X-1632561Y8644033D2*
X-1633947Y8632323D1*
X-1636248Y8620757D1*
X-1639449Y8609407D1*
X-1643531Y8598343D1*
X-1648468Y8587634D1*
X-1654230Y8577345D1*
X-1660781Y8567540D1*
X-1668082Y8558279D1*
X-1676087Y8549620D1*
X-1684746Y8541615D1*
X-1694007Y8534315D1*
X-1703812Y8527763D1*
X-1714101Y8522001D1*
X-1724810Y8517064D1*
X-1735874Y8512982D1*
X-1747223Y8509781D1*
X-1758789Y8507481D1*
X-1770500Y8506095D1*
X-1782283Y8505632D1*
X-1794067Y8506095D1*
X-1805777Y8507481D1*
X-1817343Y8509781D1*
X-1828693Y8512982D1*
X-1839757Y8517064D1*
X-1850466Y8522001D1*
X-1860755Y8527763D1*
X-1870560Y8534315D1*
X-1879821Y8541615D1*
X-1888480Y8549620D1*
X-1901361Y8564465D1*
X-1908230Y8551945D1*
X-1914781Y8542140D1*
X-1922082Y8532879D1*
X-1930087Y8524220D1*
X-1938746Y8516215D1*
X-1948007Y8508915D1*
X-1957812Y8502363D1*
X-1968101Y8496601D1*
X-1978810Y8491664D1*
X-1989874Y8487582D1*
X-2001223Y8484381D1*
X-2012789Y8482081D1*
X-2024500Y8480695D1*
X-2036283Y8480232D1*
X-2048067Y8480695D1*
X-2059777Y8482081D1*
X-2071343Y8484381D1*
X-2082693Y8487582D1*
X-2093757Y8491664D1*
X-2104466Y8496601D1*
X-2114755Y8502363D1*
X-2124560Y8508915D1*
X-2133821Y8516215D1*
X-2142480Y8524220D1*
X-2150485Y8532879D1*
X-2157785Y8542140D1*
X-2164337Y8551945D1*
X-2171121Y8564451D1*
X-2184087Y8549620D1*
X-2192746Y8541615D1*
X-2202007Y8534315D1*
X-2211812Y8527763D1*
X-2222101Y8522001D1*
X-2232810Y8517064D1*
X-2243874Y8512982D1*
X-2255223Y8509781D1*
X-2266789Y8507481D1*
X-2278500Y8506095D1*
X-2290283Y8505632D1*
X-2302067Y8506095D1*
X-2313777Y8507481D1*
X-2325343Y8509781D1*
X-2336693Y8512982D1*
X-2347757Y8517064D1*
X-2358466Y8522001D1*
X-2368755Y8527763D1*
X-2378560Y8534315D1*
X-2387821Y8541615D1*
X-2396480Y8549620D1*
X-2409361Y8564465D1*
X-2416979Y8550736D1*
X-2425557Y8538441D1*
X-2435318Y8527062D1*
X-2446166Y8516713D1*
X-2457991Y8507498D1*
X-2470676Y8499507D1*
X-2484094Y8492820D1*
X-2498113Y8487505D1*
X-2512591Y8483614D1*
X-2527385Y8481185D1*
X-2542348Y8480244D1*
X-2557329Y8480800D1*
X-2572181Y8482846D1*
X-2586755Y8486362D1*
X-2600906Y8491314D1*
X-2614492Y8497653D1*
X-2627379Y8505314D1*
X-2639437Y8514222D1*
X-2650548Y8524288D1*
X-2660599Y8535411D1*
X-2669492Y8547481D1*
X-2677137Y8560378D1*
X-2679153Y8564360D1*
X-2692087Y8549620D1*
X-2700746Y8541615D1*
X-2710007Y8534315D1*
X-2718318Y8528761D1*
X-2718281Y7760603D1*
X-2708893Y7752177D1*
X-2696693Y7737894D1*
X-2686879Y7721878D1*
X-2679691Y7704524D1*
X-2675306Y7686259D1*
X-2673832Y7667533D1*
X-2675306Y7648807D1*
X-2679691Y7630542D1*
X-2686879Y7613188D1*
X-2696693Y7597173D1*
X-2708893Y7582889D1*
X-2723176Y7570690D1*
X-2739192Y7560876D1*
X-2756546Y7553687D1*
X-2774811Y7549302D1*
X-2793537Y7547828D1*
X-2812263Y7549302D1*
X-2830528Y7553687D1*
X-2847882Y7560876D1*
X-2863897Y7570690D1*
X-2878181Y7582889D1*
X-2890380Y7597173D1*
X-2900194Y7613188D1*
X-2907383Y7630542D1*
X-2911768Y7648807D1*
X-2913242Y7667533D1*
X-2911768Y7686259D1*
X-2907383Y7704524D1*
X-2900194Y7721878D1*
X-2890380Y7737894D1*
X-2878181Y7752177D1*
X-2868770Y7760535D1*
X-2868792Y8523200D1*
X-2886560Y8534315D1*
X-2895821Y8541615D1*
X-2904480Y8549620D1*
X-2917361Y8564465D1*
X-2924230Y8551945D1*
X-2930781Y8542140D1*
X-2938082Y8532879D1*
X-2946087Y8524220D1*
X-2954746Y8516215D1*
X-2964007Y8508915D1*
X-2973812Y8502363D1*
X-2984101Y8496601D1*
X-2994810Y8491664D1*
X-3005874Y8487582D1*
X-3017223Y8484381D1*
X-3028789Y8482081D1*
X-3040500Y8480695D1*
X-3052283Y8480232D1*
X-3064067Y8480695D1*
X-3075777Y8482081D1*
X-3087343Y8484381D1*
X-3098693Y8487582D1*
X-3109757Y8491664D1*
X-3120466Y8496601D1*
X-3130755Y8502363D1*
X-3140560Y8508915D1*
X-3149821Y8516215D1*
X-3158480Y8524220D1*
X-3166485Y8532879D1*
X-3173785Y8542140D1*
X-3180337Y8551945D1*
X-3186099Y8562234D1*
X-3191036Y8572943D1*
X-3195118Y8584007D1*
X-3198319Y8595357D1*
X-3200619Y8606923D1*
X-3202005Y8618633D1*
X-3202468Y8630417D1*
X-3202005Y8642200D1*
X-3200619Y8653911D1*
X-3198319Y8665477D1*
X-3195118Y8676826D1*
X-3191036Y8687890D1*
X-3186099Y8698599D1*
X-3180337Y8708888D1*
X-3173785Y8718693D1*
X-3166485Y8727954D1*
X-3158480Y8736613D1*
X-3149821Y8744618D1*
X-3140560Y8751919D1*
X-3130755Y8758470D1*
X-3120466Y8764232D1*
X-3109757Y8769169D1*
X-3098693Y8773251D1*
X-3087343Y8776452D1*
X-3075777Y8778753D1*
X-3064067Y8780139D1*
X-3052283Y8780602D1*
X-3040500Y8780139D1*
X-3028789Y8778753D1*
X-3017223Y8776452D1*
X-3005874Y8773251D1*
X-2994810Y8769169D1*
X-2984101Y8764232D1*
X-2973812Y8758470D1*
X-2964007Y8751919D1*
X-2954746Y8744618D1*
X-2946087Y8736613D1*
X-2933205Y8721768D1*
X-2926337Y8734288D1*
X-2919785Y8744093D1*
X-2912485Y8753354D1*
X-2904480Y8762013D1*
X-2895821Y8770018D1*
X-2886560Y8777319D1*
X-2876755Y8783870D1*
X-2866466Y8789632D1*
X-2855757Y8794569D1*
X-2844693Y8798651D1*
X-2833343Y8801852D1*
X-2821777Y8804153D1*
X-2810067Y8805539D1*
X-2798283Y8806002D1*
X-2786500Y8805539D1*
X-2774789Y8804153D1*
X-2763223Y8801852D1*
X-2751874Y8798651D1*
X-2740810Y8794569D1*
X-2730101Y8789632D1*
X-2719812Y8783870D1*
X-2710007Y8777319D1*
X-2700746Y8770018D1*
X-2692087Y8762013D1*
X-2684082Y8753354D1*
X-2676781Y8744093D1*
X-2670230Y8734288D1*
X-2663446Y8721782D1*
X-2653846Y8733137D1*
X-2643059Y8743548D1*
X-2631288Y8752833D1*
X-2618650Y8760897D1*
X-2605270Y8767661D1*
X-2591283Y8773058D1*
X-2576828Y8777033D1*
X-2562048Y8779547D1*
X-2547091Y8780575D1*
X-2532106Y8780107D1*
X-2517243Y8778147D1*
X-2502649Y8774715D1*
X-2488470Y8769845D1*
X-2474847Y8763586D1*
X-2461916Y8756000D1*
X-2449806Y8747162D1*
X-2438637Y8737161D1*
X-2428521Y8726096D1*
X-2425159Y8721868D1*
X-2418337Y8734288D1*
X-2411785Y8744093D1*
X-2404485Y8753354D1*
X-2396480Y8762013D1*
X-2387821Y8770018D1*
X-2378560Y8777319D1*
X-2368755Y8783870D1*
X-2358466Y8789632D1*
X-2347757Y8794569D1*
X-2336693Y8798651D1*
X-2325343Y8801852D1*
X-2313777Y8804153D1*
X-2302067Y8805539D1*
X-2290283Y8806002D1*
X-2278500Y8805539D1*
X-2266789Y8804153D1*
X-2255223Y8801852D1*
X-2243874Y8798651D1*
X-2232810Y8794569D1*
X-2222101Y8789632D1*
X-2211812Y8783870D1*
X-2202007Y8777319D1*
X-2192746Y8770018D1*
X-2184087Y8762013D1*
X-2176082Y8753354D1*
X-2168781Y8744093D1*
X-2162230Y8734288D1*
X-2155446Y8721782D1*
X-2142480Y8736613D1*
X-2133821Y8744618D1*
X-2124560Y8751919D1*
X-2114755Y8758470D1*
X-2104466Y8764232D1*
X-2093757Y8769169D1*
X-2082693Y8773251D1*
X-2071343Y8776452D1*
X-2059777Y8778753D1*
X-2048067Y8780139D1*
X-2036283Y8780602D1*
X-2024500Y8780139D1*
X-2012789Y8778753D1*
X-2001223Y8776452D1*
X-1989874Y8773251D1*
X-1978810Y8769169D1*
X-1968101Y8764232D1*
X-1957812Y8758470D1*
X-1948007Y8751919D1*
X-1938746Y8744618D1*
X-1930087Y8736613D1*
X-1917205Y8721768D1*
X-1910337Y8734288D1*
X-1903785Y8744093D1*
X-1896485Y8753354D1*
X-1888480Y8762013D1*
X-1879821Y8770018D1*
X-1870560Y8777319D1*
X-1860755Y8783870D1*
X-1850466Y8789632D1*
X-1839757Y8794569D1*
X-1828693Y8798651D1*
X-1817343Y8801852D1*
X-1805777Y8804153D1*
X-1794067Y8805539D1*
X-1782283Y8806002D1*
X-1770500Y8805539D1*
X-1758789Y8804153D1*
X-1747223Y8801852D1*
X-1735874Y8798651D1*
X-1724810Y8794569D1*
X-1714101Y8789632D1*
X-1703812Y8783870D1*
X-1694007Y8777319D1*
X-1684746Y8770018D1*
X-1676087Y8762013D1*
X-1668082Y8753354D1*
X-1660781Y8744093D1*
X-1654230Y8734288D1*
X-1648468Y8723999D1*
X-1643531Y8713290D1*
X-1639449Y8702226D1*
X-1636248Y8690877D1*
X-1633947Y8679311D1*
X-1632561Y8667600D1*
X-1632098Y8655817D1*
X-1632561Y8644033D1*
X-652815Y5896369D2*
X-654303Y5883799D1*
X-656773Y5871384D1*
X-660208Y5859202D1*
X-664589Y5847326D1*
X-669889Y5835831D1*
X-676074Y5824787D1*
X-683106Y5814263D1*
X-690942Y5804322D1*
X-699534Y5795028D1*
X-708829Y5786436D1*
X-718769Y5778599D1*
X-729294Y5771567D1*
X-740338Y5765382D1*
X-751833Y5760083D1*
X-763708Y5755702D1*
X-775891Y5752266D1*
X-788305Y5749796D1*
X-800875Y5748309D1*
X-813523Y5747812D1*
X-826171Y5748309D1*
X-838741Y5749796D1*
X-851156Y5752266D1*
X-863338Y5755702D1*
X-875214Y5760083D1*
X-886709Y5765382D1*
X-897753Y5771567D1*
X-908277Y5778599D1*
X-918218Y5786436D1*
X-927512Y5795028D1*
X-936104Y5804322D1*
X-943941Y5814263D1*
X-950973Y5824787D1*
X-957158Y5835831D1*
X-962457Y5847326D1*
X-966838Y5859202D1*
X-970274Y5871384D1*
X-972744Y5883799D1*
X-974231Y5896369D1*
X-974728Y5909017D1*
X-974231Y5921665D1*
X-972744Y5934235D1*
X-970274Y5946649D1*
X-966838Y5958832D1*
X-962457Y5970707D1*
X-957158Y5982202D1*
X-950973Y5993246D1*
X-943941Y6003771D1*
X-936104Y6013711D1*
X-927512Y6023006D1*
X-918218Y6031598D1*
X-908277Y6039434D1*
X-897753Y6046466D1*
X-886709Y6052651D1*
X-875214Y6057951D1*
X-863338Y6062332D1*
X-851156Y6065767D1*
X-838741Y6068237D1*
X-826171Y6069725D1*
X-813523Y6070222D1*
X-800875Y6069725D1*
X-788305Y6068237D1*
X-775891Y6065767D1*
X-763708Y6062332D1*
X-751833Y6057951D1*
X-740338Y6052651D1*
X-729294Y6046466D1*
X-718769Y6039434D1*
X-708829Y6031598D1*
X-699534Y6023006D1*
X-690942Y6013711D1*
X-683106Y6003771D1*
X-676074Y5993246D1*
X-669889Y5982202D1*
X-664589Y5970707D1*
X-660208Y5958832D1*
X-656773Y5946649D1*
X-654303Y5934235D1*
X-652815Y5921665D1*
X-652318Y5909017D1*
X-652815Y5896369D1*
X-922815Y6446542D2*
X-924303Y6433972D1*
X-926773Y6421557D1*
X-930208Y6409375D1*
X-934589Y6397500D1*
X-939889Y6386005D1*
X-946074Y6374961D1*
X-953106Y6364436D1*
X-960942Y6354496D1*
X-969534Y6345201D1*
X-978829Y6336609D1*
X-988769Y6328773D1*
X-999294Y6321740D1*
X-1010338Y6315555D1*
X-1021833Y6310256D1*
X-1033708Y6305875D1*
X-1045891Y6302439D1*
X-1058305Y6299970D1*
X-1070875Y6298482D1*
X-1083523Y6297985D1*
X-1096171Y6298482D1*
X-1108741Y6299970D1*
X-1121156Y6302439D1*
X-1133338Y6305875D1*
X-1145214Y6310256D1*
X-1156709Y6315555D1*
X-1167753Y6321740D1*
X-1178277Y6328773D1*
X-1188218Y6336609D1*
X-1197512Y6345201D1*
X-1206104Y6354496D1*
X-1213941Y6364436D1*
X-1220973Y6374961D1*
X-1227158Y6386005D1*
X-1232457Y6397500D1*
X-1236838Y6409375D1*
X-1240274Y6421557D1*
X-1242744Y6433972D1*
X-1244231Y6446542D1*
X-1244728Y6459190D1*
X-1244231Y6471838D1*
X-1242744Y6484408D1*
X-1240274Y6496823D1*
X-1236838Y6509005D1*
X-1232457Y6520880D1*
X-1227158Y6532375D1*
X-1220973Y6543419D1*
X-1213941Y6553944D1*
X-1206104Y6563884D1*
X-1197512Y6573179D1*
X-1188218Y6581771D1*
X-1178277Y6589607D1*
X-1167753Y6596640D1*
X-1156709Y6602825D1*
X-1145214Y6608124D1*
X-1133338Y6612505D1*
X-1121156Y6615941D1*
X-1108741Y6618410D1*
X-1096171Y6619898D1*
X-1083523Y6620395D1*
X-1070875Y6619898D1*
X-1058305Y6618410D1*
X-1045891Y6615941D1*
X-1033708Y6612505D1*
X-1021833Y6608124D1*
X-1010338Y6602825D1*
X-999294Y6596640D1*
X-988769Y6589607D1*
X-978829Y6581771D1*
X-969534Y6573179D1*
X-960942Y6563884D1*
X-953106Y6553944D1*
X-946074Y6543419D1*
X-939889Y6532375D1*
X-934589Y6520880D1*
X-930208Y6509005D1*
X-926773Y6496823D1*
X-924303Y6484408D1*
X-922815Y6471838D1*
X-922318Y6459190D1*
X-922815Y6446542D1*
X107185Y7046369D2*
X105697Y7033799D1*
X103227Y7021384D1*
X99792Y7009202D1*
X95411Y6997326D1*
X90111Y6985831D1*
X83926Y6974787D1*
X76894Y6964263D1*
X69058Y6954322D1*
X60466Y6945028D1*
X51171Y6936436D1*
X41231Y6928599D1*
X30706Y6921567D1*
X19662Y6915382D1*
X8167Y6910083D1*
X-3708Y6905702D1*
X-15891Y6902266D1*
X-28305Y6899796D1*
X-40875Y6898309D1*
X-53523Y6897812D1*
X-66171Y6898309D1*
X-78741Y6899796D1*
X-91156Y6902266D1*
X-103338Y6905702D1*
X-115214Y6910083D1*
X-126709Y6915382D1*
X-137753Y6921567D1*
X-148277Y6928599D1*
X-158218Y6936436D1*
X-167512Y6945028D1*
X-176104Y6954322D1*
X-183941Y6964263D1*
X-190973Y6974787D1*
X-197158Y6985831D1*
X-202457Y6997326D1*
X-206838Y7009202D1*
X-210274Y7021384D1*
X-212744Y7033799D1*
X-214231Y7046369D1*
X-214728Y7059017D1*
X-214231Y7071665D1*
X-212744Y7084235D1*
X-210274Y7096649D1*
X-206838Y7108832D1*
X-202457Y7120707D1*
X-197158Y7132202D1*
X-190973Y7143246D1*
X-183941Y7153771D1*
X-176104Y7163711D1*
X-167512Y7173006D1*
X-158218Y7181598D1*
X-148277Y7189434D1*
X-137753Y7196466D1*
X-126709Y7202651D1*
X-115214Y7207951D1*
X-103338Y7212332D1*
X-91156Y7215767D1*
X-78741Y7218237D1*
X-66171Y7219725D1*
X-53523Y7220222D1*
X-40875Y7219725D1*
X-28305Y7218237D1*
X-15891Y7215767D1*
X-3708Y7212332D1*
X8167Y7207951D1*
X19662Y7202651D1*
X30706Y7196466D1*
X41231Y7189434D1*
X51171Y7181598D1*
X60466Y7173006D1*
X69058Y7163711D1*
X76894Y7153771D1*
X83926Y7143246D1*
X90111Y7132202D1*
X95411Y7120707D1*
X99792Y7108832D1*
X103227Y7096649D1*
X105697Y7084235D1*
X107185Y7071665D1*
X107682Y7059017D1*
X107185Y7046369D1*
X-652815Y7006369D2*
X-654303Y6993799D1*
X-656773Y6981384D1*
X-660208Y6969202D1*
X-664589Y6957326D1*
X-669889Y6945831D1*
X-676074Y6934787D1*
X-683106Y6924263D1*
X-690942Y6914322D1*
X-699534Y6905028D1*
X-708829Y6896436D1*
X-718769Y6888599D1*
X-729294Y6881567D1*
X-740338Y6875382D1*
X-751833Y6870083D1*
X-763708Y6865702D1*
X-775891Y6862266D1*
X-788305Y6859796D1*
X-800875Y6858309D1*
X-813523Y6857812D1*
X-826171Y6858309D1*
X-838741Y6859796D1*
X-851156Y6862266D1*
X-863338Y6865702D1*
X-875214Y6870083D1*
X-886709Y6875382D1*
X-897753Y6881567D1*
X-908277Y6888599D1*
X-918218Y6896436D1*
X-927512Y6905028D1*
X-936104Y6914322D1*
X-943941Y6924263D1*
X-950973Y6934787D1*
X-957158Y6945831D1*
X-962457Y6957326D1*
X-966838Y6969202D1*
X-970274Y6981384D1*
X-972744Y6993799D1*
X-974231Y7006369D1*
X-974728Y7019017D1*
X-974231Y7031665D1*
X-972744Y7044235D1*
X-970274Y7056649D1*
X-966838Y7068832D1*
X-962457Y7080707D1*
X-957158Y7092202D1*
X-950973Y7103246D1*
X-943941Y7113771D1*
X-936104Y7123711D1*
X-927512Y7133006D1*
X-918218Y7141598D1*
X-908277Y7149434D1*
X-897753Y7156466D1*
X-886709Y7162651D1*
X-875214Y7167951D1*
X-863338Y7172332D1*
X-851156Y7175767D1*
X-838741Y7178237D1*
X-826171Y7179725D1*
X-813523Y7180222D1*
X-800875Y7179725D1*
X-788305Y7178237D1*
X-775891Y7175767D1*
X-763708Y7172332D1*
X-751833Y7167951D1*
X-740338Y7162651D1*
X-729294Y7156466D1*
X-718769Y7149434D1*
X-708829Y7141598D1*
X-699534Y7133006D1*
X-690942Y7123711D1*
X-683106Y7113771D1*
X-676074Y7103246D1*
X-669889Y7092202D1*
X-664589Y7080707D1*
X-660208Y7068832D1*
X-656773Y7056649D1*
X-654303Y7044235D1*
X-652815Y7031665D1*
X-652318Y7019017D1*
X-652815Y7006369D1*
X-227846Y5890584D2*
X-229426Y5877234D1*
X-232049Y5864050D1*
X-235698Y5851111D1*
X-240351Y5838499D1*
X-245979Y5826291D1*
X-252547Y5814562D1*
X-260016Y5803385D1*
X-268338Y5792828D1*
X-277463Y5782957D1*
X-287335Y5773831D1*
X-297892Y5765509D1*
X-309069Y5758041D1*
X-320798Y5751472D1*
X-333006Y5745844D1*
X-345618Y5741191D1*
X-358556Y5737542D1*
X-371741Y5734920D1*
X-385091Y5733340D1*
X-398523Y5732812D1*
X-411956Y5733340D1*
X-425306Y5734920D1*
X-438490Y5737542D1*
X-451429Y5741191D1*
X-464041Y5745844D1*
X-476249Y5751472D1*
X-487978Y5758041D1*
X-499155Y5765509D1*
X-509712Y5773831D1*
X-519583Y5782957D1*
X-528709Y5792828D1*
X-537031Y5803385D1*
X-544499Y5814562D1*
X-551068Y5826291D1*
X-556696Y5838499D1*
X-561349Y5851111D1*
X-564998Y5864050D1*
X-567620Y5877234D1*
X-569200Y5890584D1*
X-569728Y5904017D1*
X-569200Y5917449D1*
X-567620Y5930799D1*
X-564998Y5943984D1*
X-561349Y5956922D1*
X-556696Y5969534D1*
X-551068Y5981742D1*
X-544499Y5993471D1*
X-537031Y6004648D1*
X-528709Y6015205D1*
X-519583Y6025077D1*
X-509712Y6034202D1*
X-499155Y6042524D1*
X-487978Y6049993D1*
X-476249Y6056561D1*
X-464041Y6062189D1*
X-451429Y6066842D1*
X-438490Y6070491D1*
X-425306Y6073114D1*
X-411956Y6074694D1*
X-398523Y6075222D1*
X-385091Y6074694D1*
X-371741Y6073114D1*
X-358556Y6070491D1*
X-345618Y6066842D1*
X-333006Y6062189D1*
X-320798Y6056561D1*
X-309069Y6049993D1*
X-297892Y6042524D1*
X-287335Y6034202D1*
X-277463Y6025077D1*
X-268338Y6015205D1*
X-260016Y6004648D1*
X-252547Y5993471D1*
X-245979Y5981742D1*
X-240351Y5969534D1*
X-235698Y5956922D1*
X-232049Y5943984D1*
X-229426Y5930799D1*
X-227846Y5917449D1*
X-227318Y5904017D1*
X-227846Y5890584D1*
Y7005584D2*
X-229426Y6992234D1*
X-232049Y6979050D1*
X-235698Y6966111D1*
X-240351Y6953499D1*
X-245979Y6941291D1*
X-252547Y6929562D1*
X-260016Y6918385D1*
X-268338Y6907828D1*
X-277463Y6897957D1*
X-287335Y6888831D1*
X-297892Y6880509D1*
X-309069Y6873041D1*
X-320798Y6866472D1*
X-333006Y6860844D1*
X-345618Y6856191D1*
X-358556Y6852542D1*
X-371741Y6849920D1*
X-385091Y6848340D1*
X-398523Y6847812D1*
X-411956Y6848340D1*
X-425306Y6849920D1*
X-438490Y6852542D1*
X-451429Y6856191D1*
X-464041Y6860844D1*
X-476249Y6866472D1*
X-487978Y6873041D1*
X-499155Y6880509D1*
X-509712Y6888831D1*
X-519583Y6897957D1*
X-528709Y6907828D1*
X-537031Y6918385D1*
X-544499Y6929562D1*
X-551068Y6941291D1*
X-556696Y6953499D1*
X-561349Y6966111D1*
X-564998Y6979050D1*
X-567620Y6992234D1*
X-569200Y7005584D1*
X-569728Y7019017D1*
X-569200Y7032449D1*
X-567620Y7045799D1*
X-564998Y7058984D1*
X-561349Y7071922D1*
X-556696Y7084534D1*
X-551068Y7096742D1*
X-544499Y7108471D1*
X-537031Y7119648D1*
X-528709Y7130205D1*
X-519583Y7140077D1*
X-509712Y7149202D1*
X-499155Y7157524D1*
X-487978Y7164993D1*
X-476249Y7171561D1*
X-464041Y7177189D1*
X-451429Y7181842D1*
X-438490Y7185491D1*
X-425306Y7188114D1*
X-411956Y7189694D1*
X-398523Y7190222D1*
X-385091Y7189694D1*
X-371741Y7188114D1*
X-358556Y7185491D1*
X-345618Y7181842D1*
X-333006Y7177189D1*
X-320798Y7171561D1*
X-309069Y7164993D1*
X-297892Y7157524D1*
X-287335Y7149202D1*
X-277463Y7140077D1*
X-268338Y7130205D1*
X-260016Y7119648D1*
X-252547Y7108471D1*
X-245979Y7096742D1*
X-240351Y7084534D1*
X-235698Y7071922D1*
X-232049Y7058984D1*
X-229426Y7045799D1*
X-227846Y7032449D1*
X-227318Y7019017D1*
X-227846Y7005584D1*
X-2414397Y6917231D2*
X-2415838Y6905051D1*
X-2418231Y6893021D1*
X-2421560Y6881217D1*
X-2425806Y6869710D1*
X-2430940Y6858571D1*
X-2436933Y6847870D1*
X-2443748Y6837672D1*
X-2451341Y6828040D1*
X-2459666Y6819033D1*
X-2468673Y6810708D1*
X-2478305Y6803114D1*
X-2488503Y6796300D1*
X-2499204Y6790307D1*
X-2510343Y6785172D1*
X-2521850Y6780927D1*
X-2533655Y6777598D1*
X-2545684Y6775205D1*
X-2557864Y6773763D1*
X-2570120Y6773282D1*
X-2582376Y6773763D1*
X-2594556Y6775205D1*
X-2606585Y6777598D1*
X-2618390Y6780927D1*
X-2629897Y6785172D1*
X-2641036Y6790307D1*
X-2651737Y6796300D1*
X-2661935Y6803114D1*
X-2671567Y6810708D1*
X-2680574Y6819033D1*
X-2688899Y6828040D1*
X-2696492Y6837672D1*
X-2703307Y6847870D1*
X-2709300Y6858571D1*
X-2714434Y6869710D1*
X-2718680Y6881217D1*
X-2722009Y6893021D1*
X-2724402Y6905051D1*
X-2725843Y6917231D1*
X-2726325Y6929487D1*
X-2725843Y6941742D1*
X-2724402Y6953922D1*
X-2722009Y6965952D1*
X-2718680Y6977757D1*
X-2714434Y6989264D1*
X-2709300Y7000402D1*
X-2703307Y7011103D1*
X-2696492Y7021302D1*
X-2688899Y7030934D1*
X-2680574Y7039940D1*
X-2671567Y7048266D1*
X-2661935Y7055859D1*
X-2651737Y7062673D1*
X-2641036Y7068666D1*
X-2629897Y7073801D1*
X-2618390Y7078046D1*
X-2606585Y7081376D1*
X-2594556Y7083768D1*
X-2582376Y7085210D1*
X-2570120Y7085692D1*
X-2557864Y7085210D1*
X-2545684Y7083768D1*
X-2533655Y7081376D1*
X-2521850Y7078046D1*
X-2510343Y7073801D1*
X-2499204Y7068666D1*
X-2488503Y7062673D1*
X-2478305Y7055859D1*
X-2468673Y7048266D1*
X-2459666Y7039940D1*
X-2451341Y7030934D1*
X-2443748Y7021302D1*
X-2436933Y7011103D1*
X-2430940Y7000402D1*
X-2425806Y6989264D1*
X-2421560Y6977757D1*
X-2418231Y6965952D1*
X-2415838Y6953922D1*
X-2414397Y6941742D1*
X-2413915Y6929487D1*
X-2414397Y6917231D1*
X-4890884Y8523671D2*
X-4891891Y8508712D1*
X-4894327Y8493919D1*
X-4898171Y8479427D1*
X-4903386Y8465371D1*
X-4909924Y8451879D1*
X-4917726Y8439076D1*
X-4926719Y8427081D1*
X-4936821Y8416002D1*
X-4947939Y8405943D1*
X-4959969Y8396997D1*
X-4972802Y8389245D1*
X-4986319Y8382759D1*
X-5000396Y8377598D1*
X-5014902Y8373811D1*
X-5029705Y8371432D1*
X-5044667Y8370483D1*
X-5059652Y8370973D1*
X-5074520Y8372898D1*
X-5089136Y8376239D1*
X-5103364Y8380965D1*
X-5117073Y8387034D1*
X-5130137Y8394390D1*
X-5142436Y8402963D1*
X-5153857Y8412677D1*
X-5164293Y8423441D1*
X-5173650Y8435155D1*
X-5181840Y8447713D1*
X-5188789Y8460998D1*
X-5194432Y8474888D1*
X-5198718Y8489255D1*
X-5201606Y8503967D1*
X-5203071Y8518887D1*
X-5203098Y8533880D1*
X-5201688Y8548806D1*
X-5198854Y8563528D1*
X-5194621Y8577911D1*
X-5189029Y8591822D1*
X-5182129Y8605132D1*
X-5173985Y8617720D1*
X-5164671Y8629469D1*
X-5154274Y8640270D1*
X-5142890Y8650026D1*
X-5130622Y8658645D1*
X-5117585Y8666048D1*
X-5103898Y8672167D1*
X-5089687Y8676946D1*
X-5075084Y8680340D1*
X-5060223Y8682319D1*
X-5045240Y8682864D1*
X-5030274Y8681970D1*
X-5015463Y8679646D1*
X-5000943Y8675912D1*
X-4986847Y8670803D1*
X-4973307Y8664367D1*
X-4960446Y8656662D1*
X-4948382Y8647759D1*
X-4937228Y8637742D1*
X-4927085Y8626700D1*
X-4918048Y8614738D1*
X-4910199Y8601964D1*
X-4903611Y8588496D1*
X-4898345Y8574459D1*
X-4894448Y8559982D1*
X-4891958Y8545197D1*
X-4890896Y8530242D1*
X-4890884Y8523671D1*
X-6513381Y-484819D2*
X-6514388Y-499778D1*
X-6516824Y-514571D1*
X-6520667Y-529063D1*
X-6525882Y-543119D1*
X-6532421Y-556611D1*
X-6540223Y-569414D1*
X-6549216Y-581409D1*
X-6559318Y-592488D1*
X-6570435Y-602547D1*
X-6582466Y-611493D1*
X-6595299Y-619245D1*
X-6608816Y-625731D1*
X-6622892Y-630892D1*
X-6637399Y-634679D1*
X-6652201Y-637058D1*
X-6667164Y-638007D1*
X-6682148Y-637517D1*
X-6697017Y-635592D1*
X-6711632Y-632251D1*
X-6725860Y-627525D1*
X-6739570Y-621456D1*
X-6752634Y-614100D1*
X-6764933Y-605527D1*
X-6776353Y-595813D1*
X-6786790Y-585049D1*
X-6796147Y-573335D1*
X-6804337Y-560777D1*
X-6811286Y-547492D1*
X-6816929Y-533602D1*
X-6821214Y-519235D1*
X-6824103Y-504523D1*
X-6825568Y-489603D1*
X-6825595Y-474610D1*
X-6824185Y-459684D1*
X-6821351Y-444962D1*
X-6817118Y-430579D1*
X-6811526Y-416668D1*
X-6804626Y-403358D1*
X-6796482Y-390770D1*
X-6787168Y-379021D1*
X-6776771Y-368220D1*
X-6765386Y-358464D1*
X-6753119Y-349845D1*
X-6740082Y-342442D1*
X-6726395Y-336323D1*
X-6712184Y-331544D1*
X-6697581Y-328150D1*
X-6682719Y-326171D1*
X-6667737Y-325626D1*
X-6652771Y-326520D1*
X-6637960Y-328844D1*
X-6623439Y-332578D1*
X-6609344Y-337687D1*
X-6595803Y-344123D1*
X-6582942Y-351828D1*
X-6570879Y-360731D1*
X-6559725Y-370748D1*
X-6549582Y-381790D1*
X-6540545Y-393752D1*
X-6532696Y-406526D1*
X-6526108Y-419994D1*
X-6520842Y-434031D1*
X-6516945Y-448508D1*
X-6514454Y-463293D1*
X-6513393Y-478248D1*
X-6513381Y-484819D1*
X-5401043Y6395217D2*
X-5412165Y6395650D1*
X-5423176Y6396954D1*
X-5434050Y6399117D1*
X-5444721Y6402126D1*
X-5455123Y6405964D1*
X-5465192Y6410606D1*
X-5474866Y6416023D1*
X-5484085Y6422183D1*
X-5492792Y6429047D1*
X-5500934Y6436573D1*
X-5508460Y6444715D1*
X-5515324Y6453422D1*
X-5521484Y6462641D1*
X-5526901Y6472314D1*
X-5531543Y6482383D1*
X-5535380Y6492785D1*
X-5538390Y6503456D1*
X-5540553Y6514331D1*
X-5541856Y6525341D1*
X-5542292Y6536420D1*
X-5541856Y6547499D1*
X-5540553Y6558509D1*
X-5538390Y6569384D1*
X-5535380Y6580055D1*
X-5531543Y6590457D1*
X-5526901Y6600526D1*
X-5521484Y6610199D1*
X-5515324Y6619418D1*
X-5508460Y6628125D1*
X-5500934Y6636267D1*
X-5492792Y6643793D1*
X-5484085Y6650657D1*
X-5474866Y6656817D1*
X-5462714Y6663377D1*
X-5474866Y6670023D1*
X-5484085Y6676183D1*
X-5492792Y6683047D1*
X-5500934Y6690573D1*
X-5508460Y6698715D1*
X-5515324Y6707422D1*
X-5521484Y6716641D1*
X-5526901Y6726314D1*
X-5531543Y6736383D1*
X-5535380Y6746785D1*
X-5538390Y6757456D1*
X-5540553Y6768331D1*
X-5541856Y6779341D1*
X-5542292Y6790420D1*
X-5541856Y6801499D1*
X-5540553Y6812509D1*
X-5538390Y6823384D1*
X-5535380Y6834055D1*
X-5531543Y6844457D1*
X-5526901Y6854526D1*
X-5521484Y6864199D1*
X-5515324Y6873418D1*
X-5508460Y6882125D1*
X-5500934Y6890267D1*
X-5492792Y6897793D1*
X-5484085Y6904657D1*
X-5474866Y6910817D1*
X-5462714Y6917377D1*
X-5474866Y6924023D1*
X-5484085Y6930183D1*
X-5492792Y6937047D1*
X-5500934Y6944573D1*
X-5508460Y6952715D1*
X-5515324Y6961422D1*
X-5521484Y6970641D1*
X-5526901Y6980314D1*
X-5531543Y6990383D1*
X-5535380Y7000785D1*
X-5538390Y7011456D1*
X-5540553Y7022331D1*
X-5541856Y7033341D1*
X-5542292Y7044420D1*
X-5541856Y7055499D1*
X-5540553Y7066509D1*
X-5538390Y7077384D1*
X-5535380Y7088055D1*
X-5531543Y7098457D1*
X-5526901Y7108526D1*
X-5521484Y7118199D1*
X-5515324Y7127418D1*
X-5508460Y7136125D1*
X-5500934Y7144267D1*
X-5492792Y7151793D1*
X-5485887Y7157236D1*
X-5542291Y7157215D1*
Y7439625D1*
X-5229881D1*
Y7157215D1*
X-5286137D1*
X-5271240Y7144267D1*
X-5263714Y7136125D1*
X-5256850Y7127418D1*
X-5250690Y7118199D1*
X-5245272Y7108526D1*
X-5240630Y7098457D1*
X-5236793Y7088055D1*
X-5233783Y7077384D1*
X-5231620Y7066509D1*
X-5230317Y7055499D1*
X-5229882Y7044420D1*
X-5230317Y7033341D1*
X-5231620Y7022331D1*
X-5233783Y7011456D1*
X-5236793Y7000785D1*
X-5240630Y6990383D1*
X-5245272Y6980314D1*
X-5250690Y6970641D1*
X-5256850Y6961422D1*
X-5263714Y6952715D1*
X-5271240Y6944573D1*
X-5279381Y6937047D1*
X-5288089Y6930183D1*
X-5297307Y6924023D1*
X-5309459Y6917463D1*
X-5297307Y6910817D1*
X-5288089Y6904657D1*
X-5279381Y6897793D1*
X-5271240Y6890267D1*
X-5263714Y6882125D1*
X-5256850Y6873418D1*
X-5250690Y6864199D1*
X-5245272Y6854526D1*
X-5240630Y6844457D1*
X-5236793Y6834055D1*
X-5233783Y6823384D1*
X-5231620Y6812509D1*
X-5230317Y6801499D1*
X-5229882Y6790420D1*
X-5230317Y6779341D1*
X-5231620Y6768331D1*
X-5233783Y6757456D1*
X-5236793Y6746785D1*
X-5240630Y6736383D1*
X-5245272Y6726314D1*
X-5250690Y6716641D1*
X-5256850Y6707422D1*
X-5263714Y6698715D1*
X-5271240Y6690573D1*
X-5279381Y6683047D1*
X-5288089Y6676183D1*
X-5297307Y6670023D1*
X-5309459Y6663463D1*
X-5297307Y6656817D1*
X-5288089Y6650657D1*
X-5279381Y6643793D1*
X-5271240Y6636267D1*
X-5263714Y6628125D1*
X-5256850Y6619418D1*
X-5250690Y6610199D1*
X-5245272Y6600526D1*
X-5240630Y6590457D1*
X-5236793Y6580055D1*
X-5233783Y6569384D1*
X-5231620Y6558509D1*
X-5230317Y6547499D1*
X-5229882Y6536420D1*
X-5230317Y6525341D1*
X-5231620Y6514331D1*
X-5233783Y6503456D1*
X-5236793Y6492785D1*
X-5240630Y6482383D1*
X-5245272Y6472314D1*
X-5250690Y6462641D1*
X-5256850Y6453422D1*
X-5263714Y6444715D1*
X-5271240Y6436573D1*
X-5279381Y6429047D1*
X-5288089Y6422183D1*
X-5297307Y6416023D1*
X-5306981Y6410606D1*
X-5317050Y6405964D1*
X-5327452Y6402126D1*
X-5338123Y6399117D1*
X-5348997Y6396954D1*
X-5360008Y6395650D1*
X-5386085Y6395215D1*
X-5401086Y6395274D1*
X-6800606Y7283204D2*
X-6623195D1*
Y7070795D1*
X-6815604D1*
Y7283204D1*
X-6800606D1*
X-493949Y8309921D2*
X-336538D1*
Y8097511D1*
X-508948D1*
Y8131902D1*
X-791297Y8131958D1*
X-799779Y8122569D1*
X-814063Y8110370D1*
X-830078Y8100556D1*
X-847432Y8093367D1*
X-865697Y8088982D1*
X-884423Y8087508D1*
X-903149Y8088982D1*
X-921414Y8093367D1*
X-938768Y8100556D1*
X-954784Y8110370D1*
X-969067Y8122569D1*
X-981267Y8136853D1*
X-991081Y8152868D1*
X-998269Y8170222D1*
X-1002654Y8188487D1*
X-1004128Y8207213D1*
X-1002654Y8225939D1*
X-998269Y8244204D1*
X-991081Y8261558D1*
X-981267Y8277574D1*
X-969067Y8291857D1*
X-954784Y8304057D1*
X-938768Y8313871D1*
X-921414Y8321059D1*
X-903149Y8325444D1*
X-884423Y8326918D1*
X-865697Y8325444D1*
X-847432Y8321059D1*
X-830078Y8313871D1*
X-814063Y8304057D1*
X-799779Y8291857D1*
X-791421Y8282447D1*
X-508938Y8282469D1*
X-508948Y8309921D1*
X-493949D1*
Y7869921D2*
X-336538D1*
Y7657511D1*
X-508948D1*
Y7869921D1*
X-493949D1*
X-135948D2*
X33462D1*
Y7657511D1*
X-138948D1*
Y7869921D1*
X-135948D1*
X-123949Y8309921D2*
X33462D1*
Y8097511D1*
X-138947D1*
Y8309921D1*
X-123949D1*
X-578949Y8089921D2*
X-401538D1*
Y7877511D1*
X-593947D1*
Y8089921D1*
X-578949D1*
X-58949D2*
X118462D1*
Y7877511D1*
X-73947D1*
Y8089921D1*
X-58949D1*
X-6847174Y3217995D2*
X-6131802Y4366921D1*
X-6125910Y4373485D1*
X-6119065Y4379046D1*
X-6111434Y4383468D1*
X-5671225Y4594296D1*
X-6028794Y5288862D1*
X-6144477Y5422423D1*
X-6149145Y5429906D1*
X-6152585Y5438027D1*
X-6154712Y5446587D1*
X-6156098Y5468250D1*
X-6160547Y5569920D1*
X-6159565Y5578685D1*
X-6157223Y5587188D1*
X-6153580Y5595220D1*
X-6148726Y5602583D1*
X-6142779Y5609096D1*
X-6135887Y5614599D1*
X-6128218Y5618956D1*
X-6119963Y5622060D1*
X-6111324Y5623834D1*
X-6102496Y5624233D1*
X-5973403Y5615426D1*
X-5971264Y5627075D1*
X-5965460Y5644939D1*
X-5956932Y5661676D1*
X-5945891Y5676872D1*
X-5932609Y5690154D1*
X-5917412Y5701195D1*
X-5900676Y5709723D1*
X-5882811Y5715527D1*
X-5864259Y5718466D1*
X-5845475D1*
X-5826922Y5715527D1*
X-5809058Y5709723D1*
X-5792321Y5701195D1*
X-5777125Y5690154D1*
X-5763842Y5676872D1*
X-5752801Y5661676D1*
X-5744274Y5644939D1*
X-5738469Y5627075D1*
X-5735531Y5608522D1*
X-5735163Y5599093D1*
X-5723712Y5598149D1*
X-5715115Y5596178D1*
X-5706933Y5592885D1*
X-5699367Y5588354D1*
X-5692603Y5582694D1*
X-5686807Y5576046D1*
X-5682115Y5568558D1*
X-5314839Y4764935D1*
X-5034885Y4898863D1*
X-5026416Y4901385D1*
X-4036171Y5086395D1*
X-4027355Y5086639D1*
X-4006307Y5083542D1*
X-2992310Y4917009D1*
X-2983938Y4914237D1*
X-2979925Y4912359D1*
X-2746419Y4768627D1*
X-1900083Y4246793D1*
X-1893392Y4241047D1*
X-1887671Y4234312D1*
X-1245711Y3239420D1*
X-1241526Y3231657D1*
X-1238607Y3223335D1*
X-1235161Y3202204D1*
X-1052774Y1948071D1*
X-1052887Y1939235D1*
X-1079730Y1745765D1*
X-1080064Y1733405D1*
X-1083003Y1714852D1*
X-1085026Y1707679D1*
X-1222043Y723721D1*
X-1224610Y715283D1*
X-1228464Y707350D1*
X-1241804Y689440D1*
X-1802751Y-30868D1*
X-1802953Y-265028D1*
X-1804801Y-276691D1*
X-1808450Y-287922D1*
X-1813811Y-298444D1*
X-1820752Y-307998D1*
X-1829102Y-316348D1*
X-1838656Y-323289D1*
X-1849178Y-328650D1*
X-1860409Y-332299D1*
X-1872072Y-334147D1*
X-1922972Y-334379D1*
X-2093519D1*
X-2101996Y-343767D1*
X-2116279Y-355967D1*
X-2132295Y-365781D1*
X-2149649Y-372969D1*
X-2163485Y-376473D1*
X-2895477Y-928333D1*
X-2903262Y-932477D1*
X-2911617Y-935356D1*
X-4029180Y-1208542D1*
X-4037970Y-1209271D1*
X-4046765Y-1208617D1*
X-4109833Y-1193419D1*
X-5136298Y-942329D1*
X-5144448Y-938912D1*
X-6131557Y-361186D1*
X-6138795Y-356147D1*
X-6145156Y-350038D1*
X-6150492Y-342994D1*
X-6777077Y640689D1*
X-6780595Y648777D1*
X-6789017Y683471D1*
X-7079151Y1923181D1*
X-7079794Y1931977D1*
X-7079050Y1940783D1*
X-6853874Y3202426D1*
X-6850986Y3210759D1*
X-6849052Y3214745D1*
X-6041982Y6365292D2*
X-6057924Y6266435D1*
X-6062346Y6252824D1*
X-6078962Y6219594D1*
X-6111454Y6156442D1*
X-6119865Y6144865D1*
X-6145937Y6118395D1*
X-6196353Y6068376D1*
X-6207931Y6059964D1*
X-6240906Y6042847D1*
X-6304313Y6010854D1*
X-6317923Y6006431D1*
X-6354574Y6000341D1*
X-6424762Y5989509D1*
X-6439073D1*
X-6475811Y5995044D1*
X-6545910Y6006431D1*
X-6559521Y6010854D1*
X-6592749Y6027469D1*
X-6655901Y6059961D1*
X-6667479Y6068372D1*
X-6693948Y6094444D1*
X-6743967Y6144860D1*
X-6752379Y6156438D1*
X-6769496Y6189412D1*
X-6801489Y6252819D1*
X-6805912Y6266430D1*
X-6812002Y6303080D1*
X-6822834Y6373264D1*
Y6387575D1*
X-6817302Y6424314D1*
X-6805915Y6494425D1*
X-6801492Y6508035D1*
X-6784876Y6541265D1*
X-6752383Y6604414D1*
X-6743971Y6615992D1*
X-6717900Y6642461D1*
X-6667481Y6692482D1*
X-6655903Y6700894D1*
X-6622928Y6718010D1*
X-6559524Y6750000D1*
X-6545913Y6754422D1*
X-6509263Y6760512D1*
X-6439072Y6771344D1*
X-6424761D1*
X-6388023Y6765810D1*
X-6317919Y6754422D1*
X-6304308Y6749999D1*
X-6271078Y6733383D1*
X-6207929Y6700890D1*
X-6196351Y6692478D1*
X-6169882Y6666406D1*
X-6119861Y6615988D1*
X-6111450Y6604410D1*
X-6094333Y6571435D1*
X-6062344Y6508030D1*
X-6057921Y6494420D1*
X-6051832Y6457769D1*
X-6040999Y6387579D1*
Y6373268D1*
X-6041857Y6366074D1*
X-1341982Y6365292D2*
X-1357924Y6266435D1*
X-1362346Y6252824D1*
X-1378962Y6219594D1*
X-1411454Y6156442D1*
X-1419865Y6144865D1*
X-1445937Y6118395D1*
X-1496353Y6068376D1*
X-1507931Y6059964D1*
X-1540906Y6042847D1*
X-1604313Y6010854D1*
X-1617923Y6006431D1*
X-1654574Y6000342D1*
X-1724762Y5989509D1*
X-1739073D1*
X-1775811Y5995044D1*
X-1845909Y6006431D1*
X-1859519Y6010853D1*
X-1892750Y6027468D1*
X-1955900Y6059960D1*
X-1967478Y6068371D1*
X-1993948Y6094444D1*
X-2043967Y6144860D1*
X-2052379Y6156438D1*
X-2069496Y6189412D1*
X-2101489Y6252819D1*
X-2105912Y6266430D1*
X-2112002Y6303080D1*
X-2122834Y6373264D1*
Y6387575D1*
X-2117302Y6424314D1*
X-2105915Y6494425D1*
X-2101492Y6508035D1*
X-2084876Y6541265D1*
X-2052383Y6604414D1*
X-2043971Y6615992D1*
X-2017900Y6642461D1*
X-1967481Y6692482D1*
X-1955903Y6700894D1*
X-1922928Y6718010D1*
X-1859524Y6750000D1*
X-1845913Y6754422D1*
X-1809263Y6760512D1*
X-1739072Y6771344D1*
X-1724761D1*
X-1688023Y6765810D1*
X-1617919Y6754422D1*
X-1604308Y6749999D1*
X-1571078Y6733382D1*
X-1507929Y6700890D1*
X-1496351Y6692478D1*
X-1469882Y6666406D1*
X-1419861Y6615988D1*
X-1411450Y6604410D1*
X-1394333Y6571435D1*
X-1362344Y6508030D1*
X-1357921Y6494420D1*
X-1351832Y6457769D1*
X-1340999Y6387579D1*
Y6373268D1*
X-1341857Y6366074D1*
X-2900592Y7014518D2*
Y6722753D1*
X-2891203Y6714317D1*
X-2879003Y6700034D1*
X-2869189Y6684018D1*
X-2862001Y6666664D1*
X-2857616Y6648399D1*
X-2856142Y6629673D1*
X-2857616Y6610947D1*
X-2862001Y6592682D1*
X-2869189Y6575328D1*
X-2879003Y6559313D1*
X-2891203Y6545029D1*
X-2905486Y6532830D1*
X-2921502Y6523016D1*
X-2938856Y6515827D1*
X-2957121Y6511442D1*
X-2975847Y6509968D1*
X-2994573Y6511442D1*
X-3012838Y6515827D1*
X-3030192Y6523016D1*
X-3046207Y6532830D1*
X-3060491Y6545029D1*
X-3072690Y6559313D1*
X-3082504Y6575328D1*
X-3089693Y6592682D1*
X-3094078Y6610947D1*
X-3095552Y6629673D1*
X-3094078Y6648399D1*
X-3089693Y6666664D1*
X-3082504Y6684018D1*
X-3072690Y6700034D1*
X-3060491Y6714317D1*
X-3051080Y6722675D1*
X-3051102Y7074995D1*
X-3056849Y7089452D1*
X-3061234Y7107717D1*
X-3062708Y7126443D1*
X-3061234Y7145169D1*
X-3056849Y7163434D1*
X-3049661Y7180788D1*
X-3040012Y7198607D1*
X-3033071Y7208161D1*
X-3024721Y7216511D1*
X-3015167Y7223452D1*
X-2997348Y7233101D1*
X-2979994Y7240289D1*
X-2961729Y7244674D1*
X-2943003Y7246148D1*
X-2924277Y7244674D1*
X-2906012Y7240289D1*
X-2888658Y7233101D1*
X-2872643Y7223287D1*
X-2858359Y7211087D1*
X-2846160Y7196804D1*
X-2836346Y7180788D1*
X-2829157Y7163434D1*
X-2824772Y7145169D1*
X-2823298Y7126443D1*
X-2824772Y7107717D1*
X-2829157Y7089452D1*
X-2836346Y7072098D1*
X-2846160Y7056083D1*
X-2858359Y7041799D1*
X-2872643Y7029600D1*
X-2888658Y7019786D1*
X-2900604Y7014592D1*
X-5761455Y6451588D2*
Y6647153D1*
X-5770844Y6655553D1*
X-5783043Y6669836D1*
X-5792858Y6685852D1*
X-5800046Y6703206D1*
X-5804431Y6721471D1*
X-5805905Y6740197D1*
X-5804431Y6758923D1*
X-5800046Y6777188D1*
X-5792858Y6794542D1*
X-5783043Y6810557D1*
X-5770844Y6824841D1*
X-5756561Y6837040D1*
X-5740545Y6846854D1*
X-5723191Y6854043D1*
X-5704926Y6858428D1*
X-5686200Y6859902D1*
X-5667474Y6858428D1*
X-5649209Y6854043D1*
X-5631855Y6846854D1*
X-5615839Y6837040D1*
X-5601556Y6824841D1*
X-5589357Y6810557D1*
X-5579542Y6794542D1*
X-5572354Y6777188D1*
X-5567969Y6758923D1*
X-5566495Y6740197D1*
X-5567969Y6721471D1*
X-5572354Y6703206D1*
X-5579542Y6685852D1*
X-5589357Y6669836D1*
X-5601556Y6655553D1*
X-5610966Y6647195D1*
X-5610945Y6461614D1*
X-5602288Y6454908D1*
X-5589006Y6441625D1*
X-5577965Y6426429D1*
X-5569437Y6409692D1*
X-5563633Y6391828D1*
X-5560694Y6373275D1*
Y6354491D1*
X-5563633Y6335939D1*
X-5569437Y6318074D1*
X-5577965Y6301338D1*
X-5589006Y6286141D1*
X-5602288Y6272859D1*
X-5617484Y6261818D1*
X-5634221Y6253290D1*
X-5652085Y6247486D1*
X-5670638Y6244547D1*
X-5689422D1*
X-5707975Y6247486D1*
X-5725839Y6253290D1*
X-5742576Y6261818D1*
X-5757772Y6272859D1*
X-5771054Y6286141D1*
X-5782095Y6301338D1*
X-5790623Y6318074D1*
X-5796427Y6335939D1*
X-5799366Y6354491D1*
Y6373275D1*
X-5796427Y6391828D1*
X-5790623Y6409692D1*
X-5782095Y6426429D1*
X-5771054Y6441625D1*
X-5761466Y6451493D1*
X-5523438Y7929226D2*
X-5424758Y8027906D1*
X-5425448Y8040493D1*
X-5423974Y8059219D1*
X-5419589Y8077484D1*
X-5412401Y8094838D1*
X-5402587Y8110854D1*
X-5390387Y8125137D1*
X-5376104Y8137337D1*
X-5360088Y8147151D1*
X-5342734Y8154339D1*
X-5324469Y8158724D1*
X-5305743Y8160198D1*
X-5287017Y8158724D1*
X-5268752Y8154339D1*
X-5251398Y8147151D1*
X-5235383Y8137337D1*
X-5221099Y8125137D1*
X-5208900Y8110854D1*
X-5199086Y8094838D1*
X-5191897Y8077484D1*
X-5187512Y8059219D1*
X-5186038Y8040493D1*
X-5187512Y8021767D1*
X-5191897Y8003502D1*
X-5199086Y7986148D1*
X-5208900Y7970133D1*
X-5221099Y7955849D1*
X-5235383Y7943650D1*
X-5251398Y7933836D1*
X-5268752Y7926647D1*
X-5287017Y7922262D1*
X-5305743Y7920788D1*
X-5318307Y7921533D1*
X-5428306Y7811503D1*
X-5429786Y7793314D1*
X-5434171Y7775049D1*
X-5441359Y7757695D1*
X-5451173Y7741679D1*
X-5463373Y7727396D1*
X-5477656Y7715197D1*
X-5493672Y7705382D1*
X-5511026Y7698194D1*
X-5529291Y7693809D1*
X-5548017Y7692335D1*
X-5566743Y7693809D1*
X-5585008Y7698194D1*
X-5602362Y7705382D1*
X-5618377Y7715197D1*
X-5632661Y7727396D1*
X-5644860Y7741679D1*
X-5654674Y7757695D1*
X-5661863Y7775049D1*
X-5666248Y7793314D1*
X-5667722Y7812040D1*
X-5666248Y7830766D1*
X-5661863Y7849031D1*
X-5654674Y7866385D1*
X-5644860Y7882401D1*
X-5632661Y7896684D1*
X-5618377Y7908883D1*
X-5602362Y7918698D1*
X-5585008Y7925886D1*
X-5566743Y7930271D1*
X-5548017Y7931745D1*
X-5529291Y7930271D1*
X-5523565Y7929132D1*
X-4191818Y6294012D2*
X-4284367Y6386561D1*
X-4295227Y6384352D1*
X-4313953Y6382878D1*
X-4332679Y6384352D1*
X-4350944Y6388737D1*
X-4368298Y6395926D1*
X-4384314Y6405740D1*
X-4398597Y6417939D1*
X-4410797Y6432223D1*
X-4420611Y6448238D1*
X-4427799Y6465592D1*
X-4432184Y6483857D1*
X-4433658Y6502583D1*
X-4432184Y6521309D1*
X-4427799Y6539574D1*
X-4420611Y6556928D1*
X-4410797Y6572944D1*
X-4398597Y6587227D1*
X-4384314Y6599427D1*
X-4368298Y6609241D1*
X-4350944Y6616429D1*
X-4332679Y6620814D1*
X-4313953Y6622288D1*
X-4295227Y6620814D1*
X-4276962Y6616429D1*
X-4259608Y6609241D1*
X-4243593Y6599427D1*
X-4229309Y6587227D1*
X-4217110Y6572944D1*
X-4207296Y6556928D1*
X-4200107Y6539574D1*
X-4195722Y6521309D1*
X-4194524Y6509591D1*
X-4085356Y6400402D1*
X-4072777Y6401102D1*
X-4054051Y6399628D1*
X-4035786Y6395243D1*
X-4018432Y6388054D1*
X-4002416Y6378240D1*
X-3988133Y6366041D1*
X-3975933Y6351757D1*
X-3966119Y6335742D1*
X-3958931Y6318388D1*
X-3954546Y6300123D1*
X-3953072Y6281397D1*
X-3954546Y6262671D1*
X-3958931Y6244406D1*
X-3966119Y6227052D1*
X-3975933Y6211036D1*
X-3988133Y6196753D1*
X-4002416Y6184553D1*
X-4018432Y6174739D1*
X-4035786Y6167551D1*
X-4054051Y6163166D1*
X-4072777Y6161692D1*
X-4091503Y6163166D1*
X-4109768Y6167551D1*
X-4127122Y6174739D1*
X-4143137Y6184553D1*
X-4157421Y6196753D1*
X-4169620Y6211036D1*
X-4179434Y6227052D1*
X-4186623Y6244406D1*
X-4191008Y6262671D1*
X-4192482Y6281397D1*
X-4191737Y6293961D1*
X-5973387Y5615413D2*
X-5971264Y5627075D1*
X-5965460Y5644939D1*
X-5956932Y5661676D1*
X-5945891Y5676872D1*
X-5932609Y5690154D1*
X-5917412Y5701195D1*
X-5900676Y5709723D1*
X-5882811Y5715527D1*
X-5864259Y5718466D1*
X-5845475D1*
X-5826922Y5715527D1*
X-5809058Y5709723D1*
X-5792321Y5701195D1*
X-5777125Y5690154D1*
X-5763842Y5676872D1*
X-5752801Y5661676D1*
X-5744274Y5644939D1*
X-5738469Y5627075D1*
X-5735531Y5608522D1*
X-5735163Y5599093D1*
X-4906975Y6296342D2*
Y6216663D1*
X-4897586Y6208237D1*
X-4885387Y6193954D1*
X-4875572Y6177938D1*
X-4868384Y6160584D1*
X-4863999Y6142319D1*
X-4862525Y6123593D1*
X-4863999Y6104867D1*
X-4868384Y6086602D1*
X-4875572Y6069248D1*
X-4885387Y6053233D1*
X-4897586Y6038949D1*
X-4911869Y6026750D1*
X-4927885Y6016936D1*
X-4945239Y6009747D1*
X-4963504Y6005362D1*
X-4982230Y6003888D1*
X-5000956Y6005362D1*
X-5019221Y6009747D1*
X-5036575Y6016936D1*
X-5052591Y6026750D1*
X-5066874Y6038949D1*
X-5079073Y6053233D1*
X-5088888Y6069248D1*
X-5096076Y6086602D1*
X-5100461Y6104867D1*
X-5101935Y6123593D1*
X-5100461Y6142319D1*
X-5096076Y6160584D1*
X-5088888Y6177938D1*
X-5079073Y6193954D1*
X-5066874Y6208237D1*
X-5057464Y6216595D1*
X-5057485Y6296367D1*
X-5066874Y6304793D1*
X-5079073Y6319076D1*
X-5088888Y6335092D1*
X-5096076Y6352446D1*
X-5100461Y6370711D1*
X-5101935Y6389437D1*
X-5100461Y6408163D1*
X-5096076Y6426428D1*
X-5088888Y6443782D1*
X-5079073Y6459797D1*
X-5066874Y6474081D1*
X-5052591Y6486280D1*
X-5036575Y6496094D1*
X-5019221Y6503283D1*
X-5000956Y6507668D1*
X-4982230Y6509142D1*
X-4963504Y6507668D1*
X-4945239Y6503283D1*
X-4927885Y6496094D1*
X-4911869Y6486280D1*
X-4897586Y6474081D1*
X-4885387Y6459797D1*
X-4875572Y6443782D1*
X-4868384Y6426428D1*
X-4863999Y6408163D1*
X-4862525Y6389437D1*
X-4863999Y6370711D1*
X-4868384Y6352446D1*
X-4875572Y6335092D1*
X-4885387Y6319076D1*
X-4897586Y6304793D1*
X-4906996Y6296435D1*
X-4050772Y5918129D2*
D24*
X-3829948Y5697305D1*
Y5918129D2*
X-4050772Y5697305D1*
X-900113Y4042263D2*
Y3941038D1*
X-1006338Y4042263D2*
X-900113D1*
X-2650439Y8736572D2*
X-2438128Y8524261D1*
Y8736572D2*
X-2650439Y8524261D1*
X-1006259Y4733133D2*
X-900113D1*
X-1006259Y4387697D2*
X-900113D1*
X-5157472Y8637082D2*
X-4936648Y8416258D1*
Y8637082D2*
X-5157472Y8416258D1*
X-6779969Y-371408D2*
X-6559145Y-592232D1*
Y-371408D2*
X-6779969Y-592232D1*
X-5542248Y7439585D2*
X-5229925Y7157254D1*
Y7439585D2*
X-5542248Y7157254D1*
X-6794400Y7063146D2*
Y6850853D1*
Y6957000D2*
X-6708253D1*
X-6794400Y7397000D2*
Y7290853D1*
Y7397000D2*
X-6708253D1*
X-52743Y7869862D2*
Y7657570D1*
X-138889Y7763717D2*
X33404D1*
X-4194781Y8068457D2*
D23*
X-3311035D1*
X-4195894Y8038790D2*
X-3310859D1*
X-4196949Y8009123D2*
X-3310742D1*
X-4198004Y7979457D2*
X-3310566D1*
X-4199117Y7949790D2*
X-3310449D1*
X-4200172Y7920123D2*
X-3310332D1*
X-4201226Y7890457D2*
X-3310156D1*
X-4202281Y7860790D2*
X-3310039D1*
X-4203394Y7831123D2*
X-3309863D1*
X-4204449Y7801457D2*
X-3309746D1*
X-4205504Y7771790D2*
X-3309629D1*
X-4206617Y7742123D2*
X-3309453D1*
X-4207672Y7712457D2*
X-3309336D1*
X-4208726Y7682790D2*
X-3309160D1*
X-4209781Y7653123D2*
X-3309043D1*
X-4210894Y7623457D2*
X-3308925D1*
X-4211949Y7593790D2*
X-3308750D1*
X-4213004Y7564123D2*
X-3308633D1*
X-4214117Y7534457D2*
X-3308457D1*
X-4215172Y7504790D2*
X-3308340D1*
X-4216226Y7475123D2*
X-3308222D1*
X-4217281Y7445457D2*
X-3308047D1*
X-4218394Y7415790D2*
X-3307929D1*
X-4219449Y7386123D2*
X-3307754D1*
X-4220504Y7356457D2*
X-3307636D1*
X-4221617Y7326790D2*
X-3307519D1*
X-4222672Y7297123D2*
X-3307343D1*
X-4223726Y7267457D2*
X-3307226D1*
X-4224781Y7237790D2*
X-3307050D1*
X-4225894Y7208123D2*
X-3306933D1*
X-4226949Y7178457D2*
X-3306816D1*
X-4228004Y7148790D2*
X-3307871D1*
X-4229117Y7119123D2*
X-3780254D1*
X-3308124Y8098086D2*
X-4196871Y8095843D1*
X-4233125Y7090479D1*
X-3303660Y7148866D1*
X-3308149Y8098041D1*
X-4184447Y4985840D2*
X-3853592D1*
X-4343119Y4956173D2*
X-3672772D1*
X-4501791Y4926507D2*
X-3491951D1*
X-4660404Y4896840D2*
X-3311131D1*
X-4819076Y4867173D2*
X-3130311D1*
X-4977748Y4837507D2*
X-2996893D1*
X-5057494Y4807840D2*
X-2948729D1*
X-5119428Y4778173D2*
X-2900623D1*
X-5181361Y4748507D2*
X-2852459D1*
X-5243354Y4718840D2*
X-2804354D1*
X-5305287Y4689173D2*
X-2756190D1*
X-5367221Y4659507D2*
X-4326502D1*
X-3837338D2*
X-2708084D1*
X-5429154Y4629840D2*
X-4557361D1*
X-3606479D2*
X-2659979D1*
X-5491088Y4600173D2*
X-4699158D1*
X-3464682D2*
X-2611815D1*
X-5553022Y4570507D2*
X-4818338D1*
X-3345502D2*
X-2563709D1*
X-5615014Y4540840D2*
X-4916951D1*
X-3246947D2*
X-2515545D1*
X-5676947Y4511173D2*
X-5005838D1*
X-3158002D2*
X-2467440D1*
X-5738881Y4481507D2*
X-5083358D1*
X-3080483D2*
X-2419276D1*
X-5800815Y4451840D2*
X-5160233D1*
X-3003608D2*
X-2371170D1*
X-5862748Y4422173D2*
X-5223514D1*
X-2940326D2*
X-2323006D1*
X-5924740Y4392507D2*
X-5286795D1*
X-2877045D2*
X-2274901D1*
X-5986674Y4362840D2*
X-5348143D1*
X-2815697D2*
X-2226736D1*
X-6048608Y4333173D2*
X-5400994D1*
X-2762846D2*
X-2178631D1*
X-6084701Y4303507D2*
X-5453846D1*
X-2709994D2*
X-2130467D1*
X-6103158Y4273840D2*
X-5506756D1*
X-2657084D2*
X-2082361D1*
X-6121615Y4244173D2*
X-5552518D1*
X-2611322D2*
X-2034197D1*
X-6140072Y4214507D2*
X-5597342D1*
X-2566498D2*
X-1986092D1*
X-6158588Y4184840D2*
X-5642225D1*
X-2521615D2*
X-1943377D1*
X-6177045Y4155173D2*
X-5686053D1*
X-2477787D2*
X-1924276D1*
X-6195502Y4125507D2*
X-5724432D1*
X-2439408D2*
X-1905115D1*
X-6213959Y4095840D2*
X-5762869D1*
X-2400971D2*
X-1885955D1*
X-6232416Y4066173D2*
X-5801307D1*
X-2362533D2*
X-1866854D1*
X-6250873Y4036507D2*
X-5839510D1*
X-2324330D2*
X-1847694D1*
X-6269330Y4006840D2*
X-5872615D1*
X-2291225D2*
X-1828533D1*
X-6287787Y3977173D2*
X-5905721D1*
X-2258119D2*
X-1809432D1*
X-6306244Y3947507D2*
X-5938826D1*
X-2224955D2*
X-1790272D1*
X-6324760Y3917840D2*
X-5971990D1*
X-2191850D2*
X-1771111D1*
X-6343217Y3888173D2*
X-6002694D1*
X-2161147D2*
X-1752010D1*
X-6361674Y3858507D2*
X-6031287D1*
X-2132553D2*
X-1732850D1*
X-6380131Y3828840D2*
X-6059881D1*
X-2103959D2*
X-1713748D1*
X-6398588Y3799173D2*
X-6088475D1*
X-2075365D2*
X-1694588D1*
X-6417045Y3769507D2*
X-6117127D1*
X-2046713D2*
X-1675428D1*
X-6435502Y3739840D2*
X-6143084D1*
X-2020756D2*
X-1656326D1*
X-6453959Y3710173D2*
X-6167752D1*
X-1996088D2*
X-1637166D1*
X-6472475Y3680507D2*
X-6192479D1*
X-1971361D2*
X-1618006D1*
X-6490932Y3650840D2*
X-6217147D1*
X-1946694D2*
X-1598904D1*
X-6509389Y3621173D2*
X-6241815D1*
X-1922026D2*
X-1579744D1*
X-6527846Y3591507D2*
X-6264842D1*
X-1898998D2*
X-1560584D1*
X-6546303Y3561840D2*
X-6286053D1*
X-1877729D2*
X-1541483D1*
X-6564760Y3532173D2*
X-6307322D1*
X-1856518D2*
X-1522322D1*
X-6583217Y3502507D2*
X-6328533D1*
X-1835307D2*
X-1503162D1*
X-6601674Y3472840D2*
X-6349744D1*
X-1814096D2*
X-1484061D1*
X-6620131Y3443173D2*
X-6370897D1*
X-1792944D2*
X-1464901D1*
X-6638647Y3413507D2*
X-6389119D1*
X-1774721D2*
X-1445740D1*
X-6657104Y3383840D2*
X-6407225D1*
X-1756615D2*
X-1426639D1*
X-6675561Y3354173D2*
X-6425330D1*
X-1738510D2*
X-1407479D1*
X-6694018Y3324507D2*
X-6443436D1*
X-1720404D2*
X-1388319D1*
X-6712475Y3294840D2*
X-6461541D1*
X-1702299D2*
X-1369217D1*
X-6730932Y3265173D2*
X-6478944D1*
X-1684897D2*
X-1350057D1*
X-6749389Y3235507D2*
X-6494236D1*
X-1669604D2*
X-1330897D1*
X-6767846Y3205840D2*
X-6509471D1*
X-1654369D2*
X-1311795D1*
X-6783432Y3176173D2*
X-6524705D1*
X-1639135D2*
X-1306346D1*
X-6788705Y3146507D2*
X-6539998D1*
X-1623842D2*
X-1302010D1*
X-6793979Y3116840D2*
X-6555233D1*
X-1608608D2*
X-1297674D1*
X-6799252Y3087173D2*
X-6569881D1*
X-1593959D2*
X-1293397D1*
X-6804584Y3057507D2*
X-6582479D1*
X-1581361D2*
X-1289061D1*
X-6809858Y3027840D2*
X-6595076D1*
X-1568764D2*
X-1284725D1*
X-6815131Y2998173D2*
X-6607674D1*
X-1556108D2*
X-1280389D1*
X-6820463Y2968507D2*
X-6620330D1*
X-1543510D2*
X-1276111D1*
X-6825736Y2938840D2*
X-6632928D1*
X-1530912D2*
X-1271776D1*
X-6831010Y2909173D2*
X-6645408D1*
X-1518432D2*
X-1267440D1*
X-6836283Y2879507D2*
X-6655604D1*
X-1508236D2*
X-1263162D1*
X-6841615Y2849840D2*
X-6665740D1*
X-1498100D2*
X-1258826D1*
X-6846889Y2820173D2*
X-6675819D1*
X-1488022D2*
X-1254490D1*
X-6852162Y2790507D2*
X-6685955D1*
X-1477885D2*
X-1250213D1*
X-6857494Y2760840D2*
X-6696092D1*
X-1467748D2*
X-1245877D1*
X-6862768Y2731173D2*
X-6706229D1*
X-1457611D2*
X-1241541D1*
X-6868041Y2701507D2*
X-6714842D1*
X-1448998D2*
X-1237205D1*
X-6873373Y2671840D2*
X-6722576D1*
X-1441264D2*
X-1232928D1*
X-6878647Y2642173D2*
X-6730369D1*
X-1433471D2*
X-1228592D1*
X-6883920Y2612507D2*
X-6738104D1*
X-1425736D2*
X-1224256D1*
X-6889194Y2582840D2*
X-6745838D1*
X-1418002D2*
X-1219979D1*
X-6894526Y2553173D2*
X-6753631D1*
X-1410209D2*
X-1215643D1*
X-6899799Y2523507D2*
X-6761131D1*
X-1402709D2*
X-1211307D1*
X-6905072Y2493840D2*
X-6766639D1*
X-1397201D2*
X-1207029D1*
X-6910404Y2464173D2*
X-6772088D1*
X-1391752D2*
X-1202694D1*
X-6915678Y2434507D2*
X-6777596D1*
X-1386244D2*
X-1198358D1*
X-6920951Y2404840D2*
X-6783045D1*
X-1380795D2*
X-1194022D1*
X-6926283Y2375173D2*
X-6788553D1*
X-1375287D2*
X-1189744D1*
X-6931557Y2345507D2*
X-6794002D1*
X-1369838D2*
X-1185408D1*
X-6936830Y2315840D2*
X-6798455D1*
X-1365385D2*
X-1181072D1*
X-6942104Y2286173D2*
X-6801736D1*
X-1362104D2*
X-1176795D1*
X-6947436Y2256507D2*
X-6805018D1*
X-1358822D2*
X-1172459D1*
X-6952709Y2226840D2*
X-6808299D1*
X-1355541D2*
X-1168123D1*
X-6957983Y2197173D2*
X-6811522D1*
X-1352319D2*
X-1163787D1*
X-6963315Y2167507D2*
X-6814803D1*
X-1349037D2*
X-1159510D1*
X-6968588Y2137840D2*
X-6818084D1*
X-1345756D2*
X-1155174D1*
X-6973861Y2108173D2*
X-6819666D1*
X-1344174D2*
X-1150838D1*
X-6979194Y2078507D2*
X-6820779D1*
X-1343061D2*
X-1146561D1*
X-6984467Y2048840D2*
X-6821834D1*
X-1342006D2*
X-1142225D1*
X-6989740Y2019173D2*
X-6822947D1*
X-1340893D2*
X-1137889D1*
X-6995014Y1989507D2*
X-6824002D1*
X-1339838D2*
X-1133611D1*
X-7000346Y1959840D2*
X-6825115D1*
X-1338725D2*
X-1129276D1*
X-7004858Y1930173D2*
X-6826111D1*
X-1337729D2*
X-1128983D1*
X-6997885Y1900507D2*
X-6825057D1*
X-1338725D2*
X-1133084D1*
X-6990912Y1870840D2*
X-6824002D1*
X-1339838D2*
X-1137244D1*
X-6983998Y1841173D2*
X-6822889D1*
X-1340893D2*
X-1141346D1*
X-6977026Y1811507D2*
X-6821834D1*
X-1342006D2*
X-1145506D1*
X-6970111Y1781840D2*
X-6820721D1*
X-1343061D2*
X-1149608D1*
X-6963139Y1752173D2*
X-6819666D1*
X-1344174D2*
X-1153709D1*
X-6956225Y1722507D2*
X-6818026D1*
X-1345815D2*
X-1157869D1*
X-6949252Y1692840D2*
X-6814744D1*
X-1349096D2*
X-1161971D1*
X-6942338Y1663173D2*
X-6811463D1*
X-1352377D2*
X-1166131D1*
X-6935365Y1633507D2*
X-6808240D1*
X-1355600D2*
X-1170233D1*
X-6928393Y1603840D2*
X-6804959D1*
X-1358881D2*
X-1174334D1*
X-6921479Y1574173D2*
X-6801678D1*
X-1362162D2*
X-1178494D1*
X-6914506Y1544507D2*
X-6798397D1*
X-1365444D2*
X-1182596D1*
X-6907592Y1514840D2*
X-6793944D1*
X-1369897D2*
X-1186756D1*
X-6900619Y1485173D2*
X-6788436D1*
X-1375404D2*
X-1190858D1*
X-6893705Y1455507D2*
X-6782986D1*
X-1380854D2*
X-1194959D1*
X-6886733Y1425840D2*
X-6777479D1*
X-1386361D2*
X-1199119D1*
X-6879760Y1396173D2*
X-6772029D1*
X-1391811D2*
X-1203221D1*
X-6872846Y1366507D2*
X-6766522D1*
X-1397319D2*
X-1207381D1*
X-6865873Y1336840D2*
X-6761014D1*
X-1402768D2*
X-1211483D1*
X-6858959Y1307173D2*
X-6753455D1*
X-1410385D2*
X-1215643D1*
X-6851986Y1277507D2*
X-6745721D1*
X-1418119D2*
X-1219744D1*
X-6845072Y1247840D2*
X-6737986D1*
X-1425854D2*
X-1223846D1*
X-6838100Y1218173D2*
X-6730194D1*
X-1433647D2*
X-1228006D1*
X-6831127Y1188507D2*
X-6722459D1*
X-1441381D2*
X-1232108D1*
X-6824213Y1158840D2*
X-6714725D1*
X-1449115D2*
X-1236268D1*
X-6817240Y1129173D2*
X-6706053D1*
X-1457787D2*
X-1240369D1*
X-6810326Y1099507D2*
X-6695916D1*
X-1467924D2*
X-1244471D1*
X-6803354Y1069840D2*
X-6685779D1*
X-1478061D2*
X-1248631D1*
X-6796440Y1040173D2*
X-6675643D1*
X-1488197D2*
X-1252733D1*
X-6789467Y1010507D2*
X-6665565D1*
X-1498276D2*
X-1256893D1*
X-6782494Y980840D2*
X-6655428D1*
X-1508412D2*
X-1260994D1*
X-6775580Y951173D2*
X-6645233D1*
X-1518608D2*
X-1265154D1*
X-6768608Y921507D2*
X-6632694D1*
X-1531147D2*
X-1269256D1*
X-6761694Y891840D2*
X-6620096D1*
X-1543744D2*
X-1273358D1*
X-6754721Y862173D2*
X-6607498D1*
X-1556342D2*
X-1277518D1*
X-6747807Y832507D2*
X-6594901D1*
X-1568940D2*
X-1281619D1*
X-6740834Y802840D2*
X-6582244D1*
X-1581596D2*
X-1285779D1*
X-6733920Y773173D2*
X-6569647D1*
X-1594194D2*
X-1289881D1*
X-6726947Y743507D2*
X-6554998D1*
X-1608842D2*
X-1293983D1*
X-6719975Y713840D2*
X-6539705D1*
X-1624135D2*
X-1316072D1*
X-6713061Y684173D2*
X-6524471D1*
X-1639369D2*
X-1339158D1*
X-6698647Y654507D2*
X-6509236D1*
X-1654604D2*
X-1362244D1*
X-6679779Y624840D2*
X-6493944D1*
X-1669897D2*
X-1385389D1*
X-6660854Y595173D2*
X-6478709D1*
X-1685131D2*
X-1408475D1*
X-6641928Y565507D2*
X-6461190D1*
X-1702651D2*
X-1431561D1*
X-6623061Y535840D2*
X-6443084D1*
X-1720756D2*
X-1454647D1*
X-6604135Y506173D2*
X-6424979D1*
X-1738803D2*
X-1477791D1*
X-6585209Y476507D2*
X-6406873D1*
X-1756908D2*
X-1500877D1*
X-6566342Y446840D2*
X-6388768D1*
X-1775014D2*
X-1523963D1*
X-6547416Y417173D2*
X-6370545D1*
X-1793236D2*
X-1547108D1*
X-6528549Y387507D2*
X-6349393D1*
X-1814447D2*
X-1570194D1*
X-6509623Y357840D2*
X-6328182D1*
X-1835658D2*
X-1593279D1*
X-6490697Y328173D2*
X-6306912D1*
X-1856869D2*
X-1616365D1*
X-6471830Y298507D2*
X-6285701D1*
X-1878139D2*
X-1639510D1*
X-6452904Y268840D2*
X-6264490D1*
X-1899350D2*
X-1662596D1*
X-6434037Y239173D2*
X-6241404D1*
X-1922436D2*
X-1685682D1*
X-6415111Y209507D2*
X-6216736D1*
X-1947104D2*
X-1708826D1*
X-6396186Y179840D2*
X-6192010D1*
X-1971830D2*
X-1731912D1*
X-6377319Y150173D2*
X-6167342D1*
X-1996498D2*
X-1754998D1*
X-6358393Y120507D2*
X-6142674D1*
X-2021166D2*
X-1778143D1*
X-6339467Y90840D2*
X-6116600D1*
X-2047240D2*
X-1801229D1*
X-6320600Y61173D2*
X-6088006D1*
X-2075834D2*
X-1824315D1*
X-6301674Y31507D2*
X-6059412D1*
X-2104428D2*
X-1847401D1*
X-6282807Y1840D2*
X-6030819D1*
X-2133022D2*
X-1870545D1*
X-6263881Y-27827D2*
X-6002225D1*
X-2161615D2*
X-1893631D1*
X-6244955Y-57493D2*
X-5971404D1*
X-2192436D2*
X-1916717D1*
X-6226088Y-87160D2*
X-5938299D1*
X-2225541D2*
X-1939861D1*
X-6207162Y-116827D2*
X-5905194D1*
X-2258647D2*
X-1962947D1*
X-6188295Y-146493D2*
X-5872088D1*
X-2291752D2*
X-1986033D1*
X-6169369Y-176160D2*
X-5838924D1*
X-2324916D2*
X-2019197D1*
X-6150444Y-205827D2*
X-5800604D1*
X-2363236D2*
X-2058514D1*
X-6131576Y-235493D2*
X-5762225D1*
X-2401615D2*
X-2097830D1*
X-6112651Y-265160D2*
X-5723787D1*
X-2440053D2*
X-2137205D1*
X-6093725Y-294827D2*
X-5685350D1*
X-2478490D2*
X-2176522D1*
X-6050307Y-324493D2*
X-5641404D1*
X-2522436D2*
X-2215838D1*
X-5999623Y-354160D2*
X-5596580D1*
X-2567260D2*
X-2255154D1*
X-5948940Y-383827D2*
X-5551756D1*
X-2612084D2*
X-2294529D1*
X-5898256Y-413493D2*
X-5505819D1*
X-2658022D2*
X-2333846D1*
X-5847572Y-443160D2*
X-5452967D1*
X-2710873D2*
X-2373162D1*
X-5796889Y-472827D2*
X-5400115D1*
X-2763725D2*
X-2412537D1*
X-5746205Y-502493D2*
X-5347264D1*
X-2816576D2*
X-2451854D1*
X-5695522Y-532160D2*
X-5285740D1*
X-2878100D2*
X-2491170D1*
X-5644838Y-561827D2*
X-5222401D1*
X-2941381D2*
X-2530486D1*
X-5594154Y-591493D2*
X-5159119D1*
X-3004721D2*
X-2569861D1*
X-5543471Y-621160D2*
X-5082069D1*
X-3081772D2*
X-2609178D1*
X-5492787Y-650827D2*
X-5004490D1*
X-3159350D2*
X-2648494D1*
X-5442104Y-680493D2*
X-4915252D1*
X-3248588D2*
X-2687869D1*
X-5391420Y-710160D2*
X-4816639D1*
X-3347201D2*
X-2727186D1*
X-5340736Y-739827D2*
X-4696873D1*
X-3466967D2*
X-2766502D1*
X-5290111Y-769493D2*
X-4553904D1*
X-3609936D2*
X-2805819D1*
X-5239428Y-799160D2*
X-4319588D1*
X-3844252D2*
X-2845194D1*
X-5188744Y-828827D2*
X-2884510D1*
X-5138061Y-858493D2*
X-2923826D1*
X-5055736Y-888160D2*
X-3021326D1*
X-4934389Y-917827D2*
X-3142615D1*
X-4813041Y-947493D2*
X-3263904D1*
X-4691635Y-977160D2*
X-3385194D1*
X-4570287Y-1006827D2*
X-3506483D1*
X-4448940Y-1036493D2*
X-3627772D1*
X-4327592Y-1066160D2*
X-3749061D1*
X-4206186Y-1095827D2*
X-3870350D1*
X-4084838Y-1125493D2*
X-3991639D1*
X-1340809Y1926334D2*
X-1348337Y1727016D1*
X-1370477Y1528018D1*
X-1407085Y1331170D1*
X-1457962Y1137516D1*
X-1522841Y948099D1*
X-1601372Y763916D1*
X-1693139Y585960D1*
X-1797651Y415177D1*
X-1914353Y252478D1*
X-2042618Y98734D1*
X-2181763Y-45240D1*
X-2331045Y-178672D1*
X-2489672Y-300851D1*
X-2656791Y-411124D1*
X-2831516Y-508907D1*
X-3012911Y-593673D1*
X-3200009Y-664970D1*
X-3391812Y-722422D1*
X-3587301Y-765722D1*
X-3778832Y-793908D1*
X-3905106Y-803393D1*
X-3985133Y-809007D1*
X-4185357Y-808763D1*
X-4385029Y-793905D1*
X-4583083Y-764512D1*
X-4778465Y-720740D1*
X-4970130Y-662822D1*
X-5157054Y-591067D1*
X-5338241Y-505861D1*
X-5512727Y-407658D1*
X-5679583Y-296978D1*
X-5837909Y-174414D1*
X-5986869Y-40620D1*
X-6125664Y103691D1*
X-6253556Y257748D1*
X-6369858Y420730D1*
X-6473955Y591766D1*
X-6565289Y769944D1*
X-6643376Y954317D1*
X-6707792Y1143892D1*
X-6758200Y1337667D1*
X-6793364Y1528042D1*
X-6807454Y1653886D1*
X-6815986Y1733656D1*
X-6823056Y1933753D1*
X-6815503Y2133838D1*
X-6793363Y2332836D1*
X-6756755Y2529684D1*
X-6705876Y2723336D1*
X-6640999Y2912760D1*
X-6562465Y3096937D1*
X-6470698Y3274893D1*
X-6366185Y3445680D1*
X-6249484Y3608375D1*
X-6121218Y3762124D1*
X-5982074Y3906093D1*
X-5832790Y4039528D1*
X-5674165Y4161708D1*
X-5507044Y4271982D1*
X-5332320Y4369761D1*
X-5150924Y4454526D1*
X-4963825Y4525827D1*
X-4772019Y4583279D1*
X-4583055Y4625370D1*
X-4457811Y4644047D1*
X-4378407Y4655487D1*
X-4178700Y4669860D1*
X-3978476Y4669617D1*
X-3778805Y4654758D1*
X-3580749Y4625365D1*
X-3385369Y4581590D1*
X-3193704Y4523673D1*
X-3006780Y4451921D1*
X-2825588Y4366714D1*
X-2651102Y4268507D1*
X-2484251Y4157828D1*
X-2325924Y4035264D1*
X-2176965Y3901470D1*
X-2038170Y3757159D1*
X-1910277Y3603102D1*
X-1793975Y3440119D1*
X-1689879Y3269082D1*
X-1598541Y3090902D1*
X-1520458Y2906534D1*
X-1456038Y2716953D1*
X-1407075Y2529652D1*
X-1383837Y2405175D1*
X-1369504Y2326241D1*
X-1347847Y2127191D1*
X-1340799Y1926566D1*
X-4306670Y4963549D2*
X-4322732Y4959774D1*
X-4337083Y4957864D1*
X-5010001Y4832034D1*
X-6076774Y4321117D1*
X-6785211Y3182796D1*
X-7008277Y1932091D1*
X-6713436Y673009D1*
X-6092455Y-301572D1*
X-5113014Y-874900D1*
X-4038204Y-1137626D1*
X-2932263Y-867107D1*
X-1991868Y-157826D1*
X-1291241Y741848D1*
X-1124007Y1944322D1*
X-1307322Y3203615D1*
X-1943987Y4190402D1*
X-3011087Y4848109D1*
X-4030033Y5015278D1*
X-4306154Y4963647D1*
X-6084354Y5523398D2*
X-5742697D1*
X-6083007Y5493735D2*
X-5729104D1*
X-6081659Y5464072D2*
X-5715571D1*
X-6057814Y5434408D2*
X-5702037D1*
X-6032094Y5404745D2*
X-5688445D1*
X-6006316Y5375082D2*
X-5674911D1*
X-5980596Y5345418D2*
X-5661378D1*
X-5959563Y5315755D2*
X-5647785D1*
X-5944272Y5286092D2*
X-5634252D1*
X-5928981Y5256428D2*
X-5620718D1*
X-5913748Y5226765D2*
X-5607126D1*
X-5898457Y5197102D2*
X-5593592D1*
X-5883165Y5167438D2*
X-5580059D1*
X-5867933Y5137775D2*
X-5566466D1*
X-5852642Y5108112D2*
X-5552933D1*
X-5837350Y5078448D2*
X-5539399D1*
X-5822118Y5048785D2*
X-5525807D1*
X-5806826Y5019122D2*
X-5512273D1*
X-5791535Y4989458D2*
X-5498739D1*
X-5776302Y4959795D2*
X-5485147D1*
X-5761011Y4930132D2*
X-5471614D1*
X-5745720Y4900468D2*
X-5458021D1*
X-5730429Y4870805D2*
X-5444488D1*
X-5715196Y4841142D2*
X-5430954D1*
X-5699905Y4811478D2*
X-5417362D1*
X-5684613Y4781815D2*
X-5403828D1*
X-5669381Y4752152D2*
X-5390294D1*
X-5654089Y4722488D2*
X-5376702D1*
X-5638798Y4692825D2*
X-5363169D1*
X-5623565Y4663162D2*
X-5349635D1*
X-5608274Y4633498D2*
X-5336043D1*
X-5592983Y4603835D2*
X-5322509D1*
X-5577750Y4574172D2*
X-5308975D1*
X-5562459Y4544508D2*
X-5381565D1*
X-5547168Y4514845D2*
X-5455678D1*
X-6084525Y5461713D2*
X-5969175Y5328514D1*
X-5533506Y4482461D1*
X-5305705Y4573642D1*
X-5741866Y5528184D1*
X-6088635Y5551948D1*
X-6084524Y5461705D1*
X-6714633Y9126492D2*
X-6311870D1*
X-6792789Y9096828D2*
X-6311870D1*
X-6656339Y9067165D2*
X-6311870D1*
X-6656339Y9037502D2*
X-6311811D1*
X-7027314Y9007838D2*
X-6945549D1*
X-6656339D2*
X-6311811D1*
X-7101309Y8978175D2*
X-6945549D1*
X-6656339D2*
X-6311811D1*
X-7114609Y8948512D2*
X-6945549D1*
X-6656339D2*
X-6311752D1*
X-7127908Y8918848D2*
X-6945549D1*
X-6656339D2*
X-6311752D1*
X-7141207Y8889185D2*
X-6945549D1*
X-6656339D2*
X-6311752D1*
X-7154506Y8859522D2*
X-6945549D1*
X-6656339D2*
X-6311752D1*
X-7167806Y8829858D2*
X-6945549D1*
X-6656339D2*
X-6311694D1*
X-7181105Y8800195D2*
X-6888720D1*
X-6713110D2*
X-6311694D1*
X-7194404Y8770532D2*
X-6920240D1*
X-6681649D2*
X-6311694D1*
X-7207704Y8740868D2*
X-6936761D1*
X-6665127D2*
X-6311694D1*
X-7221003Y8711205D2*
X-6944436D1*
X-6657452D2*
X-6311635D1*
X-7234302Y8681542D2*
X-6944846D1*
X-6656984D2*
X-6311635D1*
X-7247602Y8651878D2*
X-6938109D1*
X-6663780D2*
X-6311635D1*
X-7260901Y8622215D2*
X-6922817D1*
X-6679071D2*
X-6311577D1*
X-7272853Y8592552D2*
X-6893875D1*
X-6707955D2*
X-6311577D1*
X-7272794Y8562888D2*
X-6311577D1*
X-7272794Y8533225D2*
X-6311577D1*
X-7272736Y8503562D2*
X-6311518D1*
X-7272677Y8473898D2*
X-6311518D1*
X-7272618Y8444235D2*
X-6827086D1*
X-6487901D2*
X-6311518D1*
X-7272560Y8414572D2*
X-6827086D1*
X-6487901D2*
X-6311460D1*
X-7272501Y8384908D2*
X-6827086D1*
X-6487901D2*
X-6311460D1*
X-7272443Y8355245D2*
X-6827086D1*
X-6487901D2*
X-6311460D1*
X-7272384Y8325582D2*
X-6827086D1*
X-6487901D2*
X-6311460D1*
X-7272325Y8295918D2*
X-6827086D1*
X-6487901D2*
X-6311401D1*
X-7272267Y8266255D2*
X-6827086D1*
X-6487901D2*
X-6311401D1*
X-7272267Y8236592D2*
X-6827086D1*
X-6487901D2*
X-6311401D1*
X-7272208Y8206928D2*
X-6827086D1*
X-6487901D2*
X-6311342D1*
X-7272150Y8177265D2*
X-6827086D1*
X-6487901D2*
X-6311342D1*
X-7272091Y8147602D2*
X-6827086D1*
X-6487901D2*
X-6311342D1*
X-7272032Y8117938D2*
X-6311342D1*
X-7271974Y8088275D2*
X-6733346D1*
X-6581640D2*
X-6311284D1*
X-7271915Y8058612D2*
X-6775881D1*
X-6539106D2*
X-6311284D1*
X-7271857Y8028948D2*
X-6800370D1*
X-6514617D2*
X-6311284D1*
X-7271798Y7999285D2*
X-6815603D1*
X-6499384D2*
X-6311225D1*
X-7271740Y7969622D2*
X-6824156D1*
X-6490830D2*
X-6311225D1*
X-7271740Y7939958D2*
X-6827086D1*
X-6487901D2*
X-6311225D1*
X-7271681Y7910295D2*
X-6824684D1*
X-6490303D2*
X-6311225D1*
X-7271622Y7880632D2*
X-6816716D1*
X-6498271D2*
X-6311167D1*
X-7271564Y7850968D2*
X-6802303D1*
X-6512683D2*
X-6311167D1*
X-7271505Y7821305D2*
X-6778986D1*
X-6536060D2*
X-6311167D1*
X-7271447Y7791642D2*
X-6739264D1*
X-6575723D2*
X-6311167D1*
X-7271388Y7761978D2*
X-6311108D1*
X-7271329Y7732315D2*
X-6910866D1*
X-7271271Y7702652D2*
X-6912682D1*
X-7271212Y7672988D2*
X-6912740D1*
X-7271212Y7643325D2*
X-6912858D1*
X-7271154Y7613662D2*
X-6912975D1*
X-7271095Y7583998D2*
X-6913092D1*
X-7271037Y7554335D2*
X-6913150D1*
X-7270978Y7524672D2*
X-6913268D1*
X-7270919Y7495008D2*
X-6913385D1*
X-7270861Y7465345D2*
X-7239013D1*
X-7089826D2*
X-6913443D1*
X-7270802Y7435682D2*
X-7239013D1*
X-7089826D2*
X-6913561D1*
X-7270744Y7406018D2*
X-7239013D1*
X-7089826D2*
X-6913678D1*
X-7270744Y7376355D2*
X-7239013D1*
X-7089826D2*
X-6913795D1*
X-7270685Y7346692D2*
X-7239013D1*
X-7089826D2*
X-6913854D1*
X-7270626Y7317028D2*
X-7239013D1*
X-7089826D2*
X-6913971D1*
X-7116718Y7287365D2*
X-6914088D1*
X-7116718Y7257702D2*
X-6914146D1*
X-7116718Y7228038D2*
X-6914264D1*
X-7116718Y7198375D2*
X-6914381D1*
X-7116718Y7168712D2*
X-6914498D1*
X-7116718Y7139048D2*
X-6914557D1*
X-7116718Y7109385D2*
X-6914674D1*
X-7116718Y7079722D2*
X-6914791D1*
X-7116718Y7050058D2*
X-6914850D1*
X-7270099Y7020395D2*
X-7239013D1*
X-7089826D2*
X-6914967D1*
X-7270041Y6990732D2*
X-7239013D1*
X-7089826D2*
X-6915084D1*
X-7269982Y6961068D2*
X-7239013D1*
X-7089826D2*
X-6915201D1*
X-7269923Y6931405D2*
X-7239013D1*
X-7089826D2*
X-6915260D1*
X-7269865Y6901742D2*
X-7239013D1*
X-7089826D2*
X-6915377D1*
X-7269806Y6872078D2*
X-7239013D1*
X-7089826D2*
X-6915494D1*
X-7269748Y6842415D2*
X-6915553D1*
X-7269689Y6812752D2*
X-6915670D1*
X-7269689Y6783088D2*
X-6915787D1*
X-7269630Y6753425D2*
X-6915904D1*
X-7269572Y6723762D2*
X-6915963D1*
X-7269513Y6694098D2*
X-6916080D1*
X-7269455Y6664435D2*
X-6916197D1*
X-7269396Y6634772D2*
X-6916256D1*
X-7269337Y6605108D2*
X-6916373D1*
X-7269279Y6575445D2*
X-6916490D1*
X-7269220Y6545782D2*
X-6916607D1*
X-7269220Y6516118D2*
X-6916666D1*
X-7269162Y6486455D2*
X-6916783D1*
X-7269103Y6456792D2*
X-6916900D1*
X-7269045Y6427128D2*
X-6916959D1*
X-7268986Y6397465D2*
X-6917076D1*
X-7268927Y6367802D2*
X-6917193D1*
X-7268869Y6338138D2*
X-6917252D1*
X-7268810Y6308475D2*
X-6917369D1*
X-7268752Y6278812D2*
X-6917486D1*
X-7268693Y6249148D2*
X-6917603D1*
X-7268693Y6219485D2*
X-6917662D1*
X-7268634Y6189822D2*
X-6917779D1*
X-7268576Y6160158D2*
X-6917896D1*
X-7268517Y6130495D2*
X-6917955D1*
X-7268459Y6100832D2*
X-6918072D1*
X-7268400Y6071168D2*
X-6916666D1*
X-7268341Y6041505D2*
X-6912858D1*
X-7268283Y6011842D2*
X-6909108D1*
X-7268224Y5982178D2*
X-6905300D1*
X-7268166Y5952515D2*
X-6901492D1*
X-7268166Y5922852D2*
X-6897683D1*
X-7268107Y5893188D2*
X-6893875D1*
X-7268049Y5863525D2*
X-6890067D1*
X-7267990Y5833862D2*
X-6886259D1*
X-7267931Y5804198D2*
X-6882509D1*
X-7267873Y5774535D2*
X-6878701D1*
X-7267814Y5744872D2*
X-6874893D1*
X-7267756Y5715208D2*
X-6871085D1*
X-7267697Y5685545D2*
X-6867277D1*
X-7267638Y5655882D2*
X-6863469D1*
X-7267638Y5626218D2*
X-6859660D1*
X-7267580Y5596555D2*
X-6855911D1*
X-7267521Y5566892D2*
X-6852513D1*
X-7267463Y5537228D2*
X-6852571D1*
X-7267404Y5507565D2*
X-6852630D1*
X-7129197Y5477902D2*
X-6852688D1*
X-7088830Y5448238D2*
X-6852747D1*
X-7071840Y5418575D2*
X-6852864D1*
X-7065805Y5388912D2*
X-6982928D1*
X-6887642D2*
X-6852923D1*
X-7068676Y5359248D2*
X-7023998D1*
X-7081331Y5329585D2*
X-7042863D1*
X-7109804Y5299922D2*
X-7051241D1*
X-7266994Y5270258D2*
X-7051592D1*
X-7266935Y5240595D2*
X-7043859D1*
X-7266877Y5210932D2*
X-7025990D1*
X-7266818Y5181268D2*
X-6988142D1*
X-6882427D2*
X-6853333D1*
X-7266760Y5151605D2*
X-6853392D1*
X-7266701Y5121942D2*
X-6853450D1*
X-7266642Y5092278D2*
X-6853509D1*
X-7266642Y5062615D2*
X-6853567D1*
X-7266584Y5032952D2*
X-6853626D1*
X-7266525Y5003288D2*
X-6853684D1*
X-7266467Y4973625D2*
X-6853743D1*
X-7266408Y4943962D2*
X-6853802D1*
X-7266350Y4914298D2*
X-6853919D1*
X-7266291Y4884635D2*
X-6984803D1*
X-6886411D2*
X-6853977D1*
X-7266232Y4854972D2*
X-7024876D1*
X-7266174Y4825308D2*
X-7043449D1*
X-7266115Y4795645D2*
X-7051651D1*
X-7111445Y4765982D2*
X-7051768D1*
X-7083616Y4736318D2*
X-7043859D1*
X-7071254Y4706655D2*
X-7025755D1*
X-7068676Y4676992D2*
X-6987029D1*
X-6884185D2*
X-6854387D1*
X-7074945Y4647328D2*
X-6854446D1*
X-7092287Y4617665D2*
X-6854505D1*
X-7134060Y4588002D2*
X-6854563D1*
X-7265705Y4558338D2*
X-6854622D1*
X-6491412Y7925372D2*
X-6492950Y7912382D1*
X-6495502Y7899552D1*
X-6499052Y7886962D1*
X-6503580Y7874689D1*
X-6509057Y7862809D1*
X-6515448Y7851396D1*
X-6522716Y7840519D1*
X-6530814Y7830246D1*
X-6539694Y7820641D1*
X-6549300Y7811761D1*
X-6559573Y7803663D1*
X-6570449Y7796395D1*
X-6581863Y7790003D1*
X-6593742Y7784527D1*
X-6606015Y7779999D1*
X-6618605Y7776448D1*
X-6631435Y7773896D1*
X-6644426Y7772359D1*
X-6657497Y7771845D1*
X-6670568Y7772359D1*
X-6683558Y7773896D1*
X-6696388Y7776448D1*
X-6708978Y7779999D1*
X-6721251Y7784527D1*
X-6733131Y7790003D1*
X-6744544Y7796395D1*
X-6755421Y7803663D1*
X-6765694Y7811761D1*
X-6775299Y7820641D1*
X-6784179Y7830246D1*
X-6792277Y7840519D1*
X-6799545Y7851396D1*
X-6805937Y7862809D1*
X-6811413Y7874689D1*
X-6815941Y7886962D1*
X-6819492Y7899552D1*
X-6822044Y7912382D1*
X-6823581Y7925372D1*
X-6824095Y7938443D1*
X-6823581Y7951514D1*
X-6822044Y7964505D1*
X-6819492Y7977335D1*
X-6815941Y7989925D1*
X-6811413Y8002198D1*
X-6805937Y8014077D1*
X-6799545Y8025491D1*
X-6792277Y8036367D1*
X-6784179Y8046640D1*
X-6775299Y8056246D1*
X-6765694Y8065126D1*
X-6755421Y8073224D1*
X-6744544Y8080492D1*
X-6733131Y8086883D1*
X-6721251Y8092360D1*
X-6708978Y8096888D1*
X-6696388Y8100438D1*
X-6683558Y8102990D1*
X-6670568Y8104528D1*
X-6657497Y8105042D1*
X-6644426Y8104528D1*
X-6631435Y8102990D1*
X-6618605Y8100438D1*
X-6606015Y8096888D1*
X-6593742Y8092360D1*
X-6581863Y8086883D1*
X-6570449Y8080492D1*
X-6559573Y8073224D1*
X-6549300Y8065126D1*
X-6539694Y8056246D1*
X-6530814Y8046640D1*
X-6522716Y8036367D1*
X-6515448Y8025491D1*
X-6509057Y8014077D1*
X-6503580Y8002198D1*
X-6499052Y7989925D1*
X-6495502Y7977335D1*
X-6492950Y7964505D1*
X-6491412Y7951514D1*
X-6490898Y7938443D1*
X-6491412Y7925372D1*
X-6821095Y8455041D2*
X-6490898D1*
Y8121845D1*
X-6824095D1*
Y8455041D1*
X-6821095D1*
X-6850277Y5207817D2*
X-6859243Y5198846D1*
X-6868592Y5191334D1*
X-6878677Y5184844D1*
X-6889388Y5179449D1*
X-6900607Y5175208D1*
X-6912208Y5172168D1*
X-6924064Y5170362D1*
X-6936045Y5169811D1*
X-6948017Y5170521D1*
X-6959849Y5172483D1*
X-6971409Y5175676D1*
X-6982570Y5180065D1*
X-6993209Y5185602D1*
X-7003207Y5192224D1*
X-7012456Y5199860D1*
X-7020852Y5208424D1*
X-7028302Y5217822D1*
X-7034725Y5227951D1*
X-7040049Y5238697D1*
X-7044216Y5249943D1*
X-7047179Y5261565D1*
X-7048906Y5273433D1*
X-7049378Y5285417D1*
X-7048589Y5297384D1*
X-7046549Y5309202D1*
X-7043279Y5320741D1*
X-7038816Y5331873D1*
X-7033209Y5342474D1*
X-7026521Y5352429D1*
X-7018824Y5361627D1*
X-7010205Y5369966D1*
X-7000757Y5377354D1*
X-6990587Y5383710D1*
X-6979805Y5388963D1*
X-6968532Y5393055D1*
X-6956891Y5395941D1*
X-6945012Y5397590D1*
X-6933025Y5397982D1*
X-6921064Y5397114D1*
X-6909259Y5394996D1*
X-6897742Y5391650D1*
X-6886640Y5387113D1*
X-6876076Y5381436D1*
X-6866165Y5374682D1*
X-6857019Y5366925D1*
X-6849954Y5359630D1*
X-6849517Y5570260D1*
X-6915124Y6082772D1*
X-6909399Y7727736D1*
X-6907934Y7732194D1*
X-6905163Y7735981D1*
X-6901357Y7738727D1*
X-6896890Y7740162D1*
X-6804603Y7740338D1*
X-6308076D1*
X-6308905Y9156155D1*
X-6639517D1*
X-6852544Y9075174D1*
X-6659338D1*
Y8821978D1*
X-6942534D1*
Y9041153D1*
X-7103476Y8980060D1*
X-7275887Y8595486D1*
X-7273592Y7306711D1*
X-7236006Y7306698D1*
X-7235998Y7488598D1*
X-7092802D1*
Y7305402D1*
X-7119693D1*
X-7119701Y7048598D1*
X-7092802D1*
Y6865402D1*
X-7235998D1*
Y7047292D1*
X-7273141Y7047301D1*
X-7270356Y5480784D1*
X-7257035Y5483915D1*
X-7245111Y5485190D1*
X-7169114Y5485298D1*
X-7157152Y5484452D1*
X-7145373Y5482202D1*
X-7133941Y5478580D1*
X-7123016Y5473637D1*
X-7112749Y5467440D1*
X-7103284Y5460077D1*
X-7094753Y5451650D1*
X-7087274Y5442277D1*
X-7080951Y5432087D1*
X-7075873Y5421224D1*
X-7072110Y5409838D1*
X-7069715Y5398088D1*
X-7068721Y5386137D1*
X-7069090Y5374719D1*
X-7070854Y5362858D1*
X-7074003Y5351287D1*
X-7078494Y5340168D1*
X-7084263Y5329656D1*
X-7091231Y5319896D1*
X-7099300Y5311025D1*
X-7108358Y5303167D1*
X-7118279Y5296431D1*
X-7128925Y5290911D1*
X-7140146Y5286683D1*
X-7151788Y5283807D1*
X-7163688Y5282323D1*
X-7194287Y5282108D1*
X-7248672Y5282455D1*
X-7260543Y5284148D1*
X-7270020Y5286565D1*
X-7269117Y4781253D1*
X-7256869Y4783666D1*
X-7244913Y4784589D1*
X-7165920Y4784352D1*
X-7154029Y4782801D1*
X-7142404Y4779860D1*
X-7131206Y4775570D1*
X-7120591Y4769990D1*
X-7110708Y4763198D1*
X-7101694Y4755290D1*
X-7093675Y4746374D1*
X-7086762Y4736575D1*
X-7081051Y4726031D1*
X-7076623Y4714887D1*
X-7073539Y4703298D1*
X-7071841Y4691427D1*
X-7071536Y4680007D1*
X-7072597Y4668063D1*
X-7075058Y4656326D1*
X-7078884Y4644961D1*
X-7084023Y4634127D1*
X-7090403Y4623973D1*
X-7097934Y4614641D1*
X-7106513Y4606262D1*
X-7116019Y4598953D1*
X-7126320Y4592814D1*
X-7137273Y4587931D1*
X-7148725Y4584373D1*
X-7160516Y4582190D1*
X-7173090Y4581408D1*
X-7251472Y4581755D1*
X-7263343Y4583448D1*
X-7268763Y4584711D1*
X-7268655Y4535639D1*
X-6851687Y4535670D1*
X-6851335Y4703405D1*
X-6859543Y4695246D1*
X-6868892Y4687734D1*
X-6878977Y4681244D1*
X-6889688Y4675849D1*
X-6900907Y4671608D1*
X-6912508Y4668568D1*
X-6924364Y4666762D1*
X-6936345Y4666211D1*
X-6948317Y4666921D1*
X-6960149Y4668883D1*
X-6971709Y4672076D1*
X-6982870Y4676465D1*
X-6993509Y4682002D1*
X-7003507Y4688624D1*
X-7012756Y4696260D1*
X-7021152Y4704824D1*
X-7028602Y4714222D1*
X-7035025Y4724351D1*
X-7040349Y4735097D1*
X-7044516Y4746343D1*
X-7047479Y4757965D1*
X-7049206Y4769833D1*
X-7049678Y4781817D1*
X-7048889Y4793784D1*
X-7046849Y4805602D1*
X-7043579Y4817141D1*
X-7039116Y4828273D1*
X-7033509Y4838874D1*
X-7026821Y4848829D1*
X-7019124Y4858027D1*
X-7010505Y4866366D1*
X-7001057Y4873754D1*
X-6990887Y4880110D1*
X-6980105Y4885363D1*
X-6968832Y4889455D1*
X-6957191Y4892341D1*
X-6945312Y4893990D1*
X-6933325Y4894382D1*
X-6921364Y4893514D1*
X-6909559Y4891396D1*
X-6898042Y4888050D1*
X-6886940Y4883513D1*
X-6876376Y4877836D1*
X-6866465Y4871082D1*
X-6857319Y4863325D1*
X-6851013Y4856891D1*
X-6850277Y5207840D1*
X-6815898Y8567980D2*
X-6825869Y8568369D1*
X-6835741Y8569537D1*
X-6845490Y8571476D1*
X-6855058Y8574175D1*
X-6864384Y8577615D1*
X-6873411Y8581777D1*
X-6882084Y8586634D1*
X-6890349Y8592157D1*
X-6898156Y8598311D1*
X-6905455Y8605058D1*
X-6912203Y8612358D1*
X-6918357Y8620164D1*
X-6923879Y8628429D1*
X-6928736Y8637102D1*
X-6932898Y8646130D1*
X-6936339Y8655456D1*
X-6939037Y8665023D1*
X-6940976Y8674772D1*
X-6942145Y8684644D1*
X-6942535Y8694577D1*
X-6942145Y8704509D1*
X-6940976Y8714381D1*
X-6939037Y8724130D1*
X-6936339Y8733698D1*
X-6932898Y8743024D1*
X-6928736Y8752051D1*
X-6923879Y8760724D1*
X-6918357Y8768989D1*
X-6912203Y8776796D1*
X-6905455Y8784095D1*
X-6898156Y8790843D1*
X-6890349Y8796997D1*
X-6882084Y8802519D1*
X-6873411Y8807376D1*
X-6864384Y8811538D1*
X-6855058Y8814979D1*
X-6845490Y8817677D1*
X-6835741Y8819616D1*
X-6825869Y8820785D1*
X-6800938Y8821174D1*
X-6776004Y8820785D1*
X-6766132Y8819616D1*
X-6756383Y8817677D1*
X-6746816Y8814979D1*
X-6737490Y8811538D1*
X-6728462Y8807376D1*
X-6719789Y8802519D1*
X-6711524Y8796997D1*
X-6703718Y8790843D1*
X-6696418Y8784095D1*
X-6689671Y8776796D1*
X-6683517Y8768989D1*
X-6677994Y8760724D1*
X-6673137Y8752051D1*
X-6668975Y8743024D1*
X-6665535Y8733698D1*
X-6662836Y8724130D1*
X-6660897Y8714381D1*
X-6659729Y8704509D1*
X-6659338Y8694577D1*
X-6659729Y8684644D1*
X-6660897Y8674772D1*
X-6662836Y8665023D1*
X-6665535Y8655456D1*
X-6668975Y8646130D1*
X-6673137Y8637102D1*
X-6677994Y8628429D1*
X-6683517Y8620164D1*
X-6689671Y8612358D1*
X-6696418Y8605058D1*
X-6703718Y8598311D1*
X-6711524Y8592157D1*
X-6719789Y8586634D1*
X-6728462Y8581777D1*
X-6737490Y8577615D1*
X-6746816Y8574175D1*
X-6756383Y8571476D1*
X-6766132Y8569537D1*
X-6776004Y8568369D1*
X-6800935Y8567978D1*
X-6815936Y8568037D1*
X-6824053Y8455000D2*
D25*
X-6490940Y8121887D1*
Y8455000D2*
X-6824053Y8121887D1*
X-7015928Y5364545D2*
X-6854652Y5203268D1*
Y5364545D2*
X-7015928Y5203268D1*
X-7016228Y4860945D2*
X-6854952Y4699668D1*
Y4860945D2*
X-7016228Y4699668D1*
X-7205290Y5383707D2*
X-7115389Y5298217D1*
Y5469196D2*
X-7205290Y5383707D1*
X-7208090Y4683007D2*
X-7118189Y4597517D1*
Y4768496D2*
X-7208090Y4683007D1*
X-7164400Y7488539D2*
D24*
Y7397000D1*
X-7235939D2*
X-7092860D1*
X-7164400Y6957000D2*
Y6865460D1*
X-7235939Y6957000D2*
X-7092860D1*
X-6800937Y8948577D2*
D25*
X-6659382Y8822017D1*
Y9075135D2*
X-6942491Y8822017D1*
D34*
X-3940360Y5807717D3*
D155*
X-900113Y4202263D3*
Y4042263D3*
D49*
X-1782283Y8655817D3*
X-2036283Y8630417D3*
X-2290283Y8655817D3*
X-2544283Y8630417D3*
X-2798283Y8655817D3*
X-3052283Y8630417D3*
D55*
X-900113Y4893133D3*
Y4733133D3*
Y4547697D3*
Y4387697D3*
D56*
X-6657497Y7938443D3*
D57*
Y8288443D3*
D58*
X-813523Y5909017D3*
X-1083523Y6459190D3*
X16477Y5904190D3*
X-53523Y7059017D3*
X-813523Y7019017D3*
D59*
X-6935290Y5283907D3*
X-6935590Y4780307D3*
D61*
X-7205290Y5383707D3*
X-7208090Y4683007D3*
D62*
X-2570120Y6929487D3*
X-5047060Y8526670D3*
X-6669557Y-481820D3*
D66*
X-5386087Y6536420D3*
Y6790420D3*
Y7044420D3*
D67*
Y7298420D3*
D71*
X-7164400Y7397000D3*
Y6957000D3*
X-6794400D3*
Y7397000D3*
D72*
X-7239400Y7177000D3*
X-6719400D3*
D71*
X-422743Y8203717D3*
Y7763717D3*
X-52743D3*
Y8203717D3*
D72*
X-497743Y7983717D3*
X22257D3*
D66*
X-6800937Y8694577D3*
D67*
Y8948577D3*
M02*
