%TF.GenerationSoftware,Novarm,DipTrace,3.3.1.3*%
%TF.CreationDate,2021-03-19T21:20:39+00:00*%
%FSLAX35Y35*%
%MOMM*%
%TF.FileFunction,Soldermask,Top*%
%TF.Part,Single*%
%AMOUTLINE1*
4,1,4,
-0.6,-0.55,
-0.6,0.55,
0.6,0.55,
0.6,-0.55,
-0.6,-0.55,
0*%
%ADD49C,1.8796*%
%ADD77C,2.3*%
%ADD92R,1.0X1.2*%
%ADD94R,0.8X1.2*%
%ADD100R,2.2X1.9*%
%ADD102O,2.2X1.9*%
%ADD106C,2.2*%
%ADD108O,2.1X1.4*%
%ADD112C,1.65*%
%ADD114C,2.3*%
%ADD116R,2.7X2.7*%
%ADD118C,2.7*%
%ADD119R,1.2X1.1*%
%ADD143C,2.2*%
%ADD156OUTLINE1*%
G75*
G01*
%LPD*%
D143*
X-3940360Y5807717D3*
D156*
X-900113Y4202263D3*
Y4042263D3*
D49*
X-1782283Y8655817D3*
X-2036283Y8630417D3*
X-2290283Y8655817D3*
X-2544283Y8630417D3*
X-2798283Y8655817D3*
X-3052283Y8630417D3*
D119*
X-900113Y4893133D3*
Y4733133D3*
Y4547697D3*
Y4387697D3*
D118*
X-6657497Y7938443D3*
D116*
Y8288443D3*
D114*
X-813523Y5909017D3*
X-1083523Y6459190D3*
X16477Y5904190D3*
X-53523Y7059017D3*
X-813523Y7019017D3*
D77*
X-398523Y5904017D3*
Y7019017D3*
D112*
X-6935290Y5283907D3*
X-6935590Y4780307D3*
D108*
X-7205290Y5383707D3*
X-7208090Y4683007D3*
D106*
X-2570120Y6929487D3*
X-5047060Y8526670D3*
X-6669557Y-481820D3*
D102*
X-5386087Y6536420D3*
Y6790420D3*
Y7044420D3*
D100*
Y7298420D3*
D94*
X-7164400Y7397000D3*
Y6957000D3*
X-6794400D3*
Y7397000D3*
D92*
X-7239400Y7177000D3*
X-6719400D3*
D94*
X-422743Y8203717D3*
Y7763717D3*
X-52743D3*
Y8203717D3*
D92*
X-497743Y7983717D3*
X22257D3*
D102*
X-6800937Y8694577D3*
D100*
Y8948577D3*
M02*
