%TF.GenerationSoftware,Novarm,DipTrace,3.3.1.3*%
%TF.CreationDate,2021-03-19T21:20:38+00:00*%
%FSLAX35Y35*%
%MOMM*%
%TF.FileFunction,Legend,Top*%
%TF.Part,Single*%
%ADD10C,0.25*%
%ADD13C,0.035*%
%ADD29C,2.98317*%
%ADD75O,1.46885X1.46955*%
%ADD151C,0.15686*%
%ADD152C,0.23529*%
G75*
G01*
%LPD*%
G36*
X-979935Y4171922D2*
X-1048790D1*
X-981851Y4104111D1*
X-979935Y4171922D1*
G37*
X-974213Y4251208D2*
D10*
X-975172Y3996185D1*
X-981851Y4101255D2*
X-1041067D1*
G36*
X-979935Y4862792D2*
X-1048790D1*
X-981851Y4794981D1*
X-979935Y4862792D1*
G37*
X-974213Y4942078D2*
D10*
X-975172Y4687055D1*
X-981851Y4792125D2*
X-1041067D1*
G36*
X-979935Y4517355D2*
X-1048790D1*
X-981851Y4449544D1*
X-979935Y4517355D1*
G37*
X-974213Y4596642D2*
D10*
X-975172Y4341618D1*
X-981851Y4446688D2*
X-1041067D1*
X-7677497Y7693443D2*
X-6567534D1*
Y8533443D1*
X-7677497D1*
Y7693443D1*
X-1229512Y5763959D2*
X172978D1*
Y7174330D1*
X-1229512D1*
Y5763959D1*
X-7257320Y7480757D2*
X-6697280D1*
Y6878370D1*
X-7257320D1*
Y7480757D1*
X-7164260Y7360641D2*
Y7001558D1*
X-6795380Y7362327D2*
Y7006919D1*
X-7160900Y7179563D2*
X-7088120D1*
X-6898640Y7174503D2*
X-6802160D1*
X-7083080Y7176190D2*
X-6920600Y7286186D1*
X-515663Y8287473D2*
X44377D1*
Y7685087D1*
X-515663D1*
Y8287473D1*
X-422603Y8167357D2*
Y7808275D1*
X-53723Y8169044D2*
Y7813636D1*
X-419243Y7986280D2*
X-346463D1*
X-156983Y7981220D2*
X-60503D1*
X-341423Y7982907D2*
X-178943Y8092902D1*
X-6945677Y8945534D2*
X-6945330Y8957245D1*
X-6944291Y8968899D1*
X-6942565Y8980438D1*
X-6940161Y8991808D1*
X-6937090Y9002953D1*
X-6933367Y9013817D1*
X-6929011Y9024349D1*
X-6924042Y9034497D1*
X-6918484Y9044212D1*
X-6912366Y9053446D1*
X-6905716Y9062154D1*
X-6898567Y9070294D1*
X-6890954Y9077826D1*
X-6882914Y9084714D1*
X-6874486Y9090923D1*
X-6865711Y9096424D1*
X-6856632Y9101191D1*
X-6847293Y9105198D1*
X-6837740Y9108428D1*
X-6828019Y9110865D1*
X-6818178Y9112495D1*
X-6808264Y9113313D1*
X-6798326D1*
X-6788412Y9112495D1*
X-6778571Y9110865D1*
X-6768850Y9108428D1*
X-6759297Y9105198D1*
X-6749958Y9101191D1*
X-6740879Y9096424D1*
X-6732104Y9090923D1*
X-6723676Y9084714D1*
X-6715636Y9077826D1*
X-6708023Y9070294D1*
X-6700874Y9062154D1*
X-6694224Y9053446D1*
X-6688106Y9044212D1*
X-6682549Y9034497D1*
X-6677580Y9024349D1*
X-6673223Y9013817D1*
X-6669500Y9002953D1*
X-6666429Y8991808D1*
X-6664025Y8980438D1*
X-6662299Y8968899D1*
X-6661260Y8957245D1*
X-6660913Y8945534D1*
X-6661260Y8933823D1*
X-6662299Y8922170D1*
X-6664025Y8910630D1*
X-6666429Y8899260D1*
X-6669500Y8888115D1*
X-6673223Y8877251D1*
X-6677580Y8866719D1*
X-6682549Y8856571D1*
X-6688106Y8846856D1*
X-6694224Y8837622D1*
X-6700874Y8828914D1*
X-6708023Y8820774D1*
X-6715636Y8813242D1*
X-6723676Y8806354D1*
X-6732104Y8800145D1*
X-6740879Y8794644D1*
X-6749958Y8789878D1*
X-6759297Y8785870D1*
X-6768850Y8782640D1*
X-6778571Y8780204D1*
X-6788412Y8778573D1*
X-6798326Y8777755D1*
X-6808264D1*
X-6818178Y8778573D1*
X-6828019Y8780204D1*
X-6837740Y8782640D1*
X-6847293Y8785870D1*
X-6856632Y8789878D1*
X-6865711Y8794644D1*
X-6874486Y8800145D1*
X-6882914Y8806354D1*
X-6890954Y8813242D1*
X-6898567Y8820774D1*
X-6905716Y8828914D1*
X-6912366Y8837622D1*
X-6918484Y8846856D1*
X-6924042Y8856571D1*
X-6929011Y8866719D1*
X-6933367Y8877251D1*
X-6937090Y8888115D1*
X-6940161Y8899260D1*
X-6942565Y8910630D1*
X-6944291Y8922170D1*
X-6945330Y8933823D1*
X-6945677Y8945534D1*
X-6940263Y8690166D2*
X-6939917Y8701877D1*
X-6938878Y8713530D1*
X-6937152Y8725070D1*
X-6934748Y8736440D1*
X-6931677Y8747585D1*
X-6927954Y8758449D1*
X-6923597Y8768981D1*
X-6918628Y8779129D1*
X-6913071Y8788844D1*
X-6906952Y8798078D1*
X-6900303Y8806786D1*
X-6893154Y8814926D1*
X-6885541Y8822458D1*
X-6877501Y8829346D1*
X-6869073Y8835555D1*
X-6860298Y8841056D1*
X-6851219Y8845822D1*
X-6841880Y8849830D1*
X-6832327Y8853060D1*
X-6822606Y8855496D1*
X-6812765Y8857127D1*
X-6802851Y8857945D1*
X-6792913D1*
X-6782999Y8857127D1*
X-6773158Y8855496D1*
X-6763437Y8853060D1*
X-6753883Y8849830D1*
X-6744545Y8845822D1*
X-6735466Y8841056D1*
X-6726691Y8835555D1*
X-6718263Y8829346D1*
X-6710223Y8822458D1*
X-6702610Y8814926D1*
X-6695461Y8806786D1*
X-6688811Y8798078D1*
X-6682693Y8788844D1*
X-6677135Y8779129D1*
X-6672166Y8768981D1*
X-6667810Y8758449D1*
X-6664087Y8747585D1*
X-6661016Y8736440D1*
X-6658612Y8725070D1*
X-6656886Y8713530D1*
X-6655847Y8701877D1*
X-6655500Y8690166D1*
X-6655847Y8678455D1*
X-6656886Y8666801D1*
X-6658612Y8655262D1*
X-6661016Y8643892D1*
X-6664087Y8632747D1*
X-6667810Y8621883D1*
X-6672166Y8611351D1*
X-6677135Y8601203D1*
X-6682693Y8591488D1*
X-6688811Y8582254D1*
X-6695461Y8573546D1*
X-6702610Y8565406D1*
X-6710223Y8557874D1*
X-6718263Y8550986D1*
X-6726691Y8544777D1*
X-6735466Y8539276D1*
X-6744545Y8534509D1*
X-6753883Y8530502D1*
X-6763437Y8527272D1*
X-6773158Y8524835D1*
X-6782999Y8523205D1*
X-6792913Y8522387D1*
X-6802851D1*
X-6812765Y8523205D1*
X-6822606Y8524835D1*
X-6832327Y8527272D1*
X-6841880Y8530502D1*
X-6851219Y8534509D1*
X-6860298Y8539276D1*
X-6869073Y8544777D1*
X-6877501Y8550986D1*
X-6885541Y8557874D1*
X-6893154Y8565406D1*
X-6900303Y8573546D1*
X-6906952Y8582254D1*
X-6913071Y8591488D1*
X-6918628Y8601203D1*
X-6923597Y8611351D1*
X-6927954Y8621883D1*
X-6931677Y8632747D1*
X-6934748Y8643892D1*
X-6937152Y8655262D1*
X-6938878Y8666801D1*
X-6939917Y8678455D1*
X-6940263Y8690166D1*
D75*
X-6564226Y8944115D3*
D29*
X-6678718Y-477730D3*
X-1456002Y-482760D3*
X-6431917Y6680427D2*
D13*
Y5896007D1*
X-1731917Y6680427D2*
Y5896007D1*
X-4081917Y5946007D2*
X-6331917D1*
G36*
X-6431917D2*
X-6331917Y5966007D1*
Y5926007D1*
X-6431917Y5946007D1*
G37*
X-4081917D2*
D13*
X-1831917D1*
G36*
X-1731917D2*
X-1831917Y5926007D1*
Y5966007D1*
X-1731917Y5946007D1*
G37*
X-4408118Y5992530D2*
D152*
Y6145493D1*
X-4481062Y6043573D1*
X-4371730D1*
X-4295527Y5992530D2*
X-4222583Y6145493D1*
X-4324671D1*
X-4027389Y6094617D2*
Y5992530D1*
Y6065473D2*
X-4005489Y6087373D1*
X-3990833Y6094617D1*
X-3969101D1*
X-3954445Y6087373D1*
X-3947201Y6065473D1*
Y5992530D1*
Y6065473D2*
X-3925301Y6087373D1*
X-3910645Y6094617D1*
X-3888914D1*
X-3874257Y6087373D1*
X-3866845Y6065473D1*
Y5992530D1*
X-3819786Y6094617D2*
Y5992530D1*
Y6065473D2*
X-3797886Y6087373D1*
X-3783230Y6094617D1*
X-3761499D1*
X-3746842Y6087373D1*
X-3739599Y6065473D1*
Y5992530D1*
Y6065473D2*
X-3717699Y6087373D1*
X-3703042Y6094617D1*
X-3681311D1*
X-3666655Y6087373D1*
X-3659242Y6065473D1*
Y5992530D1*
X-1554369Y4174571D2*
D151*
X-1564139Y4169742D1*
X-1573798Y4159971D1*
X-1578739Y4150312D1*
X-1583569Y4135712D1*
Y4111342D1*
X-1578739Y4096854D1*
X-1573798Y4087083D1*
X-1564139Y4077425D1*
X-1554369Y4072483D1*
X-1534939D1*
X-1525281Y4077425D1*
X-1515510Y4087083D1*
X-1510681Y4096854D1*
X-1505852Y4111342D1*
Y4135712D1*
X-1510681Y4150312D1*
X-1515510Y4159971D1*
X-1525281Y4169742D1*
X-1534939Y4174571D1*
X-1554369D1*
X-1474479Y4125942D2*
X-1430791D1*
X-1416191Y4130883D1*
X-1411250Y4135712D1*
X-1406421Y4145371D1*
Y4155142D1*
X-1411250Y4164800D1*
X-1416191Y4169742D1*
X-1430791Y4174571D1*
X-1474479D1*
Y4072483D1*
X-1440450Y4125942D2*
X-1406421Y4072483D1*
X-1297219D2*
X-1336190Y4174571D1*
X-1375048Y4072483D1*
X-1360448Y4106512D2*
X-1311819D1*
X-1197788Y4174571D2*
Y4072483D1*
X-1265846Y4174571D1*
Y4072483D1*
X-1093528Y4150312D2*
X-1098357Y4159971D1*
X-1108128Y4169742D1*
X-1117786Y4174571D1*
X-1137215D1*
X-1146986Y4169742D1*
X-1156645Y4159971D1*
X-1161586Y4150312D1*
X-1166415Y4135712D1*
Y4111342D1*
X-1161586Y4096854D1*
X-1156645Y4087083D1*
X-1146986Y4077425D1*
X-1137215Y4072483D1*
X-1117786D1*
X-1108128Y4077425D1*
X-1098357Y4087083D1*
X-1093528Y4096854D1*
Y4111342D1*
X-1117786D1*
X-999038Y4174571D2*
X-1062155D1*
Y4072483D1*
X-999038D1*
X-1062155Y4125942D2*
X-1023297D1*
X-1361116Y4808015D2*
X-1317428D1*
X-1302828Y4812957D1*
X-1297887Y4817786D1*
X-1293058Y4827444D1*
Y4837215D1*
X-1297887Y4846874D1*
X-1302828Y4851815D1*
X-1317428Y4856644D1*
X-1361116D1*
Y4754557D1*
X-1327087Y4808015D2*
X-1293058Y4754557D1*
X-1198568Y4856644D2*
X-1261685D1*
Y4754557D1*
X-1198568D1*
X-1261685Y4808015D2*
X-1222827D1*
X-1167196Y4856644D2*
Y4754557D1*
X-1133166D1*
X-1118566Y4759498D1*
X-1108796Y4769157D1*
X-1103966Y4778927D1*
X-1099137Y4793415D1*
Y4817786D1*
X-1103966Y4832386D1*
X-1108796Y4842044D1*
X-1118566Y4851815D1*
X-1133166Y4856644D1*
X-1167196D1*
X-1464753Y4499912D2*
X-1469583Y4509571D1*
X-1479353Y4519342D1*
X-1489012Y4524171D1*
X-1508441D1*
X-1518212Y4519342D1*
X-1527870Y4509571D1*
X-1532812Y4499912D1*
X-1537641Y4485312D1*
Y4460942D1*
X-1532812Y4446454D1*
X-1527870Y4436683D1*
X-1518212Y4427025D1*
X-1508441Y4422083D1*
X-1489012D1*
X-1479353Y4427025D1*
X-1469583Y4436683D1*
X-1464753Y4446454D1*
Y4460942D1*
X-1489012D1*
X-1433381Y4475542D2*
X-1389693D1*
X-1375093Y4480483D1*
X-1370152Y4485312D1*
X-1365322Y4494971D1*
Y4504742D1*
X-1370152Y4514400D1*
X-1375093Y4519342D1*
X-1389693Y4524171D1*
X-1433381D1*
Y4422083D1*
X-1399352Y4475542D2*
X-1365322Y4422083D1*
X-1270833Y4524171D2*
X-1333950D1*
Y4422083D1*
X-1270833D1*
X-1333950Y4475542D2*
X-1295091D1*
X-1176343Y4524171D2*
X-1239460D1*
Y4422083D1*
X-1176343D1*
X-1239460Y4475542D2*
X-1200602D1*
X-1076912Y4524171D2*
Y4422083D1*
X-1144971Y4524171D1*
Y4422083D1*
X-6457889Y7871738D2*
Y7769650D1*
X-6414089D1*
X-6399489Y7774592D1*
X-6394659Y7779421D1*
X-6389830Y7789080D1*
Y7803680D1*
X-6394659Y7813450D1*
X-6399489Y7818280D1*
X-6414089Y7823109D1*
X-6399489Y7828050D1*
X-6394659Y7832880D1*
X-6389830Y7842538D1*
Y7852309D1*
X-6394659Y7861967D1*
X-6399489Y7866909D1*
X-6414089Y7871738D1*
X-6457889D1*
Y7823109D2*
X-6414089D1*
X-6280628Y7769650D2*
X-6319599Y7871738D1*
X-6358458Y7769650D1*
X-6343858Y7803680D2*
X-6295228D1*
X-6215227Y7871738D2*
Y7769650D1*
X-6249256Y7871738D2*
X-6181197D1*
X-543953Y7308519D2*
X-553611Y7318290D1*
X-568211Y7323119D1*
X-587641D1*
X-602241Y7318290D1*
X-612011Y7308519D1*
Y7298861D1*
X-607070Y7289090D1*
X-602241Y7284261D1*
X-592582Y7279432D1*
X-563382Y7269661D1*
X-553611Y7264832D1*
X-548782Y7259890D1*
X-543953Y7250232D1*
Y7235632D1*
X-553611Y7225973D1*
X-568211Y7221032D1*
X-587641D1*
X-602241Y7225973D1*
X-612011Y7235632D1*
X-507639Y7298749D2*
Y7303578D1*
X-502810Y7313349D1*
X-497980Y7318178D1*
X-488210Y7323007D1*
X-468780D1*
X-459122Y7318178D1*
X-454293Y7313349D1*
X-449351Y7303578D1*
Y7293919D1*
X-454293Y7284149D1*
X-463951Y7269661D1*
X-512580Y7221032D1*
X-444522D1*
X-7171152Y7601519D2*
X-7180810Y7611290D1*
X-7195410Y7616119D1*
X-7214840D1*
X-7229440Y7611290D1*
X-7239210Y7601519D1*
Y7591861D1*
X-7234269Y7582090D1*
X-7229440Y7577261D1*
X-7219781Y7572432D1*
X-7190581Y7562661D1*
X-7180810Y7557832D1*
X-7175981Y7552890D1*
X-7171152Y7543232D1*
Y7528632D1*
X-7180810Y7518973D1*
X-7195410Y7514032D1*
X-7214840D1*
X-7229440Y7518973D1*
X-7239210Y7528632D1*
X-7125179Y7616119D2*
Y7533461D1*
X-7120350Y7518973D1*
X-7110579Y7514032D1*
X-7100921D1*
X-7139779Y7582090D2*
X-7105750D1*
X-7011261D2*
Y7514032D1*
Y7567490D2*
X-7020919Y7577261D1*
X-7030690Y7582090D1*
X-7045178D1*
X-7054948Y7577261D1*
X-7064607Y7567490D1*
X-7069548Y7552890D1*
Y7543232D1*
X-7064607Y7528632D1*
X-7054948Y7518973D1*
X-7045178Y7514032D1*
X-7030690D1*
X-7020919Y7518973D1*
X-7011261Y7528632D1*
X-6979888Y7582090D2*
Y7514032D1*
Y7552890D2*
X-6974947Y7567490D1*
X-6965288Y7577261D1*
X-6955517Y7582090D1*
X-6940917D1*
X-6894945Y7616119D2*
Y7533461D1*
X-6890116Y7518973D1*
X-6880345Y7514032D1*
X-6870686D1*
X-6909545Y7582090D2*
X-6875516D1*
X-6839314D2*
Y7533461D1*
X-6834485Y7518973D1*
X-6824714Y7514032D1*
X-6810114D1*
X-6800455Y7518973D1*
X-6785855Y7533461D1*
Y7582090D2*
Y7514032D1*
X-6754483Y7582090D2*
Y7480002D1*
Y7567490D2*
X-6744712Y7577149D1*
X-6735054Y7582090D1*
X-6720454D1*
X-6710683Y7577149D1*
X-6701024Y7567490D1*
X-6696083Y7552890D1*
Y7543119D1*
X-6701024Y7528632D1*
X-6710683Y7518861D1*
X-6720454Y7514032D1*
X-6735054D1*
X-6744712Y7518861D1*
X-6754483Y7528632D1*
X-241981Y8464656D2*
X-251639Y8474427D1*
X-266239Y8479256D1*
X-285668D1*
X-300268Y8474427D1*
X-310039Y8464656D1*
Y8454997D1*
X-305098Y8445227D1*
X-300268Y8440397D1*
X-290610Y8435568D1*
X-261410Y8425797D1*
X-251639Y8420968D1*
X-246810Y8416027D1*
X-241981Y8406368D1*
Y8391768D1*
X-251639Y8382110D1*
X-266239Y8377168D1*
X-285668D1*
X-300268Y8382110D1*
X-310039Y8391768D1*
X-176579Y8479256D2*
Y8377168D1*
X-210608Y8479256D2*
X-142550D1*
X-111177D2*
Y8377168D1*
X-77148D1*
X-62548Y8382110D1*
X-52777Y8391768D1*
X-47948Y8401539D1*
X-43119Y8416027D1*
Y8440397D1*
X-47948Y8454997D1*
X-52777Y8464656D1*
X-62548Y8474427D1*
X-77148Y8479256D1*
X-111177D1*
X56312D2*
Y8377168D1*
X-11746Y8479256D1*
Y8377168D1*
X-310039Y8505873D2*
X87685D1*
X-6446489Y8167347D2*
X-6344401D1*
Y8211147D1*
X-6349343Y8225747D1*
X-6354172Y8230576D1*
X-6363830Y8235405D1*
X-6378430D1*
X-6388201Y8230576D1*
X-6393030Y8225747D1*
X-6397860Y8211147D1*
X-6402801Y8225747D1*
X-6407630Y8230576D1*
X-6417289Y8235405D1*
X-6427060D1*
X-6436718Y8230576D1*
X-6441660Y8225747D1*
X-6446489Y8211147D1*
Y8167347D1*
X-6397860D2*
Y8211147D1*
X-6344401Y8344607D2*
X-6446489Y8305636D1*
X-6344401Y8266778D1*
X-6378430Y8281378D2*
Y8330007D1*
X-6446489Y8410009D2*
X-6344401D1*
X-6446489Y8375979D2*
Y8444038D1*
X-6327555Y8475410D2*
Y8567727D1*
X-6446489Y8599100D2*
X-6344401D1*
X-6446489Y8667158D2*
X-6344401D1*
X-6397860Y8599100D2*
Y8667158D1*
X-6446489Y8761648D2*
Y8698531D1*
X-6344401D1*
Y8761648D1*
X-6397860Y8698531D2*
Y8737389D1*
X-6344401Y8870850D2*
X-6446489Y8831879D1*
X-6344401Y8793020D1*
X-6378430Y8807620D2*
Y8856250D1*
X-6446489Y8902222D2*
X-6344401D1*
Y8936251D1*
X-6349343Y8950851D1*
X-6359001Y8960622D1*
X-6368772Y8965451D1*
X-6383260Y8970281D1*
X-6407630D1*
X-6422230Y8965451D1*
X-6431889Y8960622D1*
X-6441660Y8950851D1*
X-6446489Y8936251D1*
Y8902222D1*
Y9064770D2*
Y9001653D1*
X-6344401D1*
Y9064770D1*
X-6397860Y9001653D2*
Y9040512D1*
Y9096143D2*
Y9139830D1*
X-6402801Y9154430D1*
X-6407630Y9159372D1*
X-6417289Y9164201D1*
X-6427060D1*
X-6436718Y9159372D1*
X-6441660Y9154430D1*
X-6446489Y9139830D1*
Y9096143D1*
X-6344401D1*
X-6397860Y9130172D2*
X-6344401Y9164201D1*
X-5035928Y5670278D2*
D152*
X-5050416Y5684934D1*
X-5072316Y5692178D1*
X-5101459D1*
X-5123359Y5684934D1*
X-5138016Y5670278D1*
Y5655790D1*
X-5130603Y5641134D1*
X-5123359Y5633890D1*
X-5108872Y5626646D1*
X-5065072Y5611990D1*
X-5050416Y5604746D1*
X-5043172Y5597334D1*
X-5035928Y5582846D1*
Y5560946D1*
X-5050416Y5546459D1*
X-5072316Y5539046D1*
X-5101459D1*
X-5123359Y5546459D1*
X-5138016Y5560946D1*
X-4937825Y5692178D2*
Y5539046D1*
X-4988869Y5692178D2*
X-4886781D1*
X-4745047D2*
X-4839723D1*
Y5539046D1*
X-4745047D1*
X-4839723Y5619234D2*
X-4781435D1*
X-4697988D2*
X-4632457D1*
X-4610557Y5626646D1*
X-4603145Y5633890D1*
X-4595901Y5648378D1*
Y5663034D1*
X-4603145Y5677522D1*
X-4610557Y5684934D1*
X-4632457Y5692178D1*
X-4697988D1*
Y5539046D1*
X-4646945Y5619234D2*
X-4595901Y5539046D1*
X-4454166Y5692178D2*
X-4548842D1*
Y5539046D1*
X-4454166D1*
X-4548842Y5619234D2*
X-4490554D1*
X-4363308Y5692178D2*
X-4377964Y5684934D1*
X-4392452Y5670278D1*
X-4399864Y5655790D1*
X-4407108Y5633890D1*
Y5597334D1*
X-4399864Y5575603D1*
X-4392452Y5560946D1*
X-4377964Y5546459D1*
X-4363308Y5539046D1*
X-4334164D1*
X-4319676Y5546459D1*
X-4305020Y5560946D1*
X-4297776Y5575603D1*
X-4290532Y5597334D1*
Y5633890D1*
X-4297776Y5655790D1*
X-4305020Y5670278D1*
X-4319676Y5684934D1*
X-4334164Y5692178D1*
X-4363308D1*
X-4095338Y5619234D2*
X-4029806D1*
X-4007906Y5626646D1*
X-4000494Y5633890D1*
X-3993250Y5648378D1*
Y5663034D1*
X-4000494Y5677522D1*
X-4007906Y5684934D1*
X-4029806Y5692178D1*
X-4095338D1*
Y5539046D1*
X-4044294Y5619234D2*
X-3993250Y5539046D1*
X-3946191Y5692178D2*
Y5539046D1*
X-3797045Y5692178D2*
Y5539046D1*
X-3899132Y5692178D1*
Y5539046D1*
X-3640654Y5655790D2*
X-3647898Y5670278D1*
X-3662554Y5684934D1*
X-3677042Y5692178D1*
X-3706186D1*
X-3720842Y5684934D1*
X-3735330Y5670278D1*
X-3742742Y5655790D1*
X-3749986Y5633890D1*
Y5597334D1*
X-3742742Y5575603D1*
X-3735330Y5560946D1*
X-3720842Y5546459D1*
X-3706186Y5539046D1*
X-3677042D1*
X-3662554Y5546459D1*
X-3647898Y5560946D1*
X-3640654Y5575603D1*
Y5597334D1*
X-3677042D1*
X-3593595Y5692178D2*
Y5539046D1*
X-3506164D1*
X-3459105Y5692178D2*
Y5539046D1*
X-3302715Y5655790D2*
X-3309959Y5670278D1*
X-3324615Y5684934D1*
X-3339102Y5692178D1*
X-3368246D1*
X-3382902Y5684934D1*
X-3397390Y5670278D1*
X-3404802Y5655790D1*
X-3412046Y5633890D1*
Y5597334D1*
X-3404802Y5575603D1*
X-3397390Y5560946D1*
X-3382902Y5546459D1*
X-3368246Y5539046D1*
X-3339102D1*
X-3324615Y5546459D1*
X-3309959Y5560946D1*
X-3302715Y5575603D1*
Y5597334D1*
X-3339102D1*
X-3255656Y5692178D2*
Y5539046D1*
X-3153568Y5692178D2*
Y5539046D1*
X-3255656Y5619234D2*
X-3153568D1*
X-3055466Y5692178D2*
Y5539046D1*
X-3106509Y5692178D2*
X-3004422D1*
X-2809227Y5641134D2*
X-2765427Y5539046D1*
X-2721796Y5641134D1*
X-2630937Y5692009D2*
X-2652837Y5684766D1*
X-2667493Y5662866D1*
X-2674737Y5626478D1*
Y5604578D1*
X-2667493Y5568190D1*
X-2652837Y5546290D1*
X-2630937Y5539046D1*
X-2616449D1*
X-2594549Y5546290D1*
X-2580061Y5568190D1*
X-2572649Y5604578D1*
Y5626478D1*
X-2580061Y5662866D1*
X-2594549Y5684766D1*
X-2616449Y5692009D1*
X-2630937D1*
X-2580061Y5662866D2*
X-2667493Y5568190D1*
X-2518346Y5553703D2*
X-2525590Y5546290D1*
X-2518346Y5539046D1*
X-2510934Y5546290D1*
X-2518346Y5553703D1*
X-2449219Y5692009D2*
X-2369200D1*
X-2412831Y5633722D1*
X-2390931D1*
X-2376444Y5626478D1*
X-2369200Y5619234D1*
X-2361788Y5597334D1*
Y5582846D1*
X-2369200Y5560946D1*
X-2383688Y5546290D1*
X-2405588Y5539046D1*
X-2427488D1*
X-2449219Y5546290D1*
X-2456463Y5553703D1*
X-2463875Y5568190D1*
X-4940159Y5358845D2*
X-4881871Y5205713D1*
X-4823584Y5358845D1*
X-4659781Y5205713D2*
X-4718237Y5358845D1*
X-4776525Y5205713D1*
X-4754625Y5256757D2*
X-4681681D1*
X-4510634Y5358845D2*
Y5205713D1*
X-4612722Y5358845D1*
Y5205713D1*
X-4361488Y5336945D2*
X-4375976Y5351601D1*
X-4397876Y5358845D1*
X-4427019D1*
X-4448919Y5351601D1*
X-4463576Y5336945D1*
Y5322457D1*
X-4456163Y5307801D1*
X-4448919Y5300557D1*
X-4434432Y5293313D1*
X-4390632Y5278657D1*
X-4375976Y5271413D1*
X-4368732Y5264001D1*
X-4361488Y5249513D1*
Y5227613D1*
X-4375976Y5213125D1*
X-4397876Y5205713D1*
X-4427019D1*
X-4448919Y5213125D1*
X-4463576Y5227613D1*
X-4263385Y5358845D2*
Y5205713D1*
X-4314429Y5358845D2*
X-4212341D1*
X-4070607D2*
X-4165283D1*
Y5205713D1*
X-4070607D1*
X-4165283Y5285901D2*
X-4106995D1*
X-3928873Y5358845D2*
X-4023548D1*
Y5205713D1*
X-3928873D1*
X-4023548Y5285901D2*
X-3965261D1*
X-3779726Y5358845D2*
Y5205713D1*
X-3881814Y5358845D1*
Y5205713D1*
X-3732668Y5358845D2*
X-3696111Y5205713D1*
X-3659724Y5358845D1*
X-3623336Y5205713D1*
X-3586780Y5358845D1*
X-3445046D2*
X-3539721D1*
Y5205713D1*
X-3445046D1*
X-3539721Y5285901D2*
X-3481433D1*
X-3288655Y5322457D2*
X-3295899Y5336945D1*
X-3310555Y5351601D1*
X-3325043Y5358845D1*
X-3354187D1*
X-3368843Y5351601D1*
X-3383331Y5336945D1*
X-3390743Y5322457D1*
X-3397987Y5300557D1*
Y5264001D1*
X-3390743Y5242269D1*
X-3383331Y5227613D1*
X-3368843Y5213125D1*
X-3354187Y5205713D1*
X-3325043D1*
X-3310555Y5213125D1*
X-3295899Y5227613D1*
X-3288655Y5242269D1*
Y5264001D1*
X-3325043D1*
X-3146921Y5358845D2*
X-3241597D1*
Y5205713D1*
X-3146921D1*
X-3241597Y5285901D2*
X-3183309D1*
X-2997775Y5358845D2*
Y5205713D1*
X-3099862Y5358845D1*
Y5205713D1*
X-2943472Y5220369D2*
X-2950716Y5212957D1*
X-2943472Y5205713D1*
X-2936060Y5212957D1*
X-2943472Y5220369D1*
X-2845201Y5358845D2*
X-2859857Y5351601D1*
X-2874345Y5336945D1*
X-2881757Y5322457D1*
X-2889001Y5300557D1*
Y5264001D1*
X-2881757Y5242269D1*
X-2874345Y5227613D1*
X-2859857Y5213125D1*
X-2845201Y5205713D1*
X-2816057D1*
X-2801569Y5213125D1*
X-2786913Y5227613D1*
X-2779669Y5242269D1*
X-2772425Y5264001D1*
Y5300557D1*
X-2779669Y5322457D1*
X-2786913Y5336945D1*
X-2801569Y5351601D1*
X-2816057Y5358845D1*
X-2845201D1*
X-2725367Y5285901D2*
X-2659835D1*
X-2637935Y5293313D1*
X-2630523Y5300557D1*
X-2623279Y5315045D1*
Y5329701D1*
X-2630523Y5344188D1*
X-2637935Y5351601D1*
X-2659835Y5358845D1*
X-2725367D1*
Y5205713D1*
X-2674323Y5285901D2*
X-2623279Y5205713D1*
X-2466889Y5322457D2*
X-2474132Y5336945D1*
X-2488789Y5351601D1*
X-2503276Y5358845D1*
X-2532420D1*
X-2547076Y5351601D1*
X-2561564Y5336945D1*
X-2568976Y5322457D1*
X-2576220Y5300557D1*
Y5264001D1*
X-2568976Y5242269D1*
X-2561564Y5227613D1*
X-2547076Y5213125D1*
X-2532420Y5205713D1*
X-2503276D1*
X-2488789Y5213125D1*
X-2474132Y5227613D1*
X-2466889Y5242269D1*
Y5264001D1*
X-2503276D1*
M02*
