M48
METRIC,0000.00
T01C0.381
T02C0.6
T03C0.762
T04C0.85
T05C0.9
T06C1.016
T07C1.1
T08C1.4
T09C1.5
T10C2.3
%
T01
X-004985Y+007649
X-003582Y+006278
T02
X-007170Y+005384G85X-007240Y+005384
X-007173Y+004683G85X-007243Y+004683
T03
X-005777Y+008691
X-006207Y+009099
X-005685Y+008093
X-005548Y+007812
X-005306Y+008040
X-004957Y+007514
X-004078Y+007394
X-003793Y+007340
X-003812Y+007689
X-003850Y+007965
X-004084Y+007945
X-003485Y+007908
X-003478Y+007550
X-002928Y+007440
X-002794Y+007668
X-002454Y+007538
X-002943Y+007126
X-002976Y+006630
X-002872Y+006325
X-003684Y+006767
X-004073Y+006281
X-004314Y+006503
X-004982Y+006389
X-004982Y+006124
X-004699Y+005842
X-004341Y+005076
X-004579Y+004862
X-004830Y+004688
X-003822Y+004874
X-003588Y+004807
X-003404Y+004758
X-003437Y+005112
X-003687Y+005086
X-002698Y+004541
X-001871Y+003952
X-001369Y+002946
X-001199Y+001743
X-001477Y+000639
X-002187Y-000259
X-002761Y-000601
X-003453Y-000917
X-003862Y-000968
X-003453Y-001335
X-004984Y-000774
X-005925Y-000221
X-006665Y+000721
X-006858Y+001759
X-006595Y+003190
X-007036Y+004328
X-005830Y+004192
X-005959Y+005495
X-005855Y+005599
X-005737Y+005849
X-005680Y+006364
X-005686Y+006740
X-006176Y+007331
X-006162Y+007920
X-006715Y+007586
X-004330Y+008678
X-003587Y+008598
X-001317Y+008559
X-000884Y+008207
X-001014Y+007489
X-000650Y+007475
X-001441Y+007487
X-001436Y+005191
X-001170Y+005009
X-000904Y+005202
T04
X-006935Y+005284
X-006936Y+004780
T05
X-002570Y+006929
X-005386Y+007044
X-005386Y+006790
X-005386Y+006536
X-005386Y+007298
X-005047Y+008527
X-006801Y+008695
X-006801Y+008949
X-006670Y-000482
T06
X-001782Y+008656
X-002036Y+008630
X-002290Y+008656
X-002544Y+008630
X-002798Y+008656
X-003052Y+008630
T07
X-000814Y+005909
X-001084Y+006459
X-000814Y+007019
X-000054Y+007059
X+000016Y+005904
T08
X-006657Y+007938
X-006657Y+008288
T09
X-003940Y+005808
T10
X-000399Y+005904
X-000399Y+007019
T00
M30
